<svg width="22" height="23" viewBox="0 0 22 23" fill="none" xmlns="http://www.w3.org/2000/svg">
<path d="M5.90457 1.68324C5.90457 1.09556 5.42816 0.619141 4.84047 0.619141C4.25278 0.619141 3.77637 1.09556 3.77637 1.68324V2.74735C3.77637 3.33503 4.25278 3.81145 4.84047 3.81145C5.42816 3.81145 5.90457 3.33503 5.90457 2.74735V1.68324Z" fill="#334247"/>
<path d="M17.6087 1.68324C17.6087 1.09556 17.1323 0.619141 16.5446 0.619141C15.9569 0.619141 15.4805 1.09556 15.4805 1.68324V2.74735C15.4805 3.33503 15.9569 3.81145 16.5446 3.81145C17.1323 3.81145 17.6087 3.33503 17.6087 2.74735V1.68324Z" fill="#334247"/>
<path d="M0.0517578 8.60044V20.8376C0.0517578 21.4021 0.275979 21.9434 0.675095 22.3425C1.07421 22.7416 1.61553 22.9658 2.17996 22.9658H19.2056C19.77 22.9658 20.3114 22.7416 20.7105 22.3425C21.1096 21.9434 21.3338 21.4021 21.3338 20.8376V8.60044H0.0517578ZM6.43637 19.2415C6.43637 19.5237 6.32426 19.7943 6.1247 19.9939C5.92515 20.1935 5.65449 20.3056 5.37227 20.3056H4.30817C4.02595 20.3056 3.75529 20.1935 3.55573 19.9939C3.35618 19.7943 3.24407 19.5237 3.24407 19.2415V18.1774C3.24407 17.8951 3.35618 17.6245 3.55573 17.4249C3.75529 17.2254 4.02595 17.1133 4.30817 17.1133H5.37227C5.65449 17.1133 5.92515 17.2254 6.1247 17.4249C6.32426 17.6245 6.43637 17.8951 6.43637 18.1774V19.2415ZM6.43637 13.3889C6.43637 13.6711 6.32426 13.9418 6.1247 14.1413C5.92515 14.3409 5.65449 14.453 5.37227 14.453H4.30817C4.02595 14.453 3.75529 14.3409 3.55573 14.1413C3.35618 13.9418 3.24407 13.6711 3.24407 13.3889V12.3248C3.24407 12.0426 3.35618 11.7719 3.55573 11.5724C3.75529 11.3728 4.02595 11.2607 4.30817 11.2607H5.37227C5.65449 11.2607 5.92515 11.3728 6.1247 11.5724C6.32426 11.7719 6.43637 12.0426 6.43637 12.3248V13.3889ZM12.2889 19.2415C12.2889 19.5237 12.1768 19.7943 11.9773 19.9939C11.7777 20.1935 11.5071 20.3056 11.2248 20.3056H10.1607C9.87852 20.3056 9.60786 20.1935 9.4083 19.9939C9.20874 19.7943 9.09663 19.5237 9.09663 19.2415V18.1774C9.09663 17.8951 9.20874 17.6245 9.4083 17.4249C9.60786 17.2254 9.87852 17.1133 10.1607 17.1133H11.2248C11.5071 17.1133 11.7777 17.2254 11.9773 17.4249C12.1768 17.6245 12.2889 17.8951 12.2889 18.1774V19.2415ZM12.2889 13.3889C12.2889 13.6711 12.1768 13.9418 11.9773 14.1413C11.7777 14.3409 11.5071 14.453 11.2248 14.453H10.1607C9.87852 14.453 9.60786 14.3409 9.4083 14.1413C9.20874 13.9418 9.09663 13.6711 9.09663 13.3889V12.3248C9.09663 12.0426 9.20874 11.7719 9.4083 11.5724C9.60786 11.3728 9.87852 11.2607 10.1607 11.2607H11.2248C11.5071 11.2607 11.7777 11.3728 11.9773 11.5724C12.1768 11.7719 12.2889 12.0426 12.2889 12.3248V13.3889ZM18.1415 19.2415C18.1415 19.5237 18.0294 19.7943 17.8298 19.9939C17.6303 20.1935 17.3596 20.3056 17.0774 20.3056H16.0133C15.7311 20.3056 15.4604 20.1935 15.2609 19.9939C15.0613 19.7943 14.9492 19.5237 14.9492 19.2415V18.1774C14.9492 17.8951 15.0613 17.6245 15.2609 17.4249C15.4604 17.2254 15.7311 17.1133 16.0133 17.1133H17.0774C17.3596 17.1133 17.6303 17.2254 17.8298 17.4249C18.0294 17.6245 18.1415 17.8951 18.1415 18.1774V19.2415ZM18.1415 13.3889C18.1415 13.6711 18.0294 13.9418 17.8298 14.1413C17.6303 14.3409 17.3596 14.453 17.0774 14.453H16.0133C15.7311 14.453 15.4604 14.3409 15.2609 14.1413C15.0613 13.9418 14.9492 13.6711 14.9492 13.3889V12.3248C14.9492 12.0426 15.0613 11.7719 15.2609 11.5724C15.4604 11.3728 15.7311 11.2607 16.0133 11.2607H17.0774C17.3596 11.2607 17.6303 11.3728 17.8298 11.5724C18.0294 11.7719 18.1415 12.0426 18.1415 12.3248V13.3889ZM21.3338 7.53633V4.34403C21.3338 3.77959 21.1096 3.23827 20.7105 2.83916C20.3114 2.44004 19.77 2.21582 19.2056 2.21582H18.6736V2.74787C18.6736 3.92158 17.7191 4.87608 16.5453 4.87608C15.3716 4.87608 14.4171 3.92158 14.4171 2.74787V2.21582H6.96842V2.74787C6.96842 3.92158 6.01393 4.87608 4.84022 4.87608C3.66651 4.87608 2.71201 3.92158 2.71201 2.74787V2.21582H2.17996C1.61553 2.21582 1.07421 2.44004 0.675095 2.83916C0.275979 3.23827 0.0517578 3.77959 0.0517578 4.34403V7.53633H21.3338Z" fill="#334247"/>
</svg>
