<?xml version="1.0" encoding="utf-8"?>
<!-- Svg Vector Icons : http://www.onlinewebfonts.com/icon -->
<!DOCTYPE svg PUBLIC "-//W3C//DTD SVG 1.1//EN" "http://www.w3.org/Graphics/SVG/1.1/DTD/svg11.dtd">
<svg version="1.1" xmlns="http://www.w3.org/2000/svg" xmlns:xlink="http://www.w3.org/1999/xlink" x="0px" y="0px" viewBox="0 0 256 256" enable-background="new 0 0 256 256" xml:space="preserve">
<metadata> Svg Vector Icons : http://www.onlinewebfonts.com/icon </metadata>
<g><g><path fill="#000000" d="M119.3,134.7c-2.8,2.9-5.5,5.8-8.2,8.5c-2.4,2.5-4.9,4.9-7.3,7.4c-0.8,0.8-1.3,0.7-2,0c-18.9-19-37.7-37.9-56.6-56.9c-0.5-0.5-0.8-1-1.2-1.5c19.3-19.3,38.5-38.5,57.7-57.8c1-1,1.3-0.9,2.2,0C122.5,53.2,141.3,72,160,90.8c1.5,1.5,1.5,1.6,0,3.1c-5,5-9.9,10-15,15.2c2.1,2.2,4.4,4.6,6.6,6.9c18.4,18.5,36.7,37,55.1,55.5c11.1,11.1,22.1,22.2,33.1,33.4c3.3,3.3,5.3,7.3,6,12c1.2,8.3-4.6,15.8-10.9,18.4c-3.3,1.4-6.7,1.6-10.1,1.2c-3.4-0.5-6.3-2.2-8.8-4.7c-18.2-18.2-36.5-36.4-54.7-54.6c-13.7-13.7-27.3-27.4-40.9-41.1C120.2,135.6,119.9,135.3,119.3,134.7z"/><path fill="#000000" d="M36,220.5c-1.2-0.9-2.3-1.8-3.5-2.8c-6.4-5.3-5.8-16.3,2.4-20.1c2.4-1.1,5.4-1.4,8.1-1.4c24.6-0.1,49.1-0.1,73.7,0c4.6,0,9,1.4,11.6,5.8c3.3,5.6,2.2,12.5-3.8,16.3c-1.1,0.7-2.2,1.4-3.3,2.1c0,0.2,0.1,0.4,0.2,0.6c0.5,0,1,0,1.5,0c4.7,0,9.4,0.1,14.1,0c6-0.2,11.1,5.5,11.3,11.1c0.2,5.6-3.2,9.7-7.3,11.6c-1.3,0.6-2.9,0.9-4.4,0.9c-5.9,0.1-11.8,0.1-17.7,0.1c-32,0-63.9,0-95.9,0c-3.7,0-6.8-1-9.5-3.4c-4.3-3.9-4.6-10.2-1.8-14.9c2.2-3.5,5.3-5.4,9.4-5.4c4.8,0,9.6,0,14.5,0C35.8,220.7,35.9,220.6,36,220.5z"/><path fill="#000000" d="M33.5,101.1c0.6,0.6,1.1,1,1.6,1.5c19,19,38,38.1,57,57.1c1.1,1.1,1.1,1.8,0,2.8c-2.9,2.6-5.7,5.2-8.5,7.8c-3.8,3.6-11.3,2.9-15-0.8c-12.9-13.1-26-26-38.9-39c-2-2-4-4.1-5.8-6.2c-2.8-3.4-2.5-10,0.4-13.4C27.2,107.5,30.4,104.4,33.5,101.1z"/><path fill="#000000" d="M170.7,82.7c-2.8-2.8-5.9-5.9-9.1-9.1c-16.3-16.3-32.5-32.7-48.8-49c-1.2-1.2-1.2-1.8,0.1-2.9c2.6-2.2,5.1-4.5,7.5-6.9c4.9-5,11.9-4,16.2,0.3c14.3,14.3,28.5,28.6,42.8,42.9c2.4,2.4,3.6,5.4,3.5,8.6c-0.1,3.1-1.4,6.1-3.7,8.3C176.5,77.5,173.6,80,170.7,82.7z"/></g></g>
</svg>