<svg width="24" height="23" viewBox="0 0 24 23" fill="none" xmlns="http://www.w3.org/2000/svg">
<path d="M11.5885 0.953759C11.6719 0.694978 12.038 0.694978 12.1214 0.95376L14.5334 8.43797C14.5708 8.55386 14.6788 8.63232 14.8005 8.63205L22.6593 8.61487C22.9311 8.61427 23.0443 8.96229 22.8241 9.12163L16.4557 13.7304C16.3572 13.8018 16.316 13.9286 16.3538 14.0443L18.7987 21.5184C18.8832 21.7768 18.587 21.9918 18.3675 21.8315L12.0201 17.1954C11.9217 17.1236 11.7882 17.1236 11.6898 17.1954L5.34237 21.8315C5.12284 21.9918 4.82664 21.7768 4.91116 21.5184L7.35605 14.0443C7.39388 13.9286 7.35268 13.8018 7.2541 13.7304L0.885746 9.12163C0.665569 8.96229 0.778711 8.61427 1.0505 8.61487L8.90933 8.63205C9.03108 8.63232 9.13906 8.55386 9.17641 8.43797L11.5885 0.953759Z" stroke="#228B22" stroke-width="1.39982"/>
</svg>
