<svg width="85" height="89" viewBox="0 0 85 89" fill="none" xmlns="http://www.w3.org/2000/svg">
<path opacity="0.9" d="M84.7193 46.135C84.7193 69.3182 65.9754 88.062 42.7923 88.062C19.6091 88.062 0.865234 69.3182 0.865234 46.135C0.865234 22.9518 19.6091 4.20801 42.7923 4.20801C65.9754 4.20801 84.7193 22.9518 84.7193 46.135Z" fill="#C9C9C9"/>
<path d="M84.7193 41.9426C84.7193 65.1258 65.9754 83.8697 42.7923 83.8697C19.6091 83.8697 0.865234 65.1258 0.865234 41.9426C0.865234 18.7595 19.6091 0.015625 42.7923 0.015625C65.9754 0.015625 84.7193 18.8828 84.7193 41.9426Z" fill="#D3E8D3"/>
<path d="M54.8781 44.0391C54.8781 50.4515 49.6989 55.6307 43.2866 55.6307H42.5467C36.1343 55.6307 30.9551 50.4515 30.9551 44.0391V28.6248C30.9551 22.2124 36.1343 17.0332 42.5467 17.0332H43.2866C49.6989 17.0332 54.8781 22.2124 54.8781 28.6248V44.0391Z" stroke="#29ABE2" stroke-width="3.25655" stroke-miterlimit="10"/>
<path d="M63.6325 61.4271C63.6325 64.0167 61.5362 66.1131 58.9466 66.1131H26.6381C24.0485 66.1131 21.9521 64.0167 21.9521 61.4271V37.6274C21.9521 35.0378 24.0485 32.9414 26.6381 32.9414H58.9466C61.5362 32.9414 63.6325 35.0378 63.6325 37.6274V61.4271Z" fill="#FBB03B"/>
<path d="M58.9466 60.933H26.6381C24.0485 60.933 21.9521 58.8367 21.9521 56.2471V61.4263C21.9521 64.0159 24.0485 66.1123 26.6381 66.1123H58.9466C61.5362 66.1123 63.6325 64.0159 63.6325 61.4263V56.3704C63.6325 58.8367 61.5362 60.933 58.9466 60.933Z" fill="#F27E27" fill-opacity="0.5"/>
<path d="M45.381 46.2588C46.3675 45.5189 47.1074 44.2858 47.1074 42.806C47.1074 40.463 45.2577 38.6133 42.9147 38.6133C40.5718 38.6133 38.722 40.463 38.722 42.806C38.722 44.1624 39.4619 45.3956 40.4484 46.2588C39.7086 49.095 38.1055 55.6307 38.1055 55.6307H42.5448H43.2847H47.724C47.724 55.6307 46.1209 49.095 45.381 46.2588Z" fill="#1077A3"/>
<path d="M47.7253 55.6305H47.1087C46.6154 53.4108 45.7522 50.3279 45.3823 48.6015C45.5056 48.4782 45.7522 48.3549 45.8755 48.1083C46.6154 51.3144 47.7253 55.6305 47.7253 55.6305ZM40.3264 48.6015C40.2031 48.4782 39.9564 48.3549 39.8331 48.1083C39.0932 51.1911 37.9834 55.5071 37.9834 55.5071H38.6C39.2165 53.5341 39.9564 50.3279 40.3264 48.6015ZM42.916 41.0793C44.7657 41.0793 46.3688 42.3125 46.9854 44.1622C47.1087 43.7922 47.232 43.4223 47.232 42.929C47.232 40.5861 45.3823 38.7363 43.0393 38.7363C40.6963 38.7363 38.8466 40.5861 38.8466 42.929C38.8466 43.299 38.9699 43.7922 39.0932 44.1622C39.3399 42.3125 40.943 41.0793 42.916 41.0793Z" fill="#005073" fill-opacity="0.5"/>
</svg>
