<svg width="85" height="89" viewBox="0 0 85 89" fill="none" xmlns="http://www.w3.org/2000/svg">
<g opacity="0.9">
<path d="M84.7193 46.4065C84.7193 69.5897 65.9754 88.3335 42.7923 88.3335C19.6091 88.3335 0.865234 69.5897 0.865234 46.4065C0.865234 23.2233 19.6091 4.47949 42.7923 4.47949C65.9754 4.47949 84.7193 23.3466 84.7193 46.4065Z" fill="#C9C9C9"/>
</g>
<path d="M84.7193 42.3372C84.7193 65.5203 65.9754 84.2642 42.7923 84.2642C19.6091 84.2642 0.865234 65.5203 0.865234 42.3372C0.865234 19.154 19.6091 0.410156 42.7923 0.410156C65.9754 0.410156 84.7193 19.2773 84.7193 42.3372Z" fill="#D3E8D3"/>
<path d="M68.1931 55.902C68.1931 57.5051 66.8367 58.8616 65.2336 58.8616H20.4703C18.8672 58.8616 17.5107 57.5051 17.5107 55.902V28.8961C17.5107 27.293 18.8672 25.9365 20.4703 25.9365H65.2336C66.8367 25.9365 68.1931 27.293 68.1931 28.8961V55.902Z" fill="#1077A3"/>
<path d="M63.3842 58.8609H65.2339C65.6039 58.8609 65.9738 58.7375 66.3438 58.6142V49.4889H68.1935V46.5294H66.3438V37.1575H68.1935V34.1979H66.3438V26.0591C65.9738 25.9358 65.6039 25.8125 65.2339 25.8125H63.3842V34.1979H54.1356C55.862 30.2518 58.3283 27.2923 61.0412 25.8125H51.0527C43.5305 30.4985 38.4746 38.7605 38.4746 48.2558C38.4746 51.9552 39.2145 55.5314 40.6943 58.7375H44.0238C42.544 55.9013 41.6808 52.6951 41.5575 49.3656H48.4631C48.5864 52.6951 48.9564 55.9013 49.8196 58.7375H52.9025C52.0392 55.9013 51.546 52.6951 51.4227 49.3656H63.3842V58.8609ZM48.4631 46.5294H41.5575C41.8041 43.1999 42.7906 39.9937 44.2704 37.2808H49.9429C49.203 40.117 48.5864 43.1999 48.4631 46.5294ZM50.9294 34.1979H46.2434C48.5864 31.115 51.546 28.6487 54.9988 27.0456C53.3957 29.0187 52.0392 31.485 50.9294 34.1979ZM51.4227 46.5294C51.546 43.1999 52.1626 39.9937 53.0258 37.2808H63.3842V46.5294H51.4227Z" fill="#1E85B0"/>
<path d="M32.1859 33.0889C32.1859 33.7055 31.6926 34.3221 30.9527 34.3221H21.5808C20.9642 34.3221 20.3477 33.8288 20.3477 33.0889V30.2527C20.3477 29.6361 20.8409 29.0195 21.5808 29.0195H30.9527C31.5693 29.0195 32.1859 29.5128 32.1859 30.2527V33.0889Z" fill="white"/>
<path d="M29.7191 53.435C29.7191 54.0516 29.2258 54.5449 28.6092 54.5449H21.7036C21.087 54.5449 20.5938 54.0516 20.5938 53.435C20.5938 52.8184 21.087 52.3252 21.7036 52.3252H28.6092C29.2258 52.3252 29.7191 52.8184 29.7191 53.435Z" fill="white"/>
<path d="M41.4349 53.435C41.4349 54.0516 40.9416 54.5449 40.325 54.5449H33.4194C32.8028 54.5449 32.3096 54.0516 32.3096 53.435C32.3096 52.8184 32.8028 52.3252 33.4194 52.3252H40.325C40.9416 52.3252 41.4349 52.8184 41.4349 53.435Z" fill="white"/>
<path d="M53.1487 53.435C53.1487 54.0516 52.6555 54.5449 52.0389 54.5449H45.1333C44.5167 54.5449 44.0234 54.0516 44.0234 53.435C44.0234 52.8184 44.5167 52.3252 45.1333 52.3252H52.0389C52.5322 52.3252 53.1487 52.8184 53.1487 53.435Z" fill="white"/>
<path d="M64.7415 53.435C64.7415 54.0516 64.2482 54.5449 63.6317 54.5449H56.726C56.1095 54.5449 55.6162 54.0516 55.6162 53.435C55.6162 52.8184 56.1095 52.3252 56.726 52.3252H63.6317C64.2482 52.3252 64.7415 52.8184 64.7415 53.435Z" fill="white"/>
<path d="M28.2395 46.8996C28.2395 47.8861 27.3763 48.7493 26.3898 48.7493H22.3204C21.3339 48.7493 20.4707 47.8861 20.4707 46.8996V42.8302C20.4707 41.8437 21.3339 40.9805 22.3204 40.9805H26.3898C27.3763 40.9805 28.2395 41.8437 28.2395 42.8302V46.8996Z" fill="#FBB03B"/>
<path d="M28.24 43.3234V42.9535H26.0203V40.9805H25.6504V48.7493H26.0203V46.6529H28.24V46.283H26.0203V44.9265H28.24V44.5566H26.0203V43.3234H28.24Z" fill="#BA7001"/>
<path d="M20.4707 46.283V46.6529H22.8137V48.7493H23.1836V40.9805H22.8137V42.9535H20.4707V43.3234H22.8137V44.5566H20.4707V44.9265H22.8137V46.283H20.4707Z" fill="#BA7001"/>
<path d="M65.2336 57.8746H20.4703C18.8672 57.8746 17.5107 56.5181 17.5107 54.915V55.9016C17.5107 57.5047 18.8672 58.8611 20.4703 58.8611H65.2336C66.8367 58.8611 68.1931 57.5047 68.1931 55.9016V54.915C68.1931 56.5181 66.8367 57.8746 65.2336 57.8746Z" fill="#085F85" fill-opacity="0.5"/>
</svg>
