<svg width="85" height="89" viewBox="0 0 85 89" fill="none" xmlns="http://www.w3.org/2000/svg">
<g opacity="0.9">
<path d="M84.7193 46.7991C84.7193 69.9823 65.9754 88.7261 42.7923 88.7261C19.6091 88.7261 0.865234 69.9823 0.865234 46.7991C0.865234 23.6159 19.6091 4.87207 42.7923 4.87207C65.9754 4.87207 84.7193 23.7392 84.7193 46.7991Z" fill="#C9C9C9"/>
</g>
<path d="M84.7193 42.7298C84.7193 65.9129 65.9754 84.6568 42.7923 84.6568C19.6091 84.6568 0.865234 65.9129 0.865234 42.7298C0.865234 19.5466 19.6091 0.802734 42.7923 0.802734C65.9754 0.802734 84.7193 19.5466 84.7193 42.7298Z" fill="#D3E8D3"/>
<path d="M66.5963 43.4694C66.5963 56.5408 56.1145 67.2691 42.9199 67.2691C29.8485 67.2691 19.1201 56.7874 19.1201 43.5927C19.1201 30.5213 29.6019 19.793 42.7965 19.793C55.8679 19.793 66.5963 30.3981 66.5963 43.4694Z" fill="#FBE45F"/>
<path d="M66.5963 43.4694C66.5963 56.5408 56.1145 67.2691 42.9199 67.2691C29.8485 67.2691 19.1201 56.7874 19.1201 43.5927C19.1201 30.5213 29.6019 19.793 42.7965 19.793C55.8679 19.793 66.5963 30.3981 66.5963 43.4694Z" fill="#F27E27" fill-opacity="0.5"/>
<path d="M66.5963 41.8669C66.5963 54.9382 56.1145 65.6666 42.9199 65.6666C29.8485 65.6666 19.1201 55.1849 19.1201 41.9902C19.1201 28.9188 29.6019 18.1904 42.7965 18.1904C55.8679 18.1904 66.5963 28.6722 66.5963 41.8669Z" fill="#FBE45F"/>
<path d="M42.9186 59.254C33.4234 59.254 25.6546 51.6085 25.5312 41.9899C25.5312 32.4947 33.1768 24.7259 42.7953 24.6025C52.2906 24.6025 60.0594 32.2481 60.1827 41.8666C60.1827 51.3618 52.4139 59.1307 42.9186 59.254Z" fill="#FBB03B"/>
<path d="M42.7956 26.329C52.0442 26.329 59.6897 33.6045 60.0596 42.7298C60.0596 42.4832 60.0596 42.1132 60.0596 41.8666C60.0596 32.3714 52.2908 24.6025 42.6723 24.6025C33.177 24.6025 25.4082 32.3714 25.4082 41.9899C25.4082 42.2366 25.4082 42.4832 25.4082 42.7298C26.0248 33.6045 33.547 26.329 42.7956 26.329Z" fill="#F27E27" fill-opacity="0.5"/>
<path d="M49.0855 46.1832C49.0855 48.7728 47.1124 50.4993 44.1529 50.8692V54.1987H42.0565V50.9925C39.8369 50.7459 37.7405 49.8827 36.2607 48.4029L37.4939 46.0599C39.2203 47.5397 41.3166 48.4029 43.0431 48.4029C44.8928 48.4029 46.1259 47.663 46.1259 46.4299C46.1259 42.8538 37.3706 44.8268 37.3706 39.031C37.3706 36.5647 39.2203 34.8383 42.1798 34.5917V31.5088H44.2762V34.5917C46.0026 34.715 47.729 35.3315 48.9621 36.1947L47.8523 38.661C46.1259 37.5512 44.2762 37.1813 43.0431 37.1813C41.44 37.1813 40.3301 37.7978 40.3301 38.9077C40.3301 42.2372 49.0855 40.3874 49.0855 46.1832Z" fill="#F27E27" fill-opacity="0.5"/>
<path d="M49.0855 44.9498C49.0855 47.5394 47.1124 49.2659 44.1529 49.6358V52.9653H42.0565V49.7591C39.8369 49.5125 37.7405 48.6493 36.2607 47.1695L37.4939 44.8265C39.2203 46.3063 41.3166 47.1695 43.0431 47.1695C44.8928 47.1695 46.1259 46.4296 46.1259 45.1965C46.1259 41.6204 37.3706 43.5934 37.3706 37.7976C37.3706 35.3313 39.2203 33.6049 42.1798 33.3583V30.2754H44.2762V33.3583C46.0026 33.4816 47.729 34.0982 48.9621 34.9614L47.8523 37.4276C46.1259 36.3178 44.2762 35.9479 43.0431 35.9479C41.44 35.9479 40.3301 36.5644 40.3301 37.6743C40.3301 41.0038 49.0855 39.154 49.0855 44.9498Z" fill="#FBE45F"/>
</svg>
