<svg width="35" height="34" viewBox="0 0 35 34" fill="none" xmlns="http://www.w3.org/2000/svg">
<path d="M17.5 34C17.0345 34 16.5905 33.9152 16.1681 33.7456C15.7456 33.5761 15.3604 33.3358 15.0125 33.0249L1.00374 19.4165C0.683707 19.0773 0.436409 18.7025 0.261845 18.2922C0.0872817 17.8818 0 17.4511 0 17C0 16.5489 0.0872817 16.1109 0.261845 15.6858C0.436409 15.2607 0.683707 14.8933 1.00374 14.5835L15.0125 0.975074C15.3616 0.635922 15.7474 0.388341 16.1698 0.232331C16.5923 0.0763213 17.0357 -0.00111831 17.5 1.21997e-05C17.9643 0.00114271 18.4153 0.0791475 18.8529 0.234027C19.2904 0.388906 19.6687 0.635922 19.9875 0.975074L33.9962 14.5835C34.3454 14.8944 34.6002 15.2619 34.7608 15.6858C34.9214 16.1097 35.0011 16.5478 35 17C34.9988 17.4522 34.9191 17.8835 34.7608 18.2939C34.6026 18.7042 34.3477 19.0784 33.9962 19.4165L19.9875 33.0249C19.6675 33.3358 19.2893 33.5761 18.8529 33.7456C18.4165 33.9152 17.9655 34 17.5 34ZM17.5 30.6085L31.5087 17L17.5 3.39153L3.49127 17L17.5 30.6085ZM15.7544 18.6958H19.2456V8.52121H15.7544V18.6958ZM17.5 23.783C17.9946 23.783 18.4095 23.6203 18.7446 23.2947C19.0798 22.9691 19.2468 22.5666 19.2456 22.0873C19.2445 21.608 19.0769 21.2055 18.7429 20.8799C18.4089 20.5543 17.9946 20.3915 17.5 20.3915C17.0054 20.3915 16.5911 20.5543 16.2571 20.8799C15.9231 21.2055 15.7555 21.608 15.7544 22.0873C15.7532 22.5666 15.9208 22.9696 16.2571 23.2964C16.5934 23.6231 17.0077 23.7853 17.5 23.783Z" fill="#228B22"/>
</svg>
