<svg width="150" height="48" viewBox="0 0 150 48" fill="none" xmlns="http://www.w3.org/2000/svg">
<mask id="mask0_101_3846" style="mask-type:luminance" maskUnits="userSpaceOnUse" x="1" y="7" width="98" height="34">
<path d="M98.9136 7.15234H1.43402V40.8459H98.9136V7.15234Z" fill="white"/>
</mask>
<g mask="url(#mask0_101_3846)">
<path d="M18.5167 7.24805H15.4769C15.3274 7.24805 15.2059 7.37106 15.2059 7.5228V40.5703C15.2059 40.7221 15.3274 40.8452 15.4769 40.8452H18.5167C18.6663 40.8452 18.7878 40.7221 18.7878 40.5703V7.5228C18.7878 7.37106 18.6663 7.24805 18.5167 7.24805Z" fill="#228B22"/>
<path d="M98.9042 38.4724V7.7602C98.9042 7.46742 98.6698 7.22979 98.3811 7.22979H86.1712C85.8823 7.22979 85.648 7.46742 85.648 7.7602V24.653C85.648 24.7006 85.591 24.7239 85.5586 24.69L78.0252 16.9104C77.8238 16.702 77.4938 16.6983 77.2876 16.9014L69.3515 24.7181C69.3186 24.7511 69.2626 24.7272 69.2626 24.6799V18.185H69.2615V16.9354H69.2626V7.68277C69.2626 7.38997 69.0283 7.15234 68.7394 7.15234H56.4093C56.1205 7.15234 55.8861 7.38997 55.8861 7.68277V30.8237H55.0052C55.0905 30.2445 55.135 29.6547 55.135 29.0585C55.135 27.2547 54.7374 25.5128 53.9852 23.9353C53.9783 23.921 53.9783 23.9051 53.9852 23.8907C55.2872 21.0412 55.4453 17.6763 54.2085 14.3825L54.207 14.3787C52.1527 9.79965 47.9908 7.15234 43.4283 7.15234H1.95712C1.66838 7.15234 1.43402 7.38997 1.43402 7.68277V9.94128C1.43402 10.241 1.67362 10.4839 1.96916 10.4839H40.8144C40.8383 10.4839 40.8619 10.4881 40.8838 10.4945H43.9084C44.7659 10.4945 45.6164 10.6621 46.4063 11.0005C49.7925 12.4507 51.7577 15.5425 51.7577 18.9408C51.7577 19.4692 51.7091 19.9896 51.6161 20.4977C51.6088 20.539 51.5584 20.555 51.5287 20.5257C49.3573 18.4248 46.5209 17.2706 43.5088 17.2706H25.6964C25.6676 17.2706 25.644 17.2467 25.644 17.2175V14.1156H22.044V18.7526L22.0435 20.6122H22.044V37.4519C22.044 37.4519 22.044 37.454 22.0435 37.4546V40.3162C22.0435 40.6089 22.2779 40.8464 22.5666 40.8464H44.3768C44.487 40.8464 44.5979 40.8438 44.7083 40.8396H56.0442C56.0603 40.8438 56.0777 40.8464 56.0955 40.8464H63.8338V40.8275H98.3904C98.6791 40.8275 98.9136 40.5897 98.9136 40.297V38.4825L98.9042 38.4728V38.4724ZM75.7707 37.4327C75.7707 37.462 75.7471 37.4859 75.7183 37.4859H61.6173L61.619 37.4885L55.8861 37.506V37.5069H42.7656V37.5048H25.697C25.6682 37.5048 25.6446 37.4809 25.6446 37.4519V20.6646C25.6446 20.6356 25.6682 20.6117 25.697 20.6117H44.2463C44.8344 20.6117 45.4188 20.7124 45.9722 20.9135C49.6737 22.2613 51.8395 25.4904 51.8395 29.0574C51.8395 30.5898 51.4392 32.0596 50.6891 33.3448C50.4945 33.6779 50.7325 34.0991 51.1144 34.0991H58.9631C59.2518 34.0991 59.4863 33.8614 59.4863 33.5686V29.4319L59.4925 27.3861H59.4863V10.547C59.4863 10.5178 59.5097 10.494 59.5385 10.494H65.9143C65.9429 10.494 65.9665 10.5178 65.9665 10.547V22.8899H65.965V28.0312C65.965 28.0338 65.9639 28.0365 65.9633 28.0392V31.4591C65.9633 31.9281 66.5194 32.1662 66.8511 31.8395L75.6818 23.1418C75.7147 23.1088 75.7707 23.1327 75.7707 23.18V37.4327ZM93.2054 37.4859H79.3121C79.2833 37.4859 79.2597 37.462 79.2597 37.4327V23.0855C79.2597 23.0379 79.3168 23.0145 79.3492 23.0485L93.2425 37.3956C93.275 37.4289 93.2514 37.4859 93.2054 37.4859ZM95.5563 34.8851C95.5563 34.9329 95.4992 34.9563 95.4668 34.9223L89.0111 28.2554C89.0016 28.2454 88.996 28.2321 88.996 28.2184V10.6775C88.996 10.6483 89.0194 10.6245 89.0482 10.6245H95.5039C95.5327 10.6245 95.5563 10.6483 95.5563 10.6775V34.8851Z" fill="#228B22"/>
</g>
<path d="M108.766 5.9707C108.857 5.9707 108.936 6.00525 109.005 6.07435C109.073 6.13576 109.107 6.21638 109.107 6.31619V7.36416C109.107 7.46398 109.073 7.54842 109.005 7.61752C108.936 7.68662 108.857 7.72117 108.766 7.72117H106.29V14.2624C106.29 14.3545 106.256 14.4352 106.188 14.5042C106.12 14.5733 106.04 14.6079 105.949 14.6079H104.905C104.814 14.6079 104.734 14.5733 104.666 14.5042C104.598 14.4352 104.564 14.3545 104.564 14.2624V7.72117H102.088C101.997 7.72117 101.918 7.68662 101.849 7.61752C101.781 7.54842 101.747 7.46398 101.747 7.36416V6.31619C101.747 6.21638 101.781 6.13576 101.849 6.07435C101.918 6.00525 101.997 5.9707 102.088 5.9707H108.766ZM110.402 14.6079C110.311 14.6079 110.232 14.5733 110.163 14.5042C110.095 14.4352 110.061 14.3545 110.061 14.2624V6.31619C110.061 6.22406 110.095 6.14345 110.163 6.07435C110.232 6.00525 110.311 5.9707 110.402 5.9707H111.447C111.545 5.9707 111.625 6.00525 111.685 6.07435C111.754 6.14345 111.788 6.22406 111.788 6.31619V9.28739H115.115V6.31619C115.115 6.22406 115.149 6.14345 115.218 6.07435C115.286 6.00525 115.369 5.9707 115.467 5.9707H116.501C116.6 5.9707 116.683 6.00525 116.751 6.07435C116.819 6.14345 116.853 6.22406 116.853 6.31619V14.2624C116.853 14.3545 116.819 14.4352 116.751 14.5042C116.683 14.5733 116.6 14.6079 116.501 14.6079H115.467C115.369 14.6079 115.286 14.5733 115.218 14.5042C115.149 14.4352 115.115 14.3545 115.115 14.2624V11.0379H111.788V14.2624C111.788 14.3545 111.754 14.4352 111.685 14.5042C111.625 14.5733 111.545 14.6079 111.447 14.6079H110.402ZM118.332 14.6079C118.241 14.6079 118.162 14.5733 118.094 14.5042C118.026 14.4352 117.992 14.3545 117.992 14.2624V6.31619C117.992 6.22406 118.026 6.14345 118.094 6.07435C118.162 6.00525 118.241 5.9707 118.332 5.9707H123.761C123.86 5.9707 123.939 6.00525 124 6.07435C124.068 6.13576 124.102 6.21638 124.102 6.31619V7.36416C124.102 7.46398 124.068 7.54842 124 7.61752C123.939 7.68662 123.86 7.72117 123.761 7.72117H119.718V9.28739H123.068C123.167 9.28739 123.25 9.32194 123.318 9.39104C123.387 9.45245 123.421 9.53306 123.421 9.63288V10.6809C123.421 10.7807 123.387 10.8651 123.318 10.9342C123.25 11.0033 123.167 11.0379 123.068 11.0379H119.718V12.8574H123.761C123.86 12.8574 123.939 12.892 124 12.9611C124.068 13.0225 124.102 13.1031 124.102 13.2029V14.2624C124.102 14.3545 124.068 14.4352 124 14.5042C123.939 14.5733 123.86 14.6079 123.761 14.6079H118.332ZM102.372 27.6988C102.281 27.6988 102.201 27.6643 102.133 27.5952C102.065 27.526 102.031 27.4455 102.031 27.3533V19.4071C102.031 19.3149 102.065 19.2343 102.133 19.1652C102.201 19.0962 102.281 19.0617 102.372 19.0617H106.233C106.794 19.0617 107.256 19.1576 107.619 19.3495C107.983 19.5415 108.259 19.7834 108.448 20.075C108.645 20.3592 108.758 20.6701 108.789 21.0078C108.827 21.338 108.793 21.6489 108.687 21.9407C108.588 22.2247 108.425 22.4628 108.198 22.6546C107.979 22.8466 107.706 22.9426 107.38 22.9426H107.335V23.0346C107.782 23.0346 108.153 23.1498 108.448 23.3801C108.743 23.6105 108.955 23.8985 109.084 24.2439C109.22 24.5894 109.27 24.9657 109.232 25.3726C109.194 25.7718 109.069 26.144 108.857 26.4895C108.645 26.835 108.338 27.123 107.937 27.3533C107.543 27.5836 107.051 27.6988 106.461 27.6988H102.372ZM106.108 22.263C106.381 22.263 106.582 22.1902 106.71 22.0443C106.847 21.8908 106.911 21.722 106.903 21.5375C106.903 21.3533 106.835 21.1883 106.699 21.0424C106.57 20.8889 106.373 20.812 106.108 20.812H103.757V22.2746C103.962 22.2746 104.197 22.2746 104.461 22.2746C104.734 22.267 104.992 22.263 105.234 22.263C105.476 22.263 105.681 22.263 105.847 22.263C106.014 22.263 106.101 22.263 106.108 22.263ZM106.29 25.9484C106.525 25.9484 106.718 25.8985 106.869 25.7985C107.028 25.6987 107.146 25.5722 107.222 25.4185C107.305 25.265 107.346 25.1 107.346 24.9233C107.346 24.7467 107.305 24.5817 107.222 24.4282C107.146 24.2747 107.028 24.1479 106.869 24.0481C106.718 23.9484 106.525 23.8985 106.29 23.8985H103.757V25.9484H106.29ZM110.724 27.6988C110.633 27.6988 110.553 27.6643 110.485 27.5952C110.417 27.526 110.383 27.4455 110.383 27.3533V19.4071C110.383 19.3149 110.417 19.2343 110.485 19.1652C110.553 19.0962 110.633 19.0617 110.724 19.0617H111.769C111.867 19.0617 111.946 19.0962 112.007 19.1652C112.075 19.2343 112.109 19.3149 112.109 19.4071V22.3782H115.437V19.4071C115.437 19.3149 115.471 19.2343 115.539 19.1652C115.607 19.0962 115.691 19.0617 115.789 19.0617H116.823C116.921 19.0617 117.004 19.0962 117.073 19.1652C117.141 19.2343 117.175 19.3149 117.175 19.4071V27.3533C117.175 27.4455 117.141 27.526 117.073 27.5952C117.004 27.6643 116.921 27.6988 116.823 27.6988H115.789C115.691 27.6988 115.607 27.6643 115.539 27.5952C115.471 27.526 115.437 27.4455 115.437 27.3533V24.1288H112.109V27.3533C112.109 27.4455 112.075 27.526 112.007 27.5952C111.946 27.6643 111.867 27.6988 111.769 27.6988H110.724ZM118.313 27.6988C118.192 27.6988 118.098 27.6489 118.029 27.5491C117.961 27.4415 117.95 27.3304 117.995 27.2152L120.994 19.2804C121.016 19.2113 121.058 19.1577 121.119 19.1191C121.179 19.0732 121.244 19.0501 121.312 19.0501H122.686C122.845 19.0501 122.955 19.1269 123.015 19.2804L126.002 27.2152C126.048 27.3304 126.036 27.4415 125.968 27.5491C125.9 27.6489 125.806 27.6988 125.684 27.6988H124.514C124.356 27.6988 124.246 27.622 124.185 27.4685L123.538 25.6949H120.46L119.813 27.4685C119.79 27.5375 119.748 27.5952 119.688 27.6411C119.627 27.6796 119.563 27.6988 119.494 27.6988H118.313ZM121.107 23.9446H122.902L122.005 21.503L121.107 23.9446ZM128.558 24.3707V27.3533C128.558 27.4455 128.524 27.526 128.456 27.5952C128.395 27.6643 128.316 27.6988 128.217 27.6988H127.172C127.081 27.6988 127.002 27.6643 126.934 27.5952C126.865 27.526 126.831 27.4455 126.831 27.3533V19.4071C126.831 19.3149 126.865 19.2343 126.934 19.1652C127.002 19.0962 127.081 19.0617 127.172 19.0617H130.318C130.818 19.0617 131.242 19.1383 131.59 19.292C131.939 19.4455 132.223 19.6451 132.442 19.8907C132.669 20.1364 132.836 20.4204 132.942 20.743C133.048 21.0577 133.105 21.3803 133.112 21.7104C133.112 21.9868 133.078 22.2592 133.01 22.5281C132.95 22.7967 132.843 23.0462 132.692 23.2765C132.541 23.5069 132.344 23.7103 132.101 23.8869C131.867 24.0557 131.579 24.1825 131.238 24.2669L133.294 27.146C133.377 27.2611 133.385 27.3841 133.317 27.5146C133.256 27.6373 133.154 27.6988 133.01 27.6988H131.727C131.59 27.6988 131.477 27.6411 131.386 27.526L129.08 24.3707H128.558ZM131.261 21.7104C131.261 21.5952 131.242 21.4801 131.204 21.3649C131.166 21.2497 131.106 21.1499 131.023 21.0655C130.947 20.9733 130.841 20.9004 130.704 20.8466C130.576 20.7929 130.413 20.7659 130.216 20.7659H128.558V22.6546C128.777 22.6546 128.986 22.6546 129.182 22.6546C129.379 22.6546 129.55 22.6586 129.694 22.6662C129.845 22.6662 129.966 22.6662 130.057 22.6662C130.148 22.6662 130.197 22.6662 130.205 22.6662C130.402 22.6662 130.564 22.6393 130.693 22.5856C130.829 22.5319 130.939 22.4588 131.023 22.3668C131.106 22.2746 131.166 22.171 131.204 22.0559C131.242 21.9407 131.261 21.8255 131.261 21.7104ZM134.407 27.6988C134.286 27.6988 134.191 27.6489 134.123 27.5491C134.055 27.4415 134.044 27.3304 134.089 27.2152L137.087 19.2804C137.11 19.2113 137.152 19.1577 137.212 19.1191C137.273 19.0732 137.337 19.0501 137.405 19.0501H138.78C138.939 19.0501 139.048 19.1269 139.109 19.2804L142.096 27.2152C142.142 27.3304 142.13 27.4415 142.062 27.5491C141.994 27.6489 141.899 27.6988 141.778 27.6988H140.608C140.449 27.6988 140.339 27.622 140.279 27.4685L139.631 25.6949H136.553L135.906 27.4685C135.883 27.5375 135.842 27.5952 135.781 27.6411C135.721 27.6796 135.656 27.6988 135.588 27.6988H134.407ZM137.201 23.9446H138.995L138.098 21.503L137.201 23.9446ZM148.407 19.0617C148.498 19.0617 148.577 19.0962 148.645 19.1652C148.714 19.2267 148.748 19.3073 148.748 19.4071V20.4552C148.748 20.555 148.714 20.6394 148.645 20.7084C148.577 20.7775 148.498 20.812 148.407 20.812H145.931V27.3533C145.931 27.4455 145.897 27.526 145.829 27.5952C145.761 27.6643 145.681 27.6988 145.59 27.6988H144.545C144.454 27.6988 144.375 27.6643 144.307 27.5952C144.239 27.526 144.205 27.4455 144.205 27.3533V20.812H141.729C141.638 20.812 141.558 20.7775 141.49 20.7084C141.422 20.6394 141.388 20.555 141.388 20.4552V19.4071C141.388 19.3073 141.422 19.2267 141.49 19.1652C141.558 19.0962 141.638 19.0617 141.729 19.0617H148.407ZM112.684 32.1641C112.783 32.1641 112.866 32.1987 112.934 32.2677C113.002 32.3368 113.037 32.4212 113.037 32.521V37.2426C113.037 37.8877 112.95 38.4442 112.775 38.9126C112.609 39.3732 112.378 39.757 112.082 40.0642C111.795 40.3636 111.454 40.5863 111.06 40.732C110.667 40.8703 110.246 40.9394 109.8 40.9394C109.323 40.9394 108.887 40.8703 108.494 40.732C108.1 40.5863 107.763 40.3674 107.483 40.0758C107.187 40.3674 106.843 40.5863 106.449 40.732C106.063 40.8703 105.647 40.9394 105.2 40.9394C104.723 40.9394 104.284 40.8703 103.882 40.732C103.489 40.5863 103.148 40.3636 102.86 40.0642C102.58 39.757 102.36 39.3732 102.201 38.9126C102.05 38.4442 101.974 37.8877 101.974 37.2426V32.521C101.974 32.4212 102.008 32.3368 102.076 32.2677C102.145 32.1987 102.224 32.1641 102.315 32.1641H103.496C103.595 32.1641 103.674 32.1987 103.735 32.2677C103.803 32.3368 103.837 32.4212 103.837 32.521V37.2081C103.837 37.9222 103.962 38.4328 104.212 38.7398C104.469 39.0469 104.798 39.2004 105.2 39.2004C105.616 39.2004 105.946 39.0469 106.188 38.7398C106.438 38.4328 106.563 37.9222 106.563 37.2081V32.521C106.563 32.4212 106.597 32.3368 106.665 32.2677C106.733 32.1987 106.816 32.1641 106.915 32.1641H108.096C108.195 32.1641 108.274 32.1987 108.334 32.2677C108.403 32.3368 108.437 32.4212 108.437 32.521V37.2081C108.437 37.9222 108.562 38.4328 108.812 38.7398C109.069 39.0469 109.398 39.2004 109.8 39.2004C110.216 39.2004 110.546 39.0469 110.788 38.7398C111.038 38.4328 111.163 37.9222 111.163 37.2081V32.521C111.163 32.4212 111.197 32.3368 111.265 32.2677C111.333 32.1987 111.416 32.1641 111.515 32.1641H112.684ZM118.8 32.0029C119.482 32.0029 120.102 32.1102 120.663 32.3252C121.231 32.5402 121.715 32.8435 122.116 33.2351C122.525 33.6189 122.843 34.0796 123.071 34.6171C123.298 35.1544 123.411 35.7495 123.411 36.402V36.5632C123.411 37.2159 123.298 37.8109 123.071 38.3484C122.843 38.8857 122.525 39.3501 122.116 39.7417C121.715 40.1257 121.231 40.4251 120.663 40.64C120.102 40.855 119.482 40.9626 118.8 40.9626C118.111 40.9626 117.482 40.855 116.915 40.64C116.354 40.4251 115.87 40.1257 115.461 39.7417C115.06 39.3501 114.745 38.8857 114.518 38.3484C114.299 37.8109 114.189 37.2159 114.189 36.5632V36.402C114.189 35.7495 114.299 35.1544 114.518 34.6171C114.745 34.0796 115.063 33.6189 115.472 33.2351C115.881 32.8435 116.366 32.5402 116.926 32.3252C117.494 32.1102 118.119 32.0029 118.8 32.0029ZM121.492 36.402C121.492 36.0719 121.435 35.7495 121.321 35.4346C121.208 35.1122 121.038 34.828 120.81 34.5825C120.591 34.3291 120.311 34.1257 119.97 33.972C119.637 33.8185 119.247 33.7417 118.8 33.7417C118.353 33.7417 117.96 33.8185 117.619 33.972C117.286 34.1257 117.006 34.3291 116.778 34.5825C116.551 34.828 116.381 35.1122 116.267 35.4346C116.154 35.7495 116.097 36.0719 116.097 36.402V36.5632C116.097 36.8934 116.154 37.2197 116.267 37.5422C116.381 37.857 116.551 38.141 116.778 38.3943C117.006 38.64 117.286 38.8396 117.619 38.9932C117.96 39.1467 118.353 39.2235 118.8 39.2235C119.247 39.2235 119.637 39.1467 119.97 38.9932C120.311 38.8396 120.591 38.64 120.81 38.3943C121.038 38.141 121.208 37.857 121.321 37.5422C121.435 37.2197 121.492 36.8934 121.492 36.5632V36.402ZM126.328 37.4616V40.4442C126.328 40.5364 126.294 40.6169 126.226 40.6861C126.166 40.7552 126.086 40.7897 125.988 40.7897H124.943C124.852 40.7897 124.772 40.7552 124.704 40.6861C124.636 40.6169 124.602 40.5364 124.602 40.4442V32.498C124.602 32.4058 124.636 32.3252 124.704 32.2561C124.772 32.1871 124.852 32.1526 124.943 32.1526H128.089C128.589 32.1526 129.013 32.2292 129.361 32.3829C129.709 32.5364 129.993 32.736 130.213 32.9817C130.44 33.2273 130.607 33.5114 130.712 33.8339C130.819 34.1486 130.875 34.4712 130.883 34.8013C130.883 35.0777 130.849 35.3502 130.781 35.619C130.72 35.8876 130.614 36.1371 130.463 36.3675C130.311 36.5978 130.114 36.8012 129.872 36.9778C129.637 37.1466 129.35 37.2734 129.009 37.3578L131.065 40.2369C131.148 40.352 131.156 40.475 131.087 40.6055C131.027 40.7282 130.924 40.7897 130.781 40.7897H129.497C129.361 40.7897 129.247 40.732 129.156 40.6169L126.851 37.4616H126.328ZM129.032 34.8013C129.032 34.6861 129.013 34.571 128.975 34.4558C128.937 34.3406 128.876 34.2408 128.793 34.1564C128.717 34.0642 128.611 33.9914 128.475 33.9375C128.346 33.8838 128.184 33.8568 127.987 33.8568H126.328V35.7455C126.548 35.7455 126.756 35.7455 126.953 35.7455C127.15 35.7455 127.32 35.7495 127.464 35.7571C127.616 35.7571 127.737 35.7571 127.828 35.7571C127.919 35.7571 127.968 35.7571 127.975 35.7571C128.172 35.7571 128.335 35.7302 128.464 35.6765C128.6 35.6228 128.71 35.5497 128.793 35.4577C128.876 35.3655 128.937 35.2619 128.975 35.1468C129.013 35.0316 129.032 34.9165 129.032 34.8013ZM132.518 40.7897C132.428 40.7897 132.348 40.7552 132.28 40.6861C132.212 40.6169 132.178 40.5364 132.178 40.4442V32.498C132.178 32.4058 132.212 32.3252 132.28 32.2561C132.348 32.1871 132.428 32.1526 132.518 32.1526H133.563C133.662 32.1526 133.741 32.1871 133.802 32.2561C133.87 32.3252 133.904 32.4058 133.904 32.498V35.1697L136.482 32.3138C136.573 32.2216 136.675 32.1755 136.789 32.1755L138.106 32.1641C138.182 32.1641 138.246 32.1833 138.299 32.2216C138.352 32.2599 138.39 32.3098 138.413 32.3713C138.443 32.425 138.455 32.4865 138.447 32.5555C138.439 32.6248 138.409 32.6899 138.356 32.7513L135.744 35.642L139.015 40.2369C139.053 40.2907 139.072 40.352 139.072 40.4213C139.079 40.4826 139.068 40.544 139.038 40.6055C139.007 40.6592 138.966 40.7053 138.913 40.7436C138.86 40.7743 138.799 40.7897 138.731 40.7897H137.448C137.311 40.7897 137.198 40.732 137.107 40.6169L134.483 37.0355L133.904 37.6803V40.4442C133.904 40.5364 133.87 40.6169 133.802 40.6861C133.741 40.7552 133.662 40.7897 133.563 40.7897H132.518ZM143.306 40.951C142.496 40.951 141.777 40.7705 141.148 40.4097C140.527 40.0411 140.046 39.5229 139.706 38.8549C139.645 38.7398 139.634 38.6246 139.672 38.5094C139.717 38.3867 139.8 38.2985 139.921 38.2446L140.819 37.8416C140.879 37.8185 140.936 37.8071 140.989 37.8071C141.163 37.8071 141.292 37.8877 141.375 38.0488C141.489 38.2715 141.618 38.4595 141.762 38.6132C141.913 38.7667 142.076 38.8894 142.25 38.9817C142.424 39.0739 142.606 39.1429 142.795 39.189C142.984 39.2273 143.174 39.2465 143.363 39.2465C143.59 39.2465 143.798 39.2235 143.988 39.1774C144.184 39.1313 144.351 39.0699 144.487 38.9932C144.631 38.9088 144.741 38.8166 144.817 38.7168C144.9 38.6092 144.942 38.498 144.942 38.3829C144.942 38.1065 144.775 37.8646 144.442 37.6574C144.109 37.45 143.564 37.2426 142.806 37.0355C142.473 36.9433 142.129 36.8435 141.773 36.7361C141.417 36.6285 141.091 36.4826 140.796 36.2984C140.508 36.1142 140.27 35.8799 140.081 35.5958C139.891 35.3118 139.797 34.9432 139.797 34.4903C139.797 34.0604 139.891 33.6918 140.081 33.3848C140.27 33.0701 140.52 32.8128 140.83 32.6132C141.141 32.4058 141.496 32.2561 141.898 32.1641C142.299 32.0641 142.716 32.0143 143.147 32.0143C143.73 32.0143 144.302 32.1027 144.862 32.2793C145.422 32.4482 145.892 32.6938 146.271 33.0162C146.331 33.0701 146.369 33.1391 146.384 33.2235C146.399 33.308 146.384 33.3886 146.339 33.4654L145.759 34.4674C145.684 34.5825 145.581 34.64 145.453 34.64C145.377 34.64 145.301 34.6093 145.225 34.5478C144.885 34.2562 144.533 34.0526 144.169 33.9375C143.806 33.8223 143.465 33.7648 143.147 33.7648C142.935 33.7648 142.738 33.7878 142.557 33.8339C142.375 33.8722 142.216 33.9261 142.079 33.9952C141.951 34.0566 141.849 34.1295 141.773 34.2139C141.697 34.2983 141.659 34.3867 141.659 34.4788C141.659 34.6093 141.727 34.7207 141.864 34.8129C142 34.9049 142.163 34.9855 142.352 35.0546C142.549 35.1236 142.75 35.1813 142.954 35.2274C143.158 35.2657 143.325 35.3041 143.454 35.3426C143.81 35.4424 144.181 35.5575 144.567 35.6881C144.961 35.8186 145.32 35.9912 145.646 36.2062C145.971 36.4211 146.24 36.6938 146.452 37.0239C146.672 37.3464 146.782 37.7532 146.782 38.2446C146.782 38.6362 146.694 38.997 146.52 39.3271C146.346 39.6573 146.104 39.9453 145.793 40.1909C145.491 40.4289 145.123 40.6169 144.692 40.7552C144.268 40.8857 143.806 40.951 143.306 40.951Z" fill="black"/>
</svg>
