<svg width="30" height="29" viewBox="0 0 30 29" fill="none" xmlns="http://www.w3.org/2000/svg">
<path d="M27.1714 22.0722C27.1714 22.4922 27.0748 22.9238 26.8693 23.3438C26.6639 23.7638 26.3981 24.1605 26.0477 24.5338C25.4556 25.1638 24.8031 25.6188 24.066 25.9105C23.341 26.2022 22.5556 26.3538 21.7098 26.3538C20.4773 26.3538 19.1602 26.0738 17.7706 25.5022C16.381 24.9305 14.9914 24.1605 13.6139 23.1922C12.2243 22.2122 10.9073 21.1272 9.6506 19.9255C8.40601 18.7122 7.28227 17.4405 6.27935 16.1105C5.28852 14.7805 4.49102 13.4505 3.91102 12.1322C3.33102 10.8022 3.04102 9.53051 3.04102 8.31717C3.04102 7.52384 3.18602 6.76551 3.47602 6.06551C3.76602 5.35384 4.22518 4.70051 4.8656 4.11717C5.63893 3.38217 6.48477 3.02051 7.37893 3.02051C7.71727 3.02051 8.0556 3.09051 8.35768 3.23051C8.67185 3.37051 8.94977 3.58051 9.16727 3.88384L11.9706 7.69884C12.1881 7.99051 12.3452 8.25884 12.4539 8.51551C12.5627 8.76051 12.6231 9.00551 12.6231 9.22718C12.6231 9.50717 12.5385 9.78717 12.3693 10.0555C12.2123 10.3238 11.9827 10.6038 11.6927 10.8838L10.7743 11.8055C10.6414 11.9338 10.581 12.0855 10.581 12.2722C10.581 12.3655 10.5931 12.4472 10.6173 12.5405C10.6535 12.6338 10.6898 12.7038 10.7139 12.7738C10.9314 13.1588 11.306 13.6605 11.8377 14.2672C12.3814 14.8738 12.9614 15.4922 13.5898 16.1105C14.2423 16.7288 14.8706 17.3005 15.511 17.8255C16.1393 18.3388 16.6589 18.6888 17.0698 18.8988C17.1302 18.9222 17.2027 18.9572 17.2873 18.9922C17.3839 19.0272 17.4806 19.0388 17.5893 19.0388C17.7948 19.0388 17.9518 18.9688 18.0848 18.8405L19.0031 17.9655C19.3052 17.6738 19.5952 17.4522 19.8731 17.3122C20.151 17.1488 20.4289 17.0672 20.731 17.0672C20.9606 17.0672 21.2023 17.1138 21.4681 17.2188C21.7339 17.3238 22.0118 17.4755 22.3139 17.6738L26.3135 20.4155C26.6277 20.6255 26.8452 20.8705 26.9781 21.1622C27.0989 21.4538 27.1714 21.7455 27.1714 22.0722Z" fill="#28A745"/>
</svg>
