<svg width="34" height="32" viewBox="0 0 34 32" fill="none" xmlns="http://www.w3.org/2000/svg">
<path d="M3.6256 16.0003C3.6256 8.63633 9.78147 2.66699 17.3756 2.66699C24.9697 2.66699 31.1256 8.63633 31.1256 16.0003C31.1256 23.3643 24.9697 29.3337 17.3756 29.3337C15.0037 29.3337 12.7707 28.751 10.8217 27.7243L5.15872 29.2857C4.25191 29.5357 3.41453 28.723 3.67235 27.8443L5.28247 22.3523C4.1912 20.4026 3.62154 18.2187 3.6256 16.0003ZM11.8756 13.5003C11.8756 13.9603 12.2606 14.3337 12.735 14.3337H22.0162C22.1291 14.3337 22.2408 14.3121 22.3451 14.2702C22.4494 14.2283 22.5441 14.167 22.6239 14.0896C22.7037 14.0122 22.767 13.9203 22.8102 13.8192C22.8534 13.7181 22.8756 13.6098 22.8756 13.5003C22.8756 13.3909 22.8534 13.2825 22.8102 13.1814C22.767 13.0803 22.7037 12.9885 22.6239 12.9111C22.5441 12.8337 22.4494 12.7723 22.3451 12.7304C22.2408 12.6885 22.1291 12.667 22.0162 12.667H12.735C12.2606 12.667 11.8756 13.0403 11.8756 13.5003ZM12.735 17.667C12.5071 17.667 12.2885 17.7548 12.1273 17.9111C11.9661 18.0673 11.8756 18.2793 11.8756 18.5003C11.8756 18.7213 11.9661 18.9333 12.1273 19.0896C12.2885 19.2459 12.5071 19.3337 12.735 19.3337H19.2662C19.4941 19.3337 19.7127 19.2459 19.8739 19.0896C20.0351 18.9333 20.1256 18.7213 20.1256 18.5003C20.1256 18.2793 20.0351 18.0673 19.8739 17.9111C19.7127 17.7548 19.4941 17.667 19.2662 17.667H12.735Z" fill="#228B22"/>
</svg>
