<svg width="36" height="40" viewBox="0 0 36 40" fill="none" xmlns="http://www.w3.org/2000/svg">
<path d="M35.5 36.4941V39.5H0.5V36.4941H35.5ZM24.2842 0.5C24.6814 0.500048 25.0625 0.658076 25.3438 0.939453L31.002 6.60547C31.2832 6.88725 31.4414 7.27019 31.4414 7.66895C31.4414 8.06764 31.2832 8.4497 31.002 8.73145L8.27832 31.4883H0.5V23.6953L23.2236 0.939453C23.505 0.657841 23.8867 0.5 24.2842 0.5ZM23.9307 4.4834L3.64648 24.7969L3.5 24.9434V28.4824H7.03516L7.18164 28.3359L27.4658 8.02246L27.8184 7.66895L27.4658 7.31543L24.6377 4.4834L24.2842 4.12891L23.9307 4.4834Z" stroke="white"/>
</svg>
