<svg width="24" height="33" viewBox="0 0 24 33" fill="none" xmlns="http://www.w3.org/2000/svg">
<path d="M9.16403 30.3419C9.94455 31.0537 10.7586 31.7043 11.5919 32.3392C12.427 31.7127 13.2371 31.0463 14.0197 30.3419C15.3245 29.1578 16.5524 27.8739 17.6944 26.4997C20.327 23.318 23.1838 18.7056 23.1838 13.528C23.1838 11.8455 22.8839 10.1795 22.3014 8.62501C21.7188 7.07056 20.865 5.65815 19.7886 4.46843C18.7122 3.27871 17.4343 2.33497 16.0279 1.69109C14.6215 1.04722 13.1141 0.71582 11.5919 0.71582C10.0696 0.71582 8.56225 1.04722 7.15586 1.69109C5.74947 2.33497 4.47159 3.27871 3.39518 4.46843C2.31878 5.65815 1.46493 7.07056 0.882379 8.62501C0.299833 10.1795 -2.26836e-08 11.8455 0 13.528C0 18.7056 2.85675 23.3166 5.4894 26.4997C6.63135 27.8744 7.85925 29.1574 9.16403 30.3419ZM11.5919 18.1547C10.4817 18.1547 9.41698 17.6672 8.63196 16.7996C7.84694 15.9319 7.40592 14.7551 7.40592 13.528C7.40592 12.301 7.84694 11.1242 8.63196 10.2565C9.41698 9.38885 10.4817 8.9014 11.5919 8.9014C12.7021 8.9014 13.7668 9.38885 14.5518 10.2565C15.3368 11.1242 15.7778 12.301 15.7778 13.528C15.7778 14.7551 15.3368 15.9319 14.5518 16.7996C13.7668 17.6672 12.7021 18.1547 11.5919 18.1547Z" fill="#228B22"/>
</svg>
