<svg width="66" height="66" viewBox="0 0 66 66" fill="none" xmlns="http://www.w3.org/2000/svg">
<g clip-path="url(#clip0_101_3978)">
<path d="M10.1538 0V48.2308C10.1538 49.6396 9.02423 50.7692 7.61538 50.7692C6.20654 50.7692 5.07692 49.6396 5.07692 48.2308V17.7692H7.61538V12.6923H0V48.2308C0 52.4065 3.43962 55.8462 7.61538 55.8462H33C32.4923 54.3231 32.2055 52.5462 32.2055 50.7692H14.7586C15.048 49.9671 15.2333 49.1268 15.2333 48.2308V5.07692H55.8487V33C57.6256 33.5077 59.4025 34.2692 60.9256 35.5385V0H10.1538ZM20.3077 10.1538V20.3077H50.7692V10.1538H20.3077ZM20.3077 25.3846V30.4615H33V25.3846H20.3077ZM38.0769 25.3846V30.4615H50.7692V25.3846H38.0769ZM20.3077 33V38.0769H33V33H20.3077ZM50.7692 35.5385C42.3314 35.5385 35.5385 42.3314 35.5385 50.7692C35.5385 59.2071 42.3314 66 50.7692 66V60.9231C44.9917 60.9231 40.6154 56.5468 40.6154 50.7692C40.6154 44.9917 44.9917 40.6154 50.7692 40.6154C56.5468 40.6154 60.9231 44.9917 60.9231 50.7692C60.9231 52.9726 60.2961 55.0085 59.1766 56.6407L55.8462 53.3077L54.5769 64.7308L66 63.4615L62.8269 60.2885C64.9364 57.6383 66 54.2647 66 50.7692C66 42.3314 59.2071 35.5385 50.7692 35.5385ZM20.3077 40.6154V45.6923H33V40.6154H20.3077Z" fill="black"/>
</g>
<defs>
<clipPath id="clip0_101_3978">
<rect width="66" height="66" fill="white"/>
</clipPath>
</defs>
</svg>
