<svg width="435" height="273" viewBox="0 0 435 273" fill="none" xmlns="http://www.w3.org/2000/svg">
<path d="M309.063 217.627C276.619 214.476 261.516 199.136 260.863 198.482L266.457 196.282C266.55 196.401 280.628 210.67 309.995 213.465L309.063 217.627Z" fill="#333333"/>
<path d="M331.432 220.001L307.472 212.926L294.047 227.79L310.921 262.987L345.323 251.75L331.432 220.001ZM314.651 227.671C311.667 228.265 308.497 227.195 307.565 225.233C306.633 223.271 308.311 221.19 311.201 220.536C314.184 219.941 317.354 221.012 318.286 222.974C319.219 224.936 317.541 227.076 314.651 227.671Z" fill="#999999"/>
<path d="M333.203 216.493L307.565 212.926L299.268 229.335L326.957 261.382L360.892 248.539L333.203 216.493ZM319.125 226.363C316.422 227.373 312.972 226.779 311.481 224.995C309.896 223.212 310.921 220.952 313.532 219.941C316.235 218.931 319.685 219.525 321.176 221.309C322.761 223.093 321.829 225.352 319.125 226.363Z" fill="#F75B4C"/>
<path d="M307.565 212.926L299.268 229.335L326.957 261.382L333.203 216.493L307.565 212.926ZM319.125 226.363C316.422 227.373 312.972 226.779 311.481 224.995C309.896 223.212 310.921 220.952 313.532 219.941C316.235 218.931 319.685 219.525 321.176 221.309C322.761 223.093 321.829 225.352 319.125 226.363Z" fill="#DB342C"/>
<path d="M338.702 249.494L336.931 247.532C334.694 248.305 332.736 248.484 330.964 248.008C329.193 247.592 327.515 246.522 325.837 244.797L330.125 242.538C331.058 243.549 331.897 244.203 332.642 244.559C333.388 244.916 334.134 244.916 334.88 244.619C335.812 244.262 335.906 243.668 335.253 242.895C334.88 242.479 334.414 242.122 333.854 241.825C333.295 241.527 332.736 241.349 332.176 241.23C331.617 241.111 330.871 240.992 329.846 240.873L326.583 240.457C325.744 240.338 325.091 240.279 324.532 240.16C323.972 240.041 323.32 239.863 322.76 239.684C322.108 239.446 321.548 239.209 320.989 238.792C320.429 238.436 319.963 238.019 319.497 237.484C318.378 236.236 318.006 234.987 318.472 233.858C318.938 232.668 320.057 231.717 321.828 230.825L320.15 228.982L321.735 228.388L323.413 230.231C324.065 229.993 324.718 229.874 325.371 229.755C326.023 229.696 326.583 229.636 327.142 229.696C327.701 229.755 328.167 229.815 328.634 229.993C329.1 230.171 329.566 230.29 329.939 230.528C330.312 230.706 330.685 230.944 331.058 231.242C331.431 231.539 331.803 231.777 331.99 232.014C332.27 232.252 332.549 232.49 332.829 232.787L328.447 235.047C328.167 234.749 327.981 234.571 327.795 234.393C327.608 234.214 327.422 234.036 327.235 233.858C327.049 233.679 326.769 233.501 326.676 233.441C326.489 233.322 326.303 233.263 326.116 233.204C325.93 233.144 325.65 233.144 325.464 233.144C325.277 233.144 324.998 233.204 324.811 233.322C324.345 233.501 324.065 233.798 324.065 234.155C324.065 234.512 324.159 234.868 324.438 235.166C324.718 235.463 324.998 235.76 325.371 235.939C325.744 236.176 326.116 236.295 326.583 236.414C327.049 236.533 327.422 236.652 327.795 236.652C328.074 236.711 328.54 236.771 329.193 236.83L332.363 237.247C333.202 237.365 334.041 237.484 334.694 237.663C335.346 237.841 336.092 238.019 336.838 238.257C337.584 238.495 338.236 238.852 338.889 239.268C339.541 239.684 340.101 240.16 340.567 240.695C341.499 241.765 341.872 242.895 341.499 244.084C341.126 245.214 340.194 246.224 338.609 246.997L340.381 248.959L338.702 249.494Z" fill="white"/>
<path d="M392.221 18.1535C365.93 15.2996 342.53 20.3533 338.055 37.1791C336.47 43.0652 337.775 48.1783 341.318 52.4591L316.426 65.2419L355.862 62.0314C362.388 64.5879 370.312 66.3716 379.076 67.3229C405.366 70.1767 428.953 64.4096 433.428 47.6432C437.903 30.758 418.512 21.0073 392.221 18.1535Z" fill="#B1B1B2"/>
<path d="M378.703 10.6641C351.946 10.6641 330.317 18.2149 330.317 35.219C330.317 41.1645 333.021 46.0993 337.589 49.9044L316.426 65.1844L354.463 57.7525C361.549 59.5956 369.846 60.4875 378.703 60.4875C405.46 60.4875 427.089 52.2827 427.089 35.219C427.089 18.2149 405.366 10.6641 378.703 10.6641Z" fill="white"/>
<path d="M352.728 32.2525L342.945 32.0156L341.941 48.8891L351.723 49.126L352.728 32.2525Z" fill="#607BC6"/>
<path d="M388.464 16.5015L378.682 16.2646L376.69 49.7145L386.472 49.9513L388.464 16.5015Z" fill="#607BC6"/>
<path d="M369.315 39.2056L359.533 38.9688L358.921 49.2473L368.703 49.4842L369.315 39.2056Z" fill="#607BC6"/>
<path d="M408.479 40.1568L398.697 39.9199L398.085 50.1985L407.868 50.4353L408.479 40.1568Z" fill="#607BC6"/>
<path d="M350.558 34.6212C350.278 34.6212 349.905 34.6212 349.626 34.5023L345.524 32.9564C344.778 32.6592 344.498 32.0646 344.964 31.589C345.43 31.1133 346.363 30.935 347.108 31.2322L351.211 32.7781C351.956 33.0754 352.236 33.6699 351.77 34.1456C351.49 34.4428 351.024 34.5617 350.558 34.6212Z" fill="#E0505D"/>
<path d="M365.195 40.1517C364.822 40.1517 364.542 40.1517 364.262 40.0327L360.16 38.4869C359.414 38.1896 359.135 37.5951 359.601 37.1194C360.067 36.6438 360.999 36.4654 361.745 36.7627L364.356 37.7734L365.754 36.0493C366.127 35.5736 367.153 35.3358 367.898 35.6331C368.644 35.8709 369.017 36.5249 368.551 37.0005L366.313 39.676C366.127 39.9138 365.754 40.0922 365.381 40.2111C365.381 40.0922 365.288 40.1517 365.195 40.1517Z" fill="#E0505D"/>
<path d="M372.098 31.6534C371.818 31.6534 371.538 31.6534 371.259 31.5345C370.513 31.2966 370.14 30.6426 370.606 30.167L375.361 24.3998C375.734 23.9242 376.759 23.6864 377.505 23.9837C378.251 24.2215 378.624 24.8755 378.158 25.3511L373.403 31.1183C373.123 31.4155 372.657 31.6534 372.098 31.6534Z" fill="#E0505D"/>
<path d="M385.987 20.0583C385.334 20.1177 384.775 19.8799 384.495 19.5232L383.656 18.5125L382.817 19.5232C382.444 19.9988 381.418 20.2366 380.673 19.9394C379.927 19.7016 379.554 19.0475 380.02 18.5719L382.258 15.8964C382.537 15.5397 383.097 15.3613 383.656 15.3613C384.215 15.3613 384.775 15.5397 385.054 15.8964L387.292 18.5719C387.665 19.0475 387.385 19.7016 386.639 19.9394C386.453 19.9988 386.173 20.0583 385.987 20.0583Z" fill="#E0505D"/>
<path d="M396.333 32.3061C395.68 32.3656 395.121 32.1278 394.841 31.771L389.713 25.6472C389.34 25.1715 389.62 24.5175 390.366 24.2797C391.112 24.0419 392.137 24.2202 392.51 24.6959L397.638 30.8197C398.011 31.2954 397.731 31.9494 396.985 32.1872C396.705 32.2467 396.519 32.2467 396.333 32.3061Z" fill="#E0505D"/>
<path d="M403.7 41.0482C403.607 41.0482 403.421 41.0482 403.327 41.0482C402.861 40.9887 402.395 40.8103 402.209 40.5131L399.971 37.8376C399.598 37.3619 399.878 36.7079 400.624 36.4701C401.37 36.2323 402.395 36.4107 402.768 36.8863L404.073 38.4321L406.031 37.243C406.684 36.8863 407.709 36.8863 408.268 37.3025C408.828 37.7187 408.828 38.3727 408.175 38.7294L404.726 40.8103C404.446 40.9887 404.073 41.0482 403.7 41.0482Z" fill="#E0505D"/>
<path d="M412.091 36.1096C411.625 36.1096 411.158 36.0502 410.786 35.8123C410.226 35.3962 410.226 34.7422 410.879 34.3854L414.328 32.3045C414.981 31.9478 416.006 31.9478 416.566 32.3639C417.125 32.7801 417.125 33.4341 416.472 33.7909L413.023 35.8718C412.743 36.0502 412.37 36.1096 412.091 36.1096Z" fill="#E0505D"/>
<path d="M417.495 35.6926L420.106 30.2822L411.436 31.5308L417.495 35.6926Z" fill="#E0505D"/>
<path d="M380.746 159.364C366.482 157.283 352.87 157.699 342.522 161.207L319.867 150.98L331.055 167.628C328.351 170.066 326.3 173.038 325.088 176.606C319.215 193.253 337.487 204.252 363.592 207.998C389.696 211.744 413.656 206.749 419.436 190.161C425.403 173.514 406.85 163.109 380.746 159.364Z" fill="#B1B1B2"/>
<path d="M382.144 150.619C367.507 150.619 354.362 152.878 345.505 157.754L319.867 150.976L336.555 165.602C334.784 168.396 333.758 171.547 333.758 175.174C333.758 192.238 355.387 200.443 382.144 200.443C408.901 200.443 430.53 192.238 430.53 175.174C430.53 158.17 408.901 150.619 382.144 150.619Z" fill="white"/>
<path d="M350.086 172.138C349.899 172.138 349.713 172.138 349.619 172.079C348.874 171.9 348.501 171.365 348.78 170.949L354.84 161.08C355.12 160.604 355.959 160.366 356.612 160.545C357.357 160.723 357.73 161.258 357.451 161.674L351.391 171.544C351.111 171.96 350.645 172.138 350.086 172.138Z" fill="#607BC6"/>
<path d="M356.047 172.138C355.86 172.138 355.674 172.138 355.58 172.079C354.835 171.9 354.462 171.365 354.741 170.949L360.801 161.08C361.081 160.604 361.92 160.366 362.573 160.545C363.318 160.723 363.691 161.258 363.412 161.674L357.352 171.544C357.165 171.96 356.606 172.138 356.047 172.138Z" fill="#607BC6"/>
<path d="M366.389 165.305H348.676C347.93 165.305 347.277 164.889 347.277 164.413C347.277 163.938 347.93 163.521 348.676 163.521H366.389C367.135 163.521 367.788 163.938 367.788 164.413C367.788 164.948 367.135 165.305 366.389 165.305Z" fill="#607BC6"/>
<path d="M363.311 169.053H345.598C344.852 169.053 344.199 168.637 344.199 168.161C344.199 167.686 344.852 167.27 345.598 167.27H363.311C364.057 167.27 364.71 167.686 364.71 168.161C364.71 168.637 364.057 169.053 363.311 169.053Z" fill="#607BC6"/>
<path d="M394.73 173.273L386.153 163.226L377.576 173.273H367.973C365.363 173.333 363.219 174.641 363.219 176.306V188.137C363.219 189.861 365.363 191.229 368.067 191.229L404.426 191.169C407.036 191.169 409.181 189.802 409.181 188.078V176.306C409.181 174.641 407.036 173.214 404.333 173.214H394.73V173.273Z" fill="#E0505D"/>
<path d="M388.111 182.011H387.925C389.603 181.536 390.815 180.465 390.815 179.217C390.815 177.552 388.671 176.185 386.06 176.185C383.45 176.185 381.306 177.552 381.306 179.217C381.306 180.465 382.518 181.536 384.196 182.011C381.679 182.071 379.721 183.379 379.721 184.984V188.432H392.866V184.984C392.773 183.379 390.722 182.011 388.111 182.011Z" fill="white"/>
<path d="M122.044 56.7995L97.711 43.6005C101.44 39.3792 102.932 34.3255 101.627 28.38C97.8042 11.4947 74.6834 6.02484 48.2995 8.4625C21.8224 10.9002 2.05782 20.2941 5.88022 37.1793C9.70262 54.0646 32.9167 60.1884 59.3938 57.7508C68.1573 56.9779 76.0818 55.3131 82.7943 52.8755L122.044 56.7995Z" fill="#B1B1B2"/>
<path d="M122.044 56.7987L100.881 41.5187C105.449 37.7136 108.153 32.7788 108.153 26.8333C108.153 9.76967 86.5236 2.27832 59.7668 2.27832C33.01 2.27832 11.3809 9.82912 11.3809 26.8333C11.3809 43.8969 33.01 52.1017 59.7668 52.1017C68.6236 52.1017 76.8277 51.2099 84.0064 49.3668L122.044 56.7987Z" fill="white"/>
<path d="M64.7863 43.3581C64.7863 44.4878 63.3879 45.439 61.6165 45.439C59.8452 45.439 58.3535 44.5472 58.3535 43.4176C58.3535 42.2879 59.752 41.3366 61.5233 41.3366C63.2947 41.2772 64.7863 42.2285 64.7863 43.3581Z" fill="#434244"/>
<path d="M60.795 13.5715C51.3788 13.6904 43.9205 18.6252 44.1069 24.5707C44.2002 29.1487 48.6752 32.9539 55.0148 34.4997L55.108 38.0075L67.8804 37.8886L67.6939 34.3808C73.847 32.716 78.1356 28.792 78.0424 24.214C77.9491 18.2684 70.2111 13.4526 60.795 13.5715Z" fill="#FFFF00"/>
<path d="M59.9471 36.9395L59.8539 33.4316C53.6076 31.8858 49.1326 28.0212 48.9461 23.5026C48.9461 19.2813 52.6753 15.5356 58.1758 13.752C50.0649 14.6438 43.9117 19.1624 44.005 24.6322C44.0982 29.2103 48.5732 33.0154 54.9128 34.5612L55.006 38.0691L67.7784 37.9502V36.9395H59.9471Z" fill="#FFE000"/>
<path d="M61.5305 43.3576C57.9878 43.417 55.0977 41.6334 55.0977 39.3741V38.0066L67.8701 37.8877V39.2552C67.8701 41.5145 65.0732 43.3576 61.5305 43.3576Z" fill="#59595B"/>
<path d="M65.5425 37.8929H62.8388L62.6523 28.7963H59.7622L59.9487 37.8929H57.2451L57.0586 28.7963H55.6602C53.3294 28.7963 51.4648 27.6666 51.4648 26.1802C51.4648 24.6939 53.2362 23.5048 55.5669 23.5048C57.8977 23.5048 59.7622 24.6344 59.7622 26.1208V27.0126H62.6523V26.1208C62.6523 24.6344 64.4237 23.4453 66.7544 23.4453C69.0852 23.4453 70.9497 24.575 70.9497 26.0613C70.9497 27.5477 69.1784 28.7368 66.8477 28.7368H65.4492L65.5425 37.8929ZM65.2628 27.0721H66.6612C67.407 27.0721 68.0596 26.6559 68.0596 26.1208C68.0596 25.6452 67.407 25.229 66.568 25.229C65.8221 25.229 65.1695 25.6452 65.1695 26.1802L65.2628 27.0721ZM55.4737 25.3479C54.7279 25.3479 54.0753 25.7641 54.0753 26.2992C54.0753 26.7748 54.7279 27.191 55.5669 27.191H56.9654V26.2992C56.9654 25.7046 56.3128 25.3479 55.4737 25.3479Z" fill="#7F552B"/>
<path d="M67.7711 37.4723L55 37.6045L55.0227 38.4962L67.7938 38.3641L67.7711 37.4723Z" fill="#919395"/>
<path d="M55.0996 40.3258V40.4447C55.0996 40.6826 55.1928 40.9204 55.2861 41.1582L67.7788 41.0393C67.872 40.8015 67.872 40.5636 67.872 40.2664V40.1475L55.0996 40.3258Z" fill="#919395"/>
<path d="M59.8498 11.4952C58.9175 11.4952 58.0784 11.0195 57.9852 10.425L57.4258 6.20365C57.3326 5.54965 58.0784 4.9551 59.104 4.89564C60.1295 4.83619 61.0618 5.31183 61.155 5.96583L61.7144 10.1871C61.8076 10.8412 61.0618 11.4357 60.0363 11.4952C59.943 11.4952 59.943 11.4952 59.8498 11.4952Z" fill="#606060"/>
<path d="M45.298 16.7874C44.8318 16.7874 44.4589 16.6685 44.086 16.4902L39.7042 14.1714C38.9584 13.7552 38.7719 12.9823 39.5178 12.5067C40.1704 12.031 41.3823 11.9121 42.1282 12.3878L46.51 14.7065C47.2558 15.1227 47.4422 15.8956 46.6964 16.3712C46.3235 16.6685 45.8573 16.7874 45.298 16.7874Z" fill="#606060"/>
<path d="M75.8732 16.1308C75.4071 16.1308 75.0342 16.0119 74.6613 15.8335C73.9154 15.4173 73.729 14.6444 74.4748 14.1688L77.0852 12.1473C77.7378 11.6716 78.9498 11.5527 79.6956 12.0284C80.4415 12.4446 80.6279 13.2175 79.8821 13.6931L77.2717 15.7146C76.992 15.9524 76.4326 16.1308 75.8732 16.1308Z" fill="#606060"/>
<path d="M102.178 131.771L80.9222 140.927C71.506 137.597 59.0133 137.062 45.7748 138.786C21.6284 141.937 4.19456 151.272 9.13571 166.671C14.0769 182.07 35.9857 186.945 60.1321 183.794C84.2784 180.643 101.526 170.714 96.5847 155.315C95.5592 152.045 93.6946 149.31 91.2706 146.991L102.178 131.771Z" fill="#B1B1B2"/>
<path d="M102.179 131.776L78.499 138.018C70.2948 133.559 58.175 131.419 44.6568 131.419C20.0443 131.419 0 138.375 0 154.071C0 169.767 19.951 177.378 44.6568 177.378C69.3625 177.378 89.3136 169.827 89.3136 154.071C89.3136 150.742 88.3813 147.769 86.7964 145.213L102.179 131.776Z" fill="white"/>
<path d="M51.8366 155.791L65.5413 168.039C66.5668 168.931 66.1939 170.239 64.7955 170.893C63.397 171.547 61.346 171.309 60.3204 170.417L45.3105 156.98L51.8366 155.791Z" fill="#4D4D4D"/>
<path d="M50.5401 154.604L65.55 168.041C66.5755 168.933 66.2026 170.241 64.8042 170.895L47.9297 155.794L50.5401 154.604Z" fill="#373C45"/>
<path d="M28.4456 151.866C32.4544 155.433 40.0992 156.265 45.693 153.709C51.2867 151.152 52.4987 146.217 48.5831 142.65C44.5742 139.083 36.9294 138.25 31.3357 140.807C25.7419 143.363 24.4367 148.298 28.4456 151.866Z" fill="#ABD3FF"/>
<path d="M24.246 153.77C29.8398 158.823 40.7476 159.953 48.6721 156.386C56.5033 152.759 58.3679 145.803 52.6809 140.749C47.0872 135.695 36.1794 134.566 28.2549 138.133C20.4236 141.76 18.6523 148.716 24.246 153.77ZM28.4413 151.867C24.4325 148.3 25.7377 143.365 31.3315 140.809C36.9252 138.252 44.57 139.084 48.5789 142.652C52.5877 146.219 51.2825 151.154 45.6887 153.71C40.095 156.267 32.357 155.435 28.4413 151.867Z" fill="#4D4D4D"/>
<path d="M25.7443 153.119C30.7786 157.638 40.4745 158.648 47.5599 155.438C54.5521 152.227 56.2302 145.984 51.1958 141.466C46.1615 136.947 36.4656 135.936 29.3802 139.147C22.388 142.358 20.7099 148.6 25.7443 153.119ZM28.4479 151.87C24.4391 148.303 25.7443 143.368 31.338 140.812C36.9318 138.255 44.5766 139.088 48.5854 142.655C52.5943 146.222 51.2891 151.157 45.6953 153.714C40.1016 156.27 32.3635 155.438 28.4479 151.87Z" fill="#373C45"/>
<path d="M33.6663 139.92C36.4631 139.147 39.6329 139.147 42.4298 139.741L38.421 155.2C35.4376 155.2 32.5475 154.486 30.2168 153.238L33.6663 139.92Z" fill="white"/>
<path d="M48.3055 142.473L45.3221 153.829C44.2966 154.245 43.2711 154.601 42.1523 154.839L45.7883 140.927C46.7206 141.343 47.5596 141.878 48.3055 142.473Z" fill="white"/>
<path d="M66.007 155.196V152.223C70.0159 150.024 72.0669 147.883 72.0669 145.862C72.0669 145.802 72.0669 145.683 72.0669 145.624C72.0669 145.089 71.7872 144.673 71.3211 144.435C70.8549 144.138 70.2956 144.019 69.643 144.019C68.9904 144.019 68.431 144.138 68.1513 144.435C67.8716 144.673 67.6852 144.97 67.6852 145.386C67.6852 145.446 67.6852 145.505 67.6852 145.564C67.6852 145.862 67.7784 146.278 67.9648 146.694L62.9305 147.408C62.6508 146.635 62.4643 146.1 62.4643 145.743C62.4643 145.505 62.3711 145.327 62.3711 145.089C62.3711 143.959 62.9305 143.067 63.8628 142.354C65.0747 141.462 66.9393 141.046 69.4565 141.046C71.9737 141.046 74.0247 141.462 75.33 142.294C76.7284 143.127 77.381 144.316 77.381 145.862C77.381 147.229 76.7284 148.537 75.5164 149.786C74.3044 151.034 72.7195 152.164 70.8549 153.115V155.375H66.007V155.196ZM65.8206 160.072V156.683H71.2279V160.072H65.8206Z" fill="#FFD400"/>
<path d="M38.9727 167.386V166.078C40.744 165.127 41.6763 164.176 41.6763 163.284C41.6763 163.224 41.6763 163.224 41.6763 163.165C41.6763 162.927 41.5831 162.749 41.3966 162.63C41.2102 162.511 40.9305 162.451 40.6508 162.451C40.3711 162.451 40.0914 162.511 39.9982 162.63C39.905 162.749 39.8117 162.868 39.8117 163.046V163.105C39.8117 163.224 39.905 163.403 39.9982 163.581L37.7607 163.878C37.6674 163.522 37.5742 163.284 37.5742 163.105C37.5742 162.986 37.5742 162.927 37.5742 162.808C37.5742 162.332 37.7607 161.916 38.2268 161.619C38.7862 161.262 39.532 161.024 40.6508 161.024C41.7695 161.024 42.6086 161.203 43.2612 161.56C43.9138 161.916 44.1935 162.451 44.1935 163.105C44.1935 163.7 43.9138 164.294 43.3544 164.83C42.7951 165.365 42.1424 165.84 41.3034 166.256V167.267H38.9727V167.386ZM38.8794 169.586V168.1H41.3034V169.586H38.8794Z" fill="#FFD400"/>
<path d="M10.5427 158.048V156.205C13.0599 154.837 14.2719 153.529 14.2719 152.221C14.2719 152.162 14.2719 152.103 14.2719 152.043C14.2719 151.686 14.0854 151.449 13.8057 151.27C13.526 151.092 13.1531 151.032 12.7802 151.032C12.4073 151.032 12.0344 151.092 11.8479 151.27C11.6615 151.449 11.5682 151.627 11.5682 151.865C11.5682 151.924 11.5682 151.924 11.5682 151.984C11.5682 152.162 11.6615 152.4 11.7547 152.697L8.67812 153.113C8.49167 152.638 8.39844 152.281 8.39844 152.043C8.39844 151.924 8.39844 151.746 8.39844 151.627C8.39844 150.913 8.67813 150.378 9.33073 149.903C10.0766 149.368 11.1953 149.07 12.7802 149.07C14.3651 149.07 15.5771 149.308 16.4161 149.843C17.2552 150.378 17.7214 151.092 17.7214 152.043C17.7214 152.875 17.3484 153.708 16.6026 154.481C15.8568 155.254 14.9245 155.967 13.7125 156.502V157.929H10.5427V158.048ZM10.3563 161.08V158.999H13.7125V161.08H10.3563Z" fill="#FFD400"/>
<path d="M48.0078 272.8L134.711 183.261L207.336 199.611L155.874 272.8H48.0078Z" fill="#F7E6C4"/>
<path d="M110.764 208.054C126.799 210.848 162.04 215.426 193.272 203.178L195.136 200.265L134.724 183.261L110.764 208.054Z" fill="#F7E6C4"/>
<path d="M266.27 45.9189H161.108C152.624 45.9189 145.818 50.3186 145.818 55.6696V201.454C145.818 206.864 152.717 211.204 161.108 211.204H266.27C274.754 211.204 281.56 206.805 281.56 201.454V55.6696C281.56 50.2592 274.661 45.9189 266.27 45.9189Z" fill="#353535"/>
<path d="M278.113 45.9189H173.044C164.56 45.9189 157.754 50.3186 157.754 55.6696V201.454C157.754 206.864 164.653 211.204 173.044 211.204H278.206C286.69 211.204 293.496 206.805 293.496 201.454V55.6696C293.496 50.3186 286.597 45.9189 278.113 45.9189Z" fill="#606060"/>
<path d="M173.048 191.467C171.183 191.467 169.691 190.516 169.691 189.327V55.6716C169.691 54.4825 171.183 53.5312 173.048 53.5312H278.21C280.075 53.5312 281.566 54.4825 281.566 55.6716V189.327C281.566 190.516 280.075 191.467 278.21 191.467H173.048Z" fill="#474747"/>
<path d="M281.566 67.4443H169.691V151.276H281.566V67.4443Z" fill="#607BC6"/>
<path d="M225.62 207.457C231.335 207.457 235.968 204.502 235.968 200.857C235.968 197.213 231.335 194.258 225.62 194.258C219.905 194.258 215.271 197.213 215.271 200.857C215.271 204.502 219.905 207.457 225.62 207.457Z" fill="#76757A"/>
<path d="M232.985 196.22C231.12 195.031 228.51 194.258 225.62 194.258C219.84 194.258 215.271 197.231 215.271 200.857C215.271 202.522 216.204 204.008 217.789 205.198C222.637 202.165 229.069 198.42 232.985 196.22Z" fill="#474747"/>
<path d="M256.469 144.204C252.088 136.356 240.62 130.708 227.102 130.708H224.119C210.601 130.708 199.133 136.356 194.752 144.204C192.887 147.593 196.803 151.22 202.303 151.22H248.825C254.325 151.22 258.334 147.653 256.469 144.204Z" fill="#E2C8AF"/>
<path d="M227.104 130.708H224.12C206.873 130.708 192.889 139.864 192.889 151.22H258.336C258.336 139.924 244.351 130.708 227.104 130.708Z" fill="#3D3D51"/>
<path d="M227.102 130.708H224.119C219.644 130.708 215.355 131.362 211.439 132.492L220.389 151.22H230.738L239.688 132.432C235.866 131.362 231.577 130.708 227.102 130.708Z" fill="#F2F2F2"/>
<path d="M194.747 144.204C194.468 144.68 194.374 145.096 194.281 145.572C206.681 137.189 225.513 138.437 225.513 138.437L224.301 130.708H224.021C210.596 130.708 199.129 136.356 194.747 144.204Z" fill="#B3B3B3"/>
<path d="M225.605 88.6699C225.511 88.6699 225.511 88.6699 225.511 88.6699H225.605C216.748 88.6699 202.577 91.5238 202.764 100.918C202.95 110.312 211.341 114.949 211.341 114.949L225.605 114.236L239.869 114.949C239.869 114.949 248.259 110.312 248.446 100.918C248.539 91.5238 234.368 88.6699 225.605 88.6699Z" fill="#1A1A1A"/>
<path d="M225.521 138.433C221.233 138.433 217.783 136.233 217.783 133.498V118.1H233.166V133.498C233.259 136.233 229.81 138.433 225.521 138.433Z" fill="#E2C8AF"/>
<path d="M217.869 131.301C220.2 131.955 222.81 132.371 225.607 132.371C228.404 132.371 230.921 132.014 233.345 131.301V118.161H217.962V131.301H217.869Z" fill="#B3B3B3"/>
<path d="M208.464 107.402C205.294 107.402 202.684 109.127 202.684 111.207V112.991C202.684 115.072 205.294 116.796 208.464 116.796C211.634 116.796 214.244 115.072 214.244 112.991V111.207C214.244 109.127 211.634 107.402 208.464 107.402Z" fill="#E2C8AF"/>
<path d="M208.469 109.838C206.884 109.838 205.672 110.67 205.672 111.681V112.573C205.672 113.584 206.884 114.416 208.469 114.416C210.054 114.416 211.266 113.584 211.266 112.573V111.681C211.266 110.67 210.054 109.838 208.469 109.838Z" fill="#C6A891"/>
<path d="M242.675 107.402C245.845 107.402 248.455 109.127 248.455 111.207V112.991C248.455 115.072 245.845 116.796 242.675 116.796C239.505 116.796 236.895 115.072 236.895 112.991V111.207C236.895 109.127 239.505 107.402 242.675 107.402Z" fill="#E2C8AF"/>
<path d="M242.678 109.838C244.263 109.838 245.475 110.67 245.475 111.681V112.573C245.475 113.584 244.263 114.416 242.678 114.416C241.093 114.416 239.881 113.584 239.881 112.573V111.681C239.881 110.67 241.093 109.838 242.678 109.838Z" fill="#C6A891"/>
<path d="M243.042 117.029L241.55 105.019C241.084 101.333 235.956 98.4199 229.71 98.4199H221.319C215.073 98.4199 209.945 101.274 209.479 105.019L207.987 117.029C207.148 123.986 214.98 130.11 225.514 130.11C236.049 130.11 243.881 123.986 243.042 117.029Z" fill="#F7E1C9"/>
<path d="M228.038 112.394C227.945 111.561 226.826 110.907 225.521 110.907C224.216 110.907 223.19 111.561 223.004 112.394L222.072 118.28C221.885 119.231 223.097 120.123 224.589 120.123H226.36C227.852 120.123 228.971 119.29 228.877 118.28L228.038 112.394Z" fill="#E8BB9C"/>
<path d="M229.152 122.501C226.728 122.798 224.305 122.798 221.974 122.501C221.228 122.441 220.482 122.738 220.296 123.214C220.109 123.69 220.669 124.225 221.508 124.284C224.211 124.582 226.915 124.582 229.619 124.284C230.458 124.165 231.017 123.69 230.831 123.214C230.644 122.679 229.898 122.382 229.152 122.501Z" fill="#E6E6E6"/>
<path d="M231.019 121.612C227.383 122.088 223.747 122.088 220.111 121.612C219.365 121.493 218.619 121.791 218.433 122.266C218.246 122.742 218.806 123.217 219.551 123.336C223.467 123.812 227.476 123.812 231.485 123.336C232.324 123.217 232.79 122.742 232.603 122.266C232.51 121.791 231.764 121.493 231.019 121.612Z" fill="#E8BB9C"/>
<path d="M230.744 110.554C230.744 109.543 231.956 108.711 233.541 108.711C235.126 108.711 236.338 109.543 236.338 110.554H230.744Z" fill="#7F4113"/>
<path d="M214.797 110.554C214.797 109.543 216.009 108.711 217.594 108.711C219.179 108.711 220.391 109.543 220.391 110.554H214.797Z" fill="#7F4113"/>
<path d="M236.427 105.319C234.376 105.021 232.138 105.021 230.087 105.319C229.341 105.438 228.968 105.854 229.155 106.21C229.341 106.567 229.994 106.805 230.553 106.686C232.325 106.448 234.189 106.448 235.961 106.686C236.52 106.746 237.173 106.567 237.359 106.21C237.546 105.854 237.173 105.438 236.427 105.319Z" fill="#662F0A"/>
<path d="M220.765 105.319C218.714 105.021 216.476 105.021 214.425 105.319C213.679 105.438 213.306 105.854 213.493 106.21C213.679 106.567 214.332 106.805 214.891 106.686C216.663 106.448 218.527 106.448 220.299 106.686C220.858 106.746 221.511 106.567 221.697 106.21C221.883 105.854 221.511 105.438 220.765 105.319Z" fill="#662F0A"/>
<path d="M217.868 131.299L225.513 136.353L220.012 139.861L211.342 132.31L217.868 129.516V131.299Z" fill="white"/>
<path d="M233.263 131.299L225.525 136.353L231.119 139.861L239.789 132.31L233.263 129.516V131.299Z" fill="white"/>
<path d="M225.516 136.353L221.414 138.969L225.516 141.347L229.711 138.969L225.516 136.353Z" fill="#585A63"/>
<path d="M227.577 138.854L225.526 138.438L223.568 138.854L220.305 151.22H225.526H230.746L227.577 138.854Z" fill="#585A63"/>
<path d="M247.522 145.628H235.029V147.53H247.522V145.628Z" fill="#CCCCCC"/>
<path d="M236.341 99.3121C236.341 96.9934 231.493 95.0908 225.62 95.0908C219.653 95.0908 214.898 96.9934 214.898 99.3121C214.898 101.631 219.746 103.533 225.62 103.533C231.493 103.533 236.341 101.69 236.341 99.3121Z" fill="#1A1A1A"/>
<path d="M278.107 53.5312H173.038C171.174 53.5312 169.682 54.4825 170.707 56.6824V68.395L281.557 67.3843V55.6716C281.557 54.4825 279.972 53.5312 278.107 53.5312Z" fill="white"/>
<path d="M169.691 189.329C169.691 190.518 171.183 191.469 173.048 191.469H278.21C280.075 191.469 281.566 190.518 281.566 189.329V151.218H169.691V189.329Z" fill="white"/>
<path d="M281.566 151.218H169.691V164.833H281.566V151.218Z" fill="#F2F2F2"/>
<path d="M182.547 65.1791C186.614 65.1791 189.912 63.0762 189.912 60.4821C189.912 57.8881 186.614 55.7852 182.547 55.7852C178.479 55.7852 175.182 57.8881 175.182 60.4821C175.182 63.0762 178.479 65.1791 182.547 65.1791Z" fill="#FF9700"/>
<path d="M251.08 59.0586H194.117V63.1015H251.08V59.0586Z" fill="#999999"/>
<path d="M190.468 156.45C190.375 155.321 188.977 154.369 187.205 154.131C185.807 154.013 184.502 154.31 183.663 154.904C182.824 154.31 181.612 153.894 180.213 154.013C178.442 154.131 176.95 155.083 176.764 156.212C176.671 156.866 176.95 157.461 177.51 157.937C177.603 158.055 177.789 158.174 177.976 158.234L182.824 161.861C183.103 162.098 183.663 162.098 184.036 161.861L189.163 158.412C189.35 158.293 189.443 158.234 189.629 158.115C190.189 157.699 190.562 157.104 190.468 156.45Z" stroke="#E0505D" stroke-width="2.50917" stroke-miterlimit="10"/>
<path d="M210.423 162.096L207.626 159.301C207.813 158.945 207.906 158.528 207.906 158.112C207.906 155.912 205.109 154.069 201.566 154.069C198.117 154.069 195.227 155.853 195.227 158.112C195.227 160.372 198.023 162.155 201.566 162.155C203.151 162.155 204.643 161.739 205.761 161.145L210.423 162.096Z" stroke="#E0505D" stroke-width="2.50917" stroke-miterlimit="10" stroke-linecap="round" stroke-linejoin="round"/>
<path d="M177.231 168.52V175.271H176.413V169.377H176.374L174.725 170.472V169.641L176.413 168.52H177.231ZM181.375 175.364C180.878 175.364 180.455 175.229 180.105 174.958C179.756 174.686 179.489 174.291 179.304 173.775C179.12 173.256 179.027 172.63 179.027 171.896C179.027 171.166 179.12 170.543 179.304 170.026C179.491 169.508 179.759 169.112 180.109 168.84C180.46 168.565 180.882 168.428 181.375 168.428C181.867 168.428 182.288 168.565 182.637 168.84C182.989 169.112 183.257 169.508 183.442 170.026C183.628 170.543 183.722 171.166 183.722 171.896C183.722 172.63 183.63 173.256 183.445 173.775C183.26 174.291 182.993 174.686 182.644 174.958C182.294 175.229 181.871 175.364 181.375 175.364ZM181.375 174.639C181.867 174.639 182.249 174.401 182.522 173.926C182.794 173.452 182.931 172.775 182.931 171.896C182.931 171.311 182.868 170.813 182.743 170.402C182.62 169.991 182.442 169.678 182.209 169.463C181.978 169.247 181.7 169.14 181.375 169.14C180.887 169.14 180.505 169.38 180.231 169.862C179.956 170.341 179.819 171.019 179.819 171.896C179.819 172.48 179.88 172.977 180.003 173.386C180.126 173.795 180.303 174.106 180.534 174.319C180.767 174.532 181.047 174.639 181.375 174.639ZM187.177 175.364C186.68 175.364 186.257 175.229 185.908 174.958C185.558 174.686 185.291 174.291 185.106 173.775C184.922 173.256 184.83 172.63 184.83 171.896C184.83 171.166 184.922 170.543 185.106 170.026C185.293 169.508 185.561 169.112 185.911 168.84C186.262 168.565 186.684 168.428 187.177 168.428C187.669 168.428 188.09 168.565 188.439 168.84C188.791 169.112 189.059 169.508 189.244 170.026C189.431 170.543 189.524 171.166 189.524 171.896C189.524 172.63 189.432 173.256 189.247 173.775C189.062 174.291 188.795 174.686 188.446 174.958C188.097 175.229 187.673 175.364 187.177 175.364ZM187.177 174.639C187.669 174.639 188.051 174.401 188.324 173.926C188.597 173.452 188.733 172.775 188.733 171.896C188.733 171.311 188.67 170.813 188.545 170.402C188.422 169.991 188.244 169.678 188.011 169.463C187.78 169.247 187.502 169.14 187.177 169.14C186.689 169.14 186.308 169.38 186.033 169.862C185.758 170.341 185.621 171.019 185.621 171.896C185.621 172.48 185.682 172.977 185.805 173.386C185.928 173.795 186.105 174.106 186.336 174.319C186.569 174.532 186.849 174.639 187.177 174.639ZM192.979 175.364C192.482 175.364 192.059 175.229 191.71 174.958C191.36 174.686 191.093 174.291 190.909 173.775C190.724 173.256 190.632 172.63 190.632 171.896C190.632 171.166 190.724 170.543 190.909 170.026C191.095 169.508 191.364 169.112 191.713 168.84C192.065 168.565 192.487 168.428 192.979 168.428C193.471 168.428 193.892 168.565 194.241 168.84C194.593 169.112 194.861 169.508 195.046 170.026C195.233 170.543 195.326 171.166 195.326 171.896C195.326 172.63 195.234 173.256 195.049 173.775C194.865 174.291 194.598 174.686 194.248 174.958C193.899 175.229 193.476 175.364 192.979 175.364ZM192.979 174.639C193.471 174.639 193.854 174.401 194.126 173.926C194.399 173.452 194.535 172.775 194.535 171.896C194.535 171.311 194.472 170.813 194.347 170.402C194.224 169.991 194.046 169.678 193.813 169.463C193.582 169.247 193.304 169.14 192.979 169.14C192.491 169.14 192.11 169.38 191.835 169.862C191.56 170.341 191.423 171.019 191.423 171.896C191.423 172.48 191.484 172.977 191.607 173.386C191.731 173.795 191.907 174.106 192.138 174.319C192.371 174.532 192.651 174.639 192.979 174.639ZM175.648 179.52V186.271H174.87V179.52H175.648ZM177.073 186.271V181.208H177.851V186.271H177.073ZM177.469 180.364C177.317 180.364 177.186 180.312 177.077 180.209C176.969 180.106 176.915 179.981 176.915 179.836C176.915 179.691 176.969 179.567 177.077 179.464C177.186 179.361 177.317 179.309 177.469 179.309C177.621 179.309 177.75 179.361 177.858 179.464C177.968 179.567 178.023 179.691 178.023 179.836C178.023 179.981 177.968 180.106 177.858 180.209C177.75 180.312 177.621 180.364 177.469 180.364ZM180.002 184.425L179.988 183.463H180.147L182.362 181.208H183.325L180.964 183.595H180.898L180.002 184.425ZM179.276 186.271V179.52H180.054V186.271H179.276ZM182.494 186.271L180.516 183.766L181.07 183.225L183.483 186.271H182.494ZM186.24 186.377C185.753 186.377 185.332 186.269 184.978 186.054C184.626 185.836 184.355 185.533 184.164 185.144C183.975 184.753 183.88 184.298 183.88 183.779C183.88 183.261 183.975 182.803 184.164 182.408C184.355 182.01 184.621 181.7 184.961 181.478C185.304 181.254 185.704 181.142 186.161 181.142C186.425 181.142 186.686 181.186 186.943 181.274C187.2 181.362 187.434 181.505 187.645 181.702C187.856 181.898 188.024 182.157 188.149 182.48C188.275 182.803 188.337 183.201 188.337 183.674V184.003H184.434V183.331H187.546C187.546 183.045 187.489 182.79 187.375 182.566C187.262 182.342 187.102 182.165 186.893 182.035C186.687 181.906 186.443 181.841 186.161 181.841C185.851 181.841 185.583 181.918 185.357 182.072C185.133 182.223 184.96 182.421 184.839 182.665C184.719 182.909 184.658 183.17 184.658 183.45V183.898C184.658 184.28 184.724 184.604 184.856 184.87C184.99 185.134 185.176 185.335 185.413 185.474C185.65 185.61 185.926 185.678 186.24 185.678C186.445 185.678 186.629 185.65 186.794 185.592C186.961 185.533 187.105 185.445 187.226 185.329C187.347 185.21 187.44 185.063 187.506 184.887L188.258 185.098C188.179 185.353 188.046 185.577 187.859 185.77C187.672 185.962 187.442 186.111 187.167 186.219C186.892 186.324 186.583 186.377 186.24 186.377ZM193.107 182.342L192.409 182.54C192.365 182.423 192.3 182.31 192.214 182.2C192.131 182.088 192.016 181.996 191.871 181.923C191.726 181.851 191.54 181.814 191.314 181.814C191.004 181.814 190.746 181.886 190.539 182.029C190.335 182.169 190.233 182.348 190.233 182.566C190.233 182.759 190.303 182.912 190.444 183.024C190.584 183.136 190.804 183.23 191.103 183.304L191.855 183.489C192.307 183.599 192.645 183.767 192.867 183.993C193.089 184.218 193.2 184.507 193.2 184.861C193.2 185.151 193.116 185.41 192.949 185.639C192.784 185.867 192.554 186.047 192.257 186.179C191.96 186.311 191.615 186.377 191.222 186.377C190.705 186.377 190.278 186.265 189.939 186.041C189.601 185.817 189.387 185.489 189.296 185.058L190.035 184.874C190.105 185.146 190.238 185.351 190.434 185.487C190.632 185.623 190.89 185.691 191.209 185.691C191.571 185.691 191.859 185.614 192.072 185.461C192.288 185.304 192.395 185.118 192.395 184.9C192.395 184.724 192.334 184.577 192.211 184.458C192.088 184.337 191.899 184.247 191.644 184.188L190.8 183.99C190.336 183.88 189.995 183.71 189.778 183.479C189.562 183.246 189.455 182.955 189.455 182.606C189.455 182.32 189.535 182.067 189.695 181.847C189.858 181.628 190.079 181.455 190.358 181.33C190.639 181.205 190.958 181.142 191.314 181.142C191.815 181.142 192.209 181.252 192.494 181.472C192.782 181.691 192.987 181.981 193.107 182.342Z" fill="#353535"/>
<path d="M175.793 174.07V180.821H174.976V174.07H175.793ZM178.105 177.775V180.821H177.327V175.758H178.079V176.549H178.145C178.263 176.292 178.444 176.085 178.685 175.929C178.927 175.771 179.239 175.692 179.622 175.692C179.964 175.692 180.264 175.762 180.522 175.903C180.779 176.041 180.979 176.252 181.122 176.536C181.264 176.817 181.336 177.173 181.336 177.604V180.821H180.558V177.656C180.558 177.259 180.455 176.949 180.248 176.727C180.041 176.503 179.758 176.391 179.397 176.391C179.149 176.391 178.927 176.444 178.732 176.552C178.538 176.66 178.385 176.817 178.273 177.024C178.161 177.23 178.105 177.481 178.105 177.775ZM185.012 175.758V176.417H182.283V175.758H185.012ZM183.1 180.821V175.059C183.1 174.769 183.169 174.527 183.305 174.333C183.441 174.14 183.618 173.995 183.836 173.898C184.053 173.802 184.283 173.753 184.525 173.753C184.716 173.753 184.872 173.769 184.993 173.799C185.114 173.83 185.204 173.859 185.263 173.885L185.039 174.558C184.999 174.544 184.944 174.528 184.874 174.508C184.806 174.488 184.716 174.479 184.604 174.479C184.347 174.479 184.161 174.543 184.047 174.673C183.934 174.803 183.878 174.993 183.878 175.243V180.821H183.1ZM186.881 174.07V180.821H186.103V174.07H186.881ZM191.497 178.751V175.758H192.275V180.821H191.497V179.964H191.444C191.326 180.221 191.141 180.44 190.89 180.62C190.64 180.798 190.323 180.887 189.941 180.887C189.625 180.887 189.343 180.818 189.097 180.68C188.851 180.539 188.657 180.328 188.517 180.047C188.376 179.763 188.306 179.406 188.306 178.975V175.758H189.084V178.922C189.084 179.292 189.187 179.586 189.394 179.806C189.603 180.026 189.868 180.136 190.192 180.136C190.385 180.136 190.582 180.086 190.782 179.987C190.984 179.888 191.153 179.737 191.289 179.532C191.428 179.328 191.497 179.067 191.497 178.751ZM195.823 180.927C195.335 180.927 194.914 180.819 194.56 180.604C194.209 180.386 193.937 180.083 193.746 179.694C193.557 179.303 193.463 178.848 193.463 178.329C193.463 177.81 193.557 177.353 193.746 176.958C193.937 176.56 194.203 176.25 194.544 176.028C194.887 175.804 195.287 175.692 195.744 175.692C196.008 175.692 196.268 175.736 196.525 175.824C196.782 175.911 197.016 176.054 197.227 176.252C197.438 176.448 197.607 176.707 197.732 177.03C197.857 177.353 197.92 177.751 197.92 178.224V178.553H194.016V177.881H197.129C197.129 177.595 197.071 177.34 196.957 177.116C196.845 176.892 196.685 176.715 196.476 176.585C196.269 176.455 196.025 176.391 195.744 176.391C195.434 176.391 195.166 176.467 194.94 176.621C194.715 176.773 194.543 176.971 194.422 177.215C194.301 177.459 194.241 177.72 194.241 177.999V178.448C194.241 178.83 194.307 179.154 194.438 179.42C194.573 179.684 194.758 179.885 194.996 180.023C195.233 180.16 195.509 180.228 195.823 180.228C196.027 180.228 196.212 180.199 196.377 180.142C196.544 180.083 196.688 179.995 196.809 179.878C196.93 179.76 197.023 179.613 197.089 179.437L197.841 179.648C197.762 179.903 197.629 180.127 197.442 180.32C197.255 180.511 197.024 180.661 196.749 180.769C196.475 180.874 196.166 180.927 195.823 180.927ZM199.881 177.775V180.821H199.103V175.758H199.855V176.549H199.921C200.04 176.292 200.22 176.085 200.461 175.929C200.703 175.771 201.015 175.692 201.398 175.692C201.741 175.692 202.041 175.762 202.298 175.903C202.555 176.041 202.755 176.252 202.898 176.536C203.041 176.817 203.112 177.173 203.112 177.604V180.821H202.334V177.656C202.334 177.259 202.231 176.949 202.024 176.727C201.818 176.503 201.534 176.391 201.174 176.391C200.925 176.391 200.703 176.444 200.508 176.552C200.314 176.66 200.161 176.817 200.049 177.024C199.937 177.23 199.881 177.481 199.881 177.775ZM206.591 180.927C206.116 180.927 205.707 180.815 205.364 180.591C205.022 180.366 204.758 180.058 204.573 179.664C204.389 179.271 204.296 178.821 204.296 178.316C204.296 177.802 204.391 177.348 204.58 176.954C204.771 176.559 205.037 176.25 205.378 176.028C205.72 175.804 206.12 175.692 206.578 175.692C206.934 175.692 207.255 175.758 207.54 175.889C207.826 176.021 208.06 176.206 208.242 176.443C208.425 176.681 208.538 176.958 208.582 177.274H207.804C207.745 177.043 207.613 176.839 207.408 176.661C207.206 176.481 206.934 176.391 206.591 176.391C206.288 176.391 206.022 176.47 205.793 176.628C205.567 176.784 205.39 177.005 205.262 177.291C205.137 177.574 205.074 177.907 205.074 178.289C205.074 178.681 205.136 179.021 205.259 179.311C205.384 179.602 205.56 179.827 205.786 179.987C206.015 180.148 206.283 180.228 206.591 180.228C206.793 180.228 206.977 180.193 207.141 180.122C207.306 180.052 207.446 179.951 207.56 179.819C207.674 179.687 207.756 179.529 207.804 179.344H208.582C208.538 179.643 208.429 179.913 208.256 180.152C208.084 180.389 207.857 180.578 207.573 180.719C207.292 180.858 206.964 180.927 206.591 180.927ZM176.993 191.927C176.505 191.927 176.085 191.819 175.731 191.604C175.379 191.386 175.108 191.083 174.916 190.694C174.727 190.303 174.633 189.848 174.633 189.329C174.633 188.81 174.727 188.353 174.916 187.958C175.108 187.56 175.374 187.25 175.714 187.028C176.057 186.804 176.457 186.692 176.914 186.692C177.178 186.692 177.438 186.736 177.696 186.824C177.953 186.911 178.187 187.054 178.398 187.252C178.609 187.448 178.777 187.707 178.902 188.03C179.027 188.353 179.09 188.751 179.09 189.224V189.553H175.187V188.881H178.299C178.299 188.595 178.242 188.34 178.127 188.116C178.015 187.892 177.855 187.715 177.646 187.585C177.439 187.455 177.196 187.391 176.914 187.391C176.604 187.391 176.336 187.467 176.11 187.621C175.886 187.773 175.713 187.971 175.592 188.215C175.471 188.459 175.411 188.72 175.411 188.999V189.448C175.411 189.83 175.477 190.154 175.609 190.42C175.743 190.684 175.929 190.885 176.166 191.023C176.403 191.16 176.679 191.228 176.993 191.228C177.198 191.228 177.382 191.199 177.547 191.142C177.714 191.083 177.858 190.995 177.979 190.878C178.1 190.76 178.193 190.613 178.259 190.437L179.011 190.648C178.932 190.903 178.799 191.127 178.612 191.32C178.425 191.511 178.194 191.661 177.92 191.769C177.645 191.874 177.336 191.927 176.993 191.927ZM180.274 191.821V186.758H181.025V187.522H181.078C181.17 187.272 181.337 187.069 181.579 186.913C181.821 186.757 182.093 186.678 182.397 186.678C182.454 186.678 182.525 186.68 182.611 186.682C182.697 186.684 182.761 186.687 182.805 186.692V187.483C182.779 187.476 182.719 187.466 182.624 187.453C182.532 187.438 182.434 187.43 182.331 187.43C182.084 187.43 181.865 187.482 181.671 187.585C181.48 187.686 181.328 187.827 181.216 188.007C181.106 188.185 181.052 188.388 181.052 188.617V191.821H180.274ZM187.222 191.821V192.547H183.002V191.821H187.222Z" fill="#353535"/>
<path d="M272.521 172.856H208.473V176.186H272.521V172.856Z" fill="#999999"/>
<path d="M272.521 179.871H208.473V183.201H272.521V179.871Z" fill="#999999"/>
<path d="M183.946 143.842L181.802 141.345L179.657 143.842H177.233C176.581 143.842 176.021 144.199 176.021 144.615V147.588C176.021 148.004 176.581 148.36 177.233 148.36H186.37C187.023 148.36 187.582 148.004 187.582 147.588V144.615C187.582 144.199 187.023 143.842 186.37 143.842H183.946Z" fill="white"/>
<path d="M281.277 94.1403L288.456 97.4103V164C285.379 164.119 282.116 163.584 279.413 162.335L271.768 158.352C265.428 155.498 264.03 149.85 268.505 145.866C270.556 144.023 273.539 142.834 276.709 142.358L269.437 139.029C263.097 136.175 261.699 130.527 266.174 126.543C266.827 125.949 267.572 125.414 268.412 124.997C263.004 122.025 261.886 116.793 266.174 112.988C267.106 112.155 268.318 111.442 269.624 110.847L264.962 108.707C258.623 105.853 257.224 100.205 261.699 96.2212C266.267 92.1783 275.031 91.227 281.277 94.1403Z" fill="#999999"/>
<path d="M266.449 91.2247C270.924 87.1817 279.78 86.2899 286.027 89.1437L307.19 98.7755C313.529 101.629 314.928 107.278 310.453 111.261C305.978 115.304 297.121 116.196 290.875 113.342L269.712 103.71C263.372 100.856 261.88 95.2676 266.449 91.2247Z" fill="#F7E6C4"/>
<path d="M270.931 107.986C275.406 103.943 284.263 103.052 290.51 105.905L311.673 115.537C318.012 118.391 319.411 124.039 314.936 128.023C310.461 132.066 301.604 132.958 295.358 130.104L274.195 120.472C267.855 117.618 266.456 112.029 270.931 107.986Z" fill="#F7E6C4"/>
<path d="M270.931 121.551C275.406 117.508 284.263 116.616 290.51 119.47L311.673 129.102C318.012 131.955 319.411 137.604 314.936 141.587C310.461 145.63 301.604 146.522 295.358 143.668L274.195 134.036C267.855 131.183 266.456 125.594 270.931 121.551Z" fill="#F7E6C4"/>
<path d="M273.167 140.869C277.642 136.826 286.499 135.934 292.745 138.788L300.39 142.772C306.73 145.626 308.128 151.274 303.653 155.257C299.178 159.3 290.321 160.192 284.075 157.338L276.43 153.355C270.184 150.501 268.692 144.853 273.167 140.869Z" fill="#F7E6C4"/>
<path d="M143.955 128.324L157.753 115.898C159.897 113.995 163.813 113.757 166.423 115.422C178.543 123.151 180.408 136.826 170.525 145.803L144.048 168.396V128.324H143.955Z" fill="#999999"/>
<path d="M160.175 106.326C157.565 104.661 153.649 104.839 151.505 106.801L117.849 137.123C104.517 149.133 100.975 164.651 109.272 178.385C114.679 187.363 125.307 196.281 145.445 201.692C145.445 201.692 157.565 198.005 157.565 179.872C157.565 161.738 145.445 153.533 145.445 153.533L164.184 136.648C174.159 127.729 172.388 114.055 160.175 106.326Z" fill="#FFF3D7"/>
<path d="M136.948 26.8971C133.685 21.4272 130.515 15.9573 127.252 10.4875C129.676 9.89292 130.888 9.6551 133.312 9.06055C136.295 14.5899 139.372 20.0597 142.355 25.5891C140.211 26.1836 139.092 26.4214 136.948 26.8971Z" fill="white"/>
<path d="M146.356 24.8144C143.466 19.2851 140.669 13.6963 137.779 8.16698C139.457 7.81025 140.39 7.63188 142.068 7.27515C146.45 10.1885 148.594 11.7343 152.696 14.7665C151.204 11.2586 150.365 9.53445 148.874 6.02659C150.925 5.66986 151.95 5.4915 154.001 5.13477C156.239 10.783 158.569 16.4312 160.807 22.0795C159.315 22.3173 158.569 22.4362 157.078 22.7335C153.069 19.404 150.925 17.7987 146.543 14.5881C148.314 18.2743 149.153 20.1175 150.925 23.8631C149.153 24.2199 148.221 24.3982 146.356 24.8144Z" fill="white"/>
<path d="M164.918 21.488C162.773 15.7803 160.722 10.1321 158.578 4.42439C163.799 3.65148 166.409 3.29475 171.63 2.7002C171.91 3.65148 172.003 4.12712 172.283 5.0784C169.579 5.37568 168.274 5.55404 165.57 5.91077C166.223 7.75388 166.503 8.70516 167.062 10.5483C169.206 10.251 170.325 10.1321 172.469 9.89426C172.749 10.8455 172.935 11.3806 173.215 12.3319C171.071 12.5697 170.045 12.7481 167.901 12.9859C168.927 16.0776 169.393 17.6234 170.418 20.6556C168.274 20.9529 167.155 21.1313 164.918 21.488Z" fill="white"/>
<path d="M179.279 19.5806C177.788 13.8134 176.203 8.04627 174.711 2.33858C177.228 2.0413 178.533 1.92239 181.051 1.68457C182.356 7.63008 183.102 10.6623 184.407 16.6078C187.017 16.37 188.322 16.2511 191.026 16.0727C191.213 17.024 191.306 17.4996 191.492 18.5104C186.551 18.8671 184.127 19.1049 179.279 19.5806Z" fill="white"/>
<path d="M202.021 18.1528C200.436 18.2123 199.131 18.1528 198.012 17.9745C196.893 17.7961 196.054 17.4394 195.309 16.9637C194.656 16.4881 194.097 15.8935 193.724 15.2395C193.351 14.5855 193.071 13.7531 192.978 12.7424C192.232 8.04546 191.859 5.66725 191.113 0.970298C193.63 0.791933 194.842 0.732478 197.36 0.613568C197.919 5.48889 198.292 7.986 198.851 12.8613C198.851 13.2181 198.945 13.4559 199.038 13.6937C199.131 13.9315 199.224 14.1693 199.317 14.4666C199.411 14.7044 199.597 14.9423 199.784 15.1206C199.97 15.299 200.25 15.4179 200.623 15.4773C200.996 15.5963 201.368 15.5963 201.741 15.5963C202.208 15.5963 202.58 15.4773 202.86 15.3584C203.14 15.2395 203.42 15.0612 203.606 14.9423C203.792 14.7639 203.886 14.5261 203.979 14.2882C204.072 13.991 204.072 13.7532 204.072 13.5153C204.072 13.2775 204.072 12.9802 204.072 12.683C203.606 7.74818 203.42 5.31052 202.953 0.435203C205.471 0.316293 206.683 0.316291 209.2 0.256836C209.479 5.01325 209.573 7.332 209.759 12.0884C209.852 13.0991 209.759 13.9315 209.479 14.5855C209.293 15.299 208.827 15.8935 208.267 16.4286C207.708 16.9637 206.869 17.3799 205.843 17.6772C204.911 17.8556 203.606 18.0339 202.021 18.1528Z" fill="white"/>
<path d="M213.949 17.5626C213.856 11.736 213.669 5.90938 213.576 0.0233245C219.077 -0.0361307 221.78 0.0233249 227.188 0.142235C227.094 1.15297 227.094 1.62861 227.001 2.63935C224.111 2.57989 222.713 2.52044 219.823 2.52044C219.823 4.36355 219.823 5.31483 219.729 7.15794C221.874 7.15794 222.992 7.15794 225.137 7.21739C225.043 8.22813 225.043 8.70377 225.043 9.71451C222.899 9.65505 221.874 9.65506 219.729 9.65506C219.729 11.8549 219.636 12.9251 219.636 15.1249C222.34 15.1249 223.645 15.1844 226.349 15.2438C226.255 16.1951 226.255 16.6708 226.162 17.6815C221.314 17.5626 218.89 17.5626 213.949 17.5626Z" fill="white"/>
<path d="M229.055 17.7366C229.521 11.91 229.987 6.08344 230.453 0.256836C232.224 0.316291 233.157 0.375748 234.928 0.435203C237.352 4.18088 238.471 6.08344 240.522 9.82911C241.081 6.20235 241.361 4.4187 241.92 0.791933C244.065 0.910843 245.09 0.970298 247.234 1.14866C246.116 6.97527 245.09 12.7424 243.971 18.5096C242.48 18.3907 241.734 18.3312 240.149 18.2717C238.284 14.2882 237.259 12.2668 235.021 8.28328C234.555 12.1479 234.369 14.0504 233.903 17.915C232.038 17.8556 231.013 17.7961 229.055 17.7366Z" fill="white"/>
<path d="M255.72 19.8814C254.228 19.7031 252.923 19.4653 251.991 19.0491C250.965 18.6923 250.219 18.2167 249.753 17.6221C249.287 17.0276 248.914 16.3736 248.821 15.6601C248.728 14.9467 248.728 14.1737 248.914 13.2225C249.474 10.7848 249.66 9.53625 250.219 7.09859C250.406 6.14731 250.779 5.37439 251.152 4.66093C251.618 4.00692 252.177 3.41237 253.016 2.99618C253.855 2.52054 254.881 2.22327 256.093 2.10436C257.305 1.98545 258.797 1.98545 260.568 2.16381C262.153 2.34218 263.551 2.63945 264.577 2.99618C265.602 3.35292 266.441 3.82856 266.907 4.36365C267.374 4.89875 267.747 5.4933 267.84 6.08785C267.933 6.6824 267.84 7.39586 267.56 8.16878C267.374 8.76333 267.28 9.06061 267.094 9.65516C264.763 9.35788 263.551 9.17952 261.221 8.9417C261.407 8.28769 261.5 7.99041 261.687 7.33641C261.78 7.15804 261.78 6.97968 261.78 6.92022C261.78 6.86077 261.873 6.74186 261.873 6.56349C261.873 6.38513 261.966 6.26622 261.873 6.20676C261.873 6.14731 261.873 6.0284 261.873 5.85003C261.873 5.73112 261.78 5.61221 261.78 5.55275C261.687 5.4933 261.593 5.37439 261.5 5.31493C261.407 5.19602 261.314 5.13657 261.127 5.07711C260.941 5.01766 260.754 4.9582 260.568 4.89875C260.381 4.83929 260.102 4.77984 259.822 4.77984C259.356 4.72038 258.89 4.72038 258.517 4.77984C258.144 4.83929 257.864 4.89875 257.678 5.01766C257.491 5.13657 257.305 5.31493 257.118 5.55275C256.932 5.79058 256.839 6.0284 256.745 6.20676C256.652 6.38513 256.559 6.6824 256.559 6.97968C255.813 10.0713 255.347 11.6172 254.601 14.7088C254.415 15.5412 254.415 16.1952 254.694 16.6114C254.974 17.0276 255.534 17.3249 256.466 17.3843C256.839 17.4438 257.118 17.4438 257.398 17.3843C257.678 17.3843 257.957 17.2654 258.144 17.206C258.33 17.087 258.517 16.9681 258.61 16.8492C258.703 16.7303 258.89 16.552 258.983 16.3736C259.076 16.1358 259.169 15.9574 259.263 15.8385C259.356 15.6601 259.356 15.4818 259.449 15.1845C259.636 14.5305 259.729 14.1737 259.915 13.5197C262.246 13.7576 263.365 13.9359 265.602 14.2332C265.416 14.8278 265.323 15.125 265.136 15.6601C264.856 16.433 264.484 17.1465 264.111 17.6816C263.644 18.2167 263.085 18.7518 262.339 19.1085C261.593 19.5247 260.661 19.7625 259.636 19.8814C258.517 20.0598 257.212 20.0598 255.72 19.8814Z" fill="white"/>
<path d="M266.912 21.0714C268.87 15.3637 270.921 9.65605 272.879 4.00781C278.193 4.78073 280.896 5.19691 286.211 6.1482C285.838 7.09948 285.558 7.57512 285.185 8.5264C282.388 8.05076 280.99 7.81294 278.193 7.3373C277.447 9.12095 277.167 10.0128 276.421 11.8559C278.566 12.2126 279.591 12.391 281.736 12.7477C281.363 13.699 281.083 14.1746 280.71 15.1259C278.659 14.7692 277.633 14.5908 275.489 14.2341C274.65 16.3745 274.277 17.4447 273.438 19.5256C276.049 19.9418 277.354 20.1796 279.964 20.6553C279.591 21.6065 279.312 22.0822 278.939 22.974C274.091 22.1416 271.76 21.7254 266.912 21.0714Z" fill="white"/>
<path d="M281.637 23.5046C284.247 17.9158 286.858 12.3271 289.375 6.73828C292.451 7.33283 293.943 7.63011 297.02 8.28411C298.604 8.64084 299.91 8.99758 301.028 9.35431C302.054 9.77049 302.986 10.1867 303.639 10.7218C304.291 11.2569 304.758 11.8514 304.851 12.5054C304.944 13.1594 304.758 13.9324 304.291 14.7647C303.639 15.8349 302.893 16.6078 301.961 17.1429C301.028 17.678 299.91 17.9753 298.418 18.0348C298.138 21.6021 298.045 23.3857 297.579 26.953C295.341 26.4179 294.223 26.1801 292.078 25.645C292.451 22.375 292.638 20.7697 292.917 17.4997C292.078 17.3213 291.705 17.2618 290.96 17.0835C289.468 20.1157 288.722 21.6021 287.137 24.5748C284.993 24.0992 283.874 23.9208 281.637 23.5046ZM291.985 15.0025C292.545 15.1215 292.824 15.1809 293.477 15.2998C294.875 15.5971 295.994 15.5971 296.74 15.3593C297.579 15.1215 298.138 14.5864 298.604 13.754C299.071 12.9216 299.071 12.2676 298.791 11.792C298.511 11.3163 297.579 10.9001 296.274 10.6029C295.528 10.4245 295.155 10.365 294.409 10.2461C293.477 12.1487 292.917 13.1 291.985 15.0025Z" fill="white"/>
<path d="M135.085 85.6989C134.992 84.4503 133.5 83.4396 131.635 83.2612C130.144 83.0829 128.745 83.4396 127.906 84.0936C127.067 83.4396 125.669 83.0234 124.177 83.1423C122.312 83.2612 120.728 84.272 120.541 85.4611C120.448 86.1745 120.728 86.8285 121.287 87.3042C121.38 87.4231 121.567 87.542 121.753 87.6609L126.974 91.5255C127.347 91.7633 127.906 91.7633 128.279 91.5255L133.78 87.8393C133.966 87.7204 134.153 87.6015 134.246 87.4825C134.805 87.0069 135.178 86.4124 135.085 85.6989Z" fill="#D6D6D6"/>
<path d="M125.943 104.248C125.756 102.048 123.053 100.145 119.603 99.7884C116.9 99.4912 114.476 100.145 112.798 101.275C111.213 100.086 108.789 99.3723 106.085 99.5506C102.636 99.7884 99.8387 101.572 99.4657 103.772C99.2793 105.02 99.7454 106.21 100.864 107.161C101.144 107.399 101.424 107.577 101.703 107.755L111.119 114.771C111.679 115.187 112.798 115.247 113.45 114.831L123.426 108.112C123.705 107.934 124.078 107.755 124.265 107.518C125.383 106.685 126.036 105.496 125.943 104.248Z" fill="#D6D6D6"/>
<path d="M112.43 72.6155C112.057 68.7509 107.396 65.4809 101.429 64.8269C96.7676 64.3513 92.3859 65.4809 89.4958 67.4429C86.7921 65.362 82.5036 64.1134 77.8421 64.4107C71.7822 64.8269 66.9343 67.978 66.1885 71.7832C65.8155 73.983 66.7478 76.0639 68.6124 77.6692C69.0786 78.0854 69.5447 78.4421 70.1041 78.7394L86.6056 90.9872C87.6312 91.7601 89.4958 91.8195 90.6145 91.0466L108.048 79.334C108.608 79.0367 109.167 78.6799 109.633 78.3232C111.498 76.8368 112.617 74.8154 112.43 72.6155Z" fill="#D6D6D6"/>
<path d="M358.097 97.0477C350.453 96.8099 343.927 100.615 343.554 105.55C343.181 110.425 349.147 114.587 356.885 114.825C364.53 115.063 371.056 111.257 371.429 106.323C371.802 101.388 365.835 97.2855 358.097 97.0477ZM358.564 103.469C358.564 103.35 358.564 103.231 358.47 103.172C358.47 103.112 358.377 102.993 358.284 102.934C358.191 102.874 358.097 102.815 358.004 102.755C357.911 102.696 357.725 102.696 357.631 102.696C357.352 102.696 357.072 102.755 356.885 102.934C356.699 103.112 356.606 103.29 356.606 103.469C356.606 103.647 356.606 103.826 356.699 104.004C356.792 104.182 356.885 104.301 357.072 104.48C357.258 104.658 357.352 104.717 357.445 104.836C357.538 104.896 357.725 105.015 358.004 105.193L359.309 105.966C359.682 106.204 359.962 106.382 360.242 106.62C360.521 106.798 360.708 107.036 360.988 107.274C361.174 107.512 361.36 107.809 361.454 108.106C361.547 108.404 361.64 108.701 361.547 109.058C361.547 109.712 361.174 110.306 360.428 110.722C359.776 111.139 358.843 111.436 357.818 111.436L357.725 112.625H356.792L356.885 111.436C355.58 111.376 354.555 111.079 353.902 110.544C353.25 110.009 352.97 109.236 352.97 108.166L355.953 107.987C355.953 108.641 356.046 109.058 356.233 109.355C356.419 109.652 356.792 109.771 357.165 109.831C357.725 109.831 358.097 109.593 358.097 109.117C358.097 108.82 358.097 108.582 357.911 108.344C357.818 108.106 357.631 107.928 357.352 107.75C357.165 107.571 356.885 107.393 356.513 107.155L355.207 106.323C354.928 106.144 354.648 105.966 354.368 105.788C354.182 105.609 353.995 105.431 353.716 105.252C353.529 105.015 353.343 104.777 353.343 104.539C353.25 104.301 353.25 104.004 353.25 103.707C353.343 102.934 353.716 102.339 354.368 101.923C355.114 101.507 356.046 101.269 357.258 101.21L357.352 100.08H358.377L358.284 101.21C358.657 101.21 359.03 101.269 359.403 101.388C359.776 101.447 360.055 101.566 360.242 101.685C360.428 101.804 360.615 101.923 360.801 102.101C360.988 102.28 361.081 102.399 361.174 102.577C361.267 102.755 361.36 102.934 361.36 103.112C361.454 103.29 361.454 103.469 361.454 103.647C361.454 103.826 361.454 103.944 361.454 104.182L358.47 104.361C358.47 104.182 358.47 104.063 358.47 103.944C358.657 103.707 358.657 103.647 358.564 103.469Z" fill="#D6D6D6"/>
<path d="M401.628 74.1034C389.042 73.7467 378.32 79.9895 377.761 88.0159C377.202 96.0424 386.991 102.88 399.577 103.236C412.163 103.593 422.884 97.3504 423.443 89.3239C424.096 81.238 414.307 74.4602 401.628 74.1034ZM402.467 84.6864C402.467 84.5081 402.374 84.3297 402.374 84.2108C402.28 84.0919 402.187 83.973 402.094 83.8541C402.001 83.7352 401.814 83.6757 401.628 83.6162C401.441 83.5568 401.255 83.5568 400.975 83.5568C400.509 83.5568 400.136 83.6757 399.856 83.9135C399.577 84.1513 399.39 84.4486 399.39 84.8053C399.39 85.1026 399.39 85.3999 399.483 85.6377C399.577 85.8755 399.763 86.1728 400.043 86.4106C400.323 86.6485 400.509 86.8268 400.695 86.9457C400.882 87.0646 401.162 87.243 401.628 87.5403L403.772 88.8483C404.331 89.205 404.798 89.5618 405.264 89.859C405.637 90.1563 406.103 90.5725 406.476 90.9887C406.849 91.4049 407.128 91.8211 407.315 92.3561C407.501 92.8318 407.594 93.3669 407.501 93.902C407.408 94.9722 406.849 95.9235 405.73 96.6369C404.611 97.3504 403.213 97.7666 401.441 97.826L401.348 99.788L399.763 99.7286L399.856 97.7666C397.619 97.6477 396.034 97.172 395.009 96.2802C393.983 95.3884 393.517 94.1398 393.517 92.4156L398.365 92.0589C398.272 93.0696 398.458 93.8425 398.831 94.3182C399.204 94.7938 399.67 95.0316 400.416 95.0316C401.348 95.0316 401.907 94.6749 401.907 93.902C401.907 93.4858 401.814 93.0696 401.628 92.6534C401.441 92.2967 401.162 91.94 400.789 91.7021C400.416 91.4049 399.95 91.1076 399.297 90.7509L397.153 89.4429C396.593 89.1456 396.22 88.8483 395.848 88.551C395.475 88.3132 395.195 87.9565 394.822 87.5997C394.542 87.243 394.263 86.8268 394.169 86.4106C394.076 85.9944 393.983 85.5188 393.983 84.9837C394.076 83.7352 394.729 82.7244 395.848 82.011C397.06 81.2975 398.644 80.9408 400.602 80.8813L400.695 79.0382L402.28 79.0977L402.187 80.9408C402.84 81.0002 403.492 81.0597 404.052 81.238C404.611 81.357 405.077 81.5353 405.45 81.7137C405.823 81.892 406.103 82.1299 406.382 82.4271C406.662 82.7244 406.849 82.9622 407.035 83.2001C407.222 83.4379 407.315 83.7352 407.408 84.0324C407.501 84.3297 407.594 84.627 407.594 84.8648C407.594 85.1026 407.594 85.3999 407.594 85.6972L402.653 85.9945C402.653 85.6972 402.653 85.4594 402.653 85.281C402.467 85.1026 402.467 84.8648 402.467 84.6864Z" fill="#D6D6D6"/>
<path d="M417.289 121.367H400.135L409.458 117.502C410.577 117.027 410.95 116.075 410.204 115.362C409.458 114.648 407.966 114.41 406.848 114.886L392.49 120.713C391.745 120.415 390.905 120.297 389.973 120.297C388.482 120.297 387.176 120.713 386.244 121.367H362.75C360.886 121.367 359.301 122.377 359.301 123.567C359.301 124.756 360.886 125.766 362.75 125.766H362.937L369.09 142.414H410.857L417.01 125.766H417.196C419.061 125.766 420.646 124.756 420.646 123.567C420.739 122.377 419.154 121.367 417.289 121.367ZM377.574 138.074C377.574 138.965 376.455 139.738 374.963 139.738C373.565 139.738 372.353 139.025 372.353 138.074V129.215C372.353 128.323 373.472 127.55 374.963 127.55C376.362 127.55 377.574 128.264 377.574 129.215V138.074ZM387.549 138.074C387.549 138.965 386.43 139.738 384.939 139.738C383.54 139.738 382.328 139.025 382.328 138.074V129.215C382.328 128.323 383.447 127.55 384.939 127.55C386.337 127.55 387.549 128.264 387.549 129.215V138.074ZM397.618 138.074C397.618 138.965 396.499 139.738 395.008 139.738C393.516 139.738 392.397 139.025 392.397 138.074V129.215C392.397 128.323 393.516 127.55 395.008 127.55C396.499 127.55 397.618 128.264 397.618 129.215V138.074ZM407.687 138.074C407.687 138.965 406.568 139.738 405.076 139.738C403.585 139.738 402.466 139.025 402.466 138.074V129.215C402.466 128.323 403.585 127.55 405.076 127.55C406.568 127.55 407.687 128.264 407.687 129.215V138.074Z" fill="#D6D6D6"/>
<path d="M63.3018 96.042L20.8826 96.1609C18.9247 96.1609 17.3398 97.1716 17.3398 98.4202L17.4331 116.435C17.4331 117.684 19.018 118.694 20.9758 118.694H28.0612V123.213L35.1466 118.694L63.3951 118.635C65.3529 118.635 66.9378 117.624 66.9378 116.376L66.8445 98.3607C66.8445 97.0527 65.2597 96.042 63.3018 96.042ZM38.6893 112.987L24.5185 113.046V110.906L38.6893 110.846V112.987ZM59.8524 108.409L24.5185 108.528V106.387L59.8524 106.268V108.409ZM59.8524 103.89L24.5185 104.009V101.869L59.8524 101.75V103.89Z" fill="#D6D6D6"/>
<path d="M104.051 192.297H98.2703L99.8552 189.681C100.228 189.027 99.762 188.313 98.7365 188.016C97.7109 187.778 96.5922 188.075 96.126 188.729L93.9818 192.237H89.6932L91.2781 189.621C91.651 188.967 91.1849 188.254 90.1594 187.956C89.1339 187.719 88.0151 188.016 87.549 188.67L85.4047 192.178H78.7854C77.6667 192.178 76.8276 192.772 76.8276 193.426C76.8276 194.08 77.7599 194.675 78.7854 194.675H83.8198L82.1417 197.41H74.4969C73.3781 197.41 72.5391 198.004 72.5391 198.658C72.5391 199.372 73.4714 199.907 74.4969 199.907H80.65L78.9719 202.642C78.599 203.296 79.0651 204.009 80.0906 204.307C80.3703 204.366 80.5568 204.366 80.8365 204.366C81.6755 204.366 82.4214 204.069 82.701 203.534L84.9385 199.907H89.2271L87.549 202.642C87.176 203.296 87.6422 204.009 88.6677 204.307C88.9474 204.366 89.1339 204.366 89.4135 204.366C90.2526 204.366 90.9984 204.069 91.2781 203.534L93.5156 199.907H99.762C100.881 199.907 101.72 199.312 101.72 198.658C101.72 197.945 100.788 197.41 99.762 197.41H95.1005L96.7787 194.675H104.144C105.263 194.675 106.102 194.08 106.102 193.426C106.102 192.772 105.169 192.297 104.051 192.297ZM90.7188 197.648H86.4302L88.1083 194.913H92.3969L90.7188 197.648Z" fill="#D6D6D6"/>
<path d="M39.2517 222.624C43.8199 227.499 48.2949 231.601 48.2949 231.601C48.2949 231.601 66.4746 215.192 66.4746 208.83C66.4746 202.468 58.3637 197.236 48.2949 197.236C38.2262 197.236 30.1152 202.409 30.1152 208.83C30.1152 212.041 34.6835 217.689 39.2517 222.624ZM48.2949 214.419C43.447 214.419 39.5314 211.922 39.5314 208.83C39.5314 205.738 43.447 203.241 48.2949 203.241C53.1428 203.241 57.0585 205.738 57.0585 208.83C57.0585 211.922 53.1428 214.419 48.2949 214.419Z" fill="#D6D6D6"/>
<path d="M355.2 80.2274C354.641 80.2274 353.988 80.1085 353.522 79.8112C340.47 71.4875 319.214 71.4875 306.161 79.8112C305.229 80.4058 303.738 80.4058 302.898 79.8112C301.966 79.2167 301.966 78.2654 302.898 77.7303C310.077 73.1523 319.68 70.5957 329.842 70.5957C340.004 70.5957 349.606 73.1523 356.785 77.7303C357.717 78.3249 357.717 79.2762 356.785 79.8112C356.319 80.0491 355.759 80.2274 355.2 80.2274Z" fill="#D6D6D6"/>
<path d="M348.486 84.5082C347.927 84.5082 347.274 84.3893 346.808 84.092C342.24 81.1787 336.273 79.6329 329.84 79.6329C323.407 79.6329 317.441 81.2382 312.872 84.092C311.94 84.6866 310.448 84.6866 309.609 84.092C308.677 83.4975 308.677 82.5462 309.609 82.0111C315.017 78.5627 322.195 76.6602 329.84 76.6602C337.485 76.6602 344.664 78.5627 350.071 82.0111C351.003 82.6057 351.003 83.557 350.071 84.092C349.605 84.3299 349.045 84.5082 348.486 84.5082Z" fill="#D6D6D6"/>
<path d="M341.393 88.9664C340.833 88.9664 340.181 88.8475 339.715 88.5503C334.214 85.0424 325.357 85.0424 319.857 88.5503C318.924 89.1448 317.433 89.1448 316.594 88.5503C315.661 87.9557 315.661 87.0044 316.594 86.4693C323.866 81.8318 335.799 81.8318 343.071 86.4693C344.003 87.0639 344.003 88.0152 343.071 88.5503C342.605 88.7881 342.045 88.9664 341.393 88.9664Z" fill="#D6D6D6"/>
<path d="M329.833 98.4809C333.231 98.4809 335.986 96.724 335.986 94.5568C335.986 92.3897 333.231 90.6328 329.833 90.6328C326.435 90.6328 323.68 92.3897 323.68 94.5568C323.68 96.724 326.435 98.4809 329.833 98.4809Z" fill="#D6D6D6"/>
<path d="M233.071 33.9114C232.885 29.7495 227.571 26.4795 221.138 26.4795C215.824 26.4795 211.349 28.6793 209.764 31.6521C208.365 30.9981 206.687 30.6414 204.823 30.6414C200.068 30.6414 196.152 33.1385 196.152 36.1707C196.152 39.2029 200.068 41.7 204.823 41.7H233.071C236.427 41.7 239.224 39.9758 239.224 37.776C239.224 35.695 236.521 33.9114 233.071 33.9114Z" fill="#D6D6D6"/>
<path d="M388.036 230.946L388.409 230.173C387.57 229.994 387.011 229.697 386.731 229.281C386.452 228.865 386.452 228.33 386.731 227.676L388.689 227.854C388.503 228.27 388.409 228.568 388.503 228.746C388.596 228.924 388.689 229.103 388.969 229.162C389.342 229.222 389.621 229.103 389.715 228.805C389.808 228.627 389.808 228.449 389.808 228.33C389.808 228.151 389.715 228.032 389.621 227.914C389.528 227.795 389.435 227.616 389.248 227.438L388.596 226.784C388.409 226.606 388.316 226.487 388.223 226.368C388.13 226.249 388.036 226.13 387.943 225.952C387.85 225.773 387.85 225.595 387.85 225.476C387.85 225.297 387.943 225.119 388.036 224.941C388.223 224.465 388.689 224.108 389.248 223.93C389.808 223.752 390.46 223.692 391.3 223.811L391.672 223.098L392.325 223.217L391.952 223.93C392.232 223.989 392.418 224.049 392.605 224.168C392.791 224.287 392.978 224.346 393.071 224.465C393.164 224.584 393.257 224.643 393.351 224.822C393.444 224.941 393.444 225.06 393.444 225.179C393.444 225.297 393.444 225.416 393.444 225.535C393.444 225.654 393.444 225.773 393.351 225.892C393.351 226.011 393.257 226.13 393.257 226.249L391.3 226.07C391.3 225.952 391.393 225.892 391.393 225.773C391.393 225.714 391.486 225.654 391.486 225.535C391.486 225.476 391.486 225.357 391.486 225.357C391.486 225.298 391.486 225.238 391.393 225.179C391.393 225.119 391.3 225.06 391.3 225.06C391.206 225 391.113 225 391.02 225C390.833 224.941 390.647 225 390.46 225.06C390.274 225.119 390.181 225.238 390.181 225.357C390.088 225.476 390.088 225.595 390.088 225.714C390.088 225.833 390.088 225.952 390.181 226.07C390.274 226.189 390.274 226.249 390.367 226.308C390.46 226.368 390.46 226.487 390.647 226.606L391.3 227.26C391.486 227.438 391.579 227.616 391.766 227.735C391.859 227.914 391.952 228.032 392.045 228.27C392.139 228.449 392.139 228.627 392.139 228.865C392.139 229.043 392.045 229.281 391.952 229.459C391.766 229.876 391.393 230.173 390.833 230.411C390.274 230.648 389.621 230.708 388.969 230.589L388.596 231.362L388.036 230.946Z" fill="#D6D6D6"/>
<path d="M401.084 220.541L385.514 216.557L368.64 215.844L362.207 232.134L379.082 232.848L394.651 236.831L411.059 238.734L417.492 222.443L401.084 220.541ZM397.821 228.27C396.702 231.005 392.32 232.67 388.032 232.016C383.743 231.302 381.133 228.508 382.158 225.773C383.277 223.038 387.659 221.373 391.947 222.027C396.236 222.681 398.846 225.475 397.821 228.27Z" fill="#D6D6D6"/>
<path d="M208.742 217.388C208.742 218.28 209.861 218.993 211.259 218.993H217.04L218.811 224.166C218.811 224.285 218.811 224.404 218.904 224.523L221.515 232.43C221.608 232.728 221.794 232.965 221.981 233.263L223.286 237.008C223.845 238.673 225.617 240.041 227.947 240.695C227.574 241.111 227.295 241.586 227.295 242.121C227.295 243.667 229.253 244.916 231.677 244.916C234.101 244.916 236.058 243.667 236.058 242.121C236.058 241.765 235.965 241.467 235.779 241.17H241.932C241.745 241.467 241.652 241.765 241.652 242.121C241.652 243.667 243.61 244.916 246.034 244.916C248.458 244.916 250.416 243.667 250.416 242.121C250.416 241.765 250.322 241.467 250.136 241.17H251.814C253.213 241.17 254.331 240.457 254.331 239.565C254.331 238.673 253.213 237.96 251.814 237.96H231.21C229.626 237.96 228.32 237.246 228.041 236.295L227.668 235.284H251.161C253.865 235.284 256.103 234.095 256.662 232.43L259.272 224.523C259.366 224.344 259.366 224.166 259.366 223.988C259.366 223.096 258.527 222.263 257.221 221.847C256.755 221.669 256.196 221.609 255.543 221.609H245.288H222.913L220.955 215.842H211.166C209.861 215.783 208.742 216.496 208.742 217.388ZM227.668 224.523H250.695C252.56 224.523 253.958 225.593 253.492 226.782L252.187 230.468C251.907 231.301 250.695 231.895 249.39 231.895H229.159C227.854 231.895 226.642 231.301 226.362 230.528L224.871 226.842C224.405 225.712 225.71 224.523 227.668 224.523Z" fill="#D6D6D6"/>
</svg>
