<svg width="227" height="509" viewBox="0 0 227 509" fill="none" xmlns="http://www.w3.org/2000/svg">
<path d="M142.368 390.084C130.653 391.811 105.25 402.046 105.003 417.46C104.757 432.875 105.003 537.692 105.003 537.692H161.851L160.248 436.081C201.682 422.393 216.233 412.034 199.462 359.749" fill="#FBD1BA"/>
<path d="M151.863 431.148V453.961L160.619 459.51L160.249 436.08C185.282 427.818 200.573 420.666 204.889 404.882C197.736 424.366 151.863 431.148 151.863 431.148Z" fill="#F2C0A5"/>
<path d="M121.405 397.484L167.648 398.594C167.648 398.594 192.435 392.181 193.298 388.728L148.041 387.002L142.369 389.962C137.066 390.948 128.804 393.538 121.405 397.484Z" fill="#F2C0A5"/>
<path d="M184.048 393.66C175.786 397.606 166.291 404.882 166.291 404.882V396.003L144.464 396.866L145.327 405.868C145.327 405.868 135.092 407.595 124.98 416.35C124.98 404.389 138.175 395.633 138.175 395.633C138.175 395.633 192.31 389.714 184.048 393.66Z" fill="#F2C0A5"/>
<path d="M200.821 380.834C200.821 386.014 196.628 390.206 191.449 390.206H122.269C117.09 390.206 112.897 386.014 112.897 380.834V262.822C112.897 257.643 117.09 253.45 122.269 253.45H191.572C196.751 253.45 200.944 257.643 200.944 262.822V380.834H200.821Z" fill="#1993C7"/>
<path d="M180.844 253.45H163.95V390.083H180.844V253.45Z" fill="#1A1A1A"/>
<path opacity="0.5" d="M191.572 387.124H122.269C117.09 387.124 112.897 382.931 112.897 377.752V380.712C112.897 385.891 117.09 390.083 122.269 390.083H191.572C196.751 390.083 200.944 385.891 200.944 380.712V377.752C200.821 382.931 196.628 387.124 191.572 387.124Z" fill="#1078A6"/>
<path d="M149.274 327.439C149.274 327.932 148.904 328.426 148.288 328.426H132.38C131.887 328.426 131.394 328.056 131.394 327.439V268.371C131.394 267.878 131.764 267.385 132.38 267.385H148.288C148.781 267.385 149.274 267.755 149.274 268.371V327.439Z" fill="white"/>
<path opacity="0.5" d="M191.572 250.984H122.269C117.09 250.984 112.897 255.177 112.897 260.356V323.987H200.944V260.356C200.821 255.177 196.628 250.984 191.572 250.984Z" fill="#1078A6"/>
<path d="M149.274 379.109C149.274 379.602 148.904 380.096 148.288 380.096H132.38C131.887 380.096 131.394 379.726 131.394 379.109V340.265C131.394 339.772 131.764 339.278 132.38 339.278H148.288C148.781 339.278 149.274 339.648 149.274 340.265V379.109Z" fill="white"/>
<path d="M226.469 311.656C226.469 316.711 222.399 320.904 217.22 320.904H10.0513C4.99544 320.904 0.802734 316.835 0.802734 311.656V10.151C0.802734 5.09505 4.87212 0.902344 10.0513 0.902344H217.22C222.276 0.902344 226.469 4.97173 226.469 10.151V311.656Z" fill="#228B22"/>
<path d="M217.22 1.02637H10.0513C4.99544 1.02637 0.802734 5.09575 0.802734 10.275V14.3444C0.802734 9.28845 4.87212 5.09575 10.0513 5.09575H217.22C222.276 5.09575 226.469 9.16514 226.469 14.3444V10.275C226.469 5.09575 222.276 1.02637 217.22 1.02637Z" fill="#E3E3E3"/>
<path opacity="0.9" d="M217.219 316.836H10.0504C4.99446 316.836 0.801758 312.766 0.801758 307.587V311.656C0.801758 316.712 4.87115 320.905 10.0504 320.905H217.219C222.275 320.905 226.468 316.836 226.468 311.656V307.587C226.468 312.643 222.275 316.836 217.219 316.836Z" fill="#C9C9C9"/>
<path opacity="0.9" d="M210.806 28.7715H16.3389V292.295H210.806V28.7715Z" fill="#C9C9C9"/>
<path d="M208.341 31.2383H18.8066V289.829H208.341V31.2383Z" fill="white"/>
<path d="M121.898 305.983C121.898 310.546 118.198 314.368 113.512 314.368C108.826 314.368 105.127 310.669 105.127 305.983C105.127 301.42 108.826 297.598 113.512 297.598C118.198 297.598 121.898 301.297 121.898 305.983Z" fill="#E6E6E6"/>
<path opacity="0.9" d="M113.636 299.94C117.829 299.94 121.282 303.023 121.898 307.092C121.898 306.722 122.022 306.352 122.022 305.859C122.022 301.296 118.322 297.474 113.636 297.474C108.95 297.474 105.251 301.173 105.251 305.859C105.251 306.229 105.251 306.599 105.374 307.092C105.991 303.023 109.444 299.94 113.636 299.94Z" fill="#C9C9C9"/>
<path d="M60.5346 92.478C59.5685 92.478 58.6688 92.321 57.8356 92.0071C57.0144 91.681 56.2959 91.2281 55.68 90.6485C55.0762 90.0568 54.6052 89.3624 54.2671 88.5654C53.929 87.7684 53.7599 86.8989 53.7599 85.957C53.7599 85.015 53.929 84.1456 54.2671 83.3485C54.6052 82.5515 55.0822 81.8632 55.6981 81.2835C56.314 80.6918 57.0325 80.239 57.8537 79.925C58.6748 79.5989 59.5745 79.4359 60.5527 79.4359C61.5912 79.4359 62.5392 79.6171 63.3966 79.9793C64.254 80.3295 64.9785 80.8548 65.5703 81.5553L64.0487 82.9863C63.5898 82.4911 63.0766 82.1228 62.509 81.8813C61.9414 81.6277 61.3255 81.5009 60.6614 81.5009C59.9972 81.5009 59.3873 81.6096 58.8318 81.827C58.2884 82.0443 57.8114 82.3523 57.4008 82.7508C57.0023 83.1493 56.6883 83.6203 56.4589 84.1637C56.2415 84.7071 56.1328 85.3049 56.1328 85.957C56.1328 86.6091 56.2415 87.2068 56.4589 87.7503C56.6883 88.2937 57.0023 88.7646 57.4008 89.1631C57.8114 89.5617 58.2884 89.8696 58.8318 90.087C59.3873 90.3043 59.9972 90.413 60.6614 90.413C61.3255 90.413 61.9414 90.2923 62.509 90.0507C63.0766 89.7971 63.5898 89.4167 64.0487 88.9096L65.5703 90.3587C64.9785 91.047 64.254 91.5723 63.3966 91.9346C62.5392 92.2969 61.5852 92.478 60.5346 92.478ZM76.7387 79.6171H79.0935V92.2969H76.7387V79.6171ZM70.1814 92.2969H67.8266V79.6171H70.1814V92.2969ZM76.9198 86.8627H69.9822V84.852H76.9198V86.8627ZM84.6648 84.8882H90.9685V86.8264H84.6648V84.8882ZM84.846 90.3224H92.001V92.2969H82.4912V79.6171H91.7474V81.5915H84.846V90.3224ZM100.495 92.478C99.529 92.478 98.6293 92.321 97.7961 92.0071C96.9749 91.681 96.2564 91.2281 95.6405 90.6485C95.0367 90.0568 94.5658 89.3624 94.2276 88.5654C93.8895 87.7684 93.7204 86.8989 93.7204 85.957C93.7204 85.015 93.8895 84.1456 94.2276 83.3485C94.5658 82.5515 95.0428 81.8632 95.6586 81.2835C96.2745 80.6918 96.993 80.239 97.8142 79.925C98.6354 79.5989 99.535 79.4359 100.513 79.4359C101.552 79.4359 102.5 79.6171 103.357 79.9793C104.215 80.3295 104.939 80.8548 105.531 81.5553L104.009 82.9863C103.55 82.4911 103.037 82.1228 102.47 81.8813C101.902 81.6277 101.286 81.5009 100.622 81.5009C99.9577 81.5009 99.3479 81.6096 98.7924 81.827C98.2489 82.0443 97.7719 82.3523 97.3614 82.7508C96.9629 83.1493 96.6489 83.6203 96.4194 84.1637C96.2021 84.7071 96.0934 85.3049 96.0934 85.957C96.0934 86.6091 96.2021 87.2068 96.4194 87.7503C96.6489 88.2937 96.9629 88.7646 97.3614 89.1631C97.7719 89.5617 98.2489 89.8696 98.7924 90.087C99.3479 90.3043 99.9577 90.413 100.622 90.413C101.286 90.413 101.902 90.2923 102.47 90.0507C103.037 89.7971 103.55 89.4167 104.009 88.9096L105.531 90.3587C104.939 91.047 104.215 91.5723 103.357 91.9346C102.5 92.2969 101.546 92.478 100.495 92.478ZM109.888 89.3081L109.762 86.5185L116.409 79.6171H119.054L113.529 85.486L112.225 86.917L109.888 89.3081ZM107.787 92.2969V79.6171H110.142V92.2969H107.787ZM116.627 92.2969L111.772 86.5185L113.33 84.7977L119.38 92.2969H116.627ZM126.465 92.478C125.475 92.478 124.563 92.315 123.73 91.9889C122.896 91.6629 122.172 91.21 121.556 90.6304C120.94 90.0387 120.463 89.3503 120.125 88.5654C119.787 87.7684 119.618 86.8989 119.618 85.957C119.618 85.015 119.787 84.1516 120.125 83.3667C120.463 82.5696 120.94 81.8813 121.556 81.3017C122.172 80.7099 122.896 80.251 123.73 79.925C124.563 79.5989 125.469 79.4359 126.447 79.4359C127.437 79.4359 128.343 79.5989 129.164 79.925C129.997 80.251 130.722 80.7099 131.338 81.3017C131.953 81.8813 132.43 82.5696 132.769 83.3667C133.107 84.1516 133.276 85.015 133.276 85.957C133.276 86.8989 133.107 87.7684 132.769 88.5654C132.43 89.3624 131.953 90.0507 131.338 90.6304C130.722 91.21 129.997 91.6629 129.164 91.9889C128.343 92.315 127.443 92.478 126.465 92.478ZM126.447 90.413C127.087 90.413 127.679 90.3043 128.222 90.087C128.765 89.8696 129.236 89.5617 129.635 89.1631C130.033 88.7526 130.341 88.2816 130.559 87.7503C130.788 87.2068 130.903 86.6091 130.903 85.957C130.903 85.3049 130.788 84.7131 130.559 84.1818C130.341 83.6384 130.033 83.1674 129.635 82.7689C129.236 82.3583 128.765 82.0443 128.222 81.827C127.679 81.6096 127.087 81.5009 126.447 81.5009C125.807 81.5009 125.215 81.6096 124.672 81.827C124.14 82.0443 123.669 82.3583 123.259 82.7689C122.86 83.1674 122.546 83.6384 122.317 84.1818C122.099 84.7131 121.991 85.3049 121.991 85.957C121.991 86.597 122.099 87.1887 122.317 87.7321C122.546 88.2756 122.86 88.7526 123.259 89.1631C123.657 89.5617 124.128 89.8696 124.672 90.087C125.215 90.3043 125.807 90.413 126.447 90.413ZM141.224 92.478C139.485 92.478 138.121 91.9889 137.13 91.0108C136.152 90.0326 135.663 88.6197 135.663 86.7721V79.6171H138.018V86.6815C138.018 87.9857 138.296 88.9337 138.851 89.5254C139.419 90.1172 140.216 90.413 141.242 90.413C142.269 90.413 143.06 90.1172 143.615 89.5254C144.171 88.9337 144.448 87.9857 144.448 86.6815V79.6171H146.767V86.7721C146.767 88.6197 146.272 90.0326 145.282 91.0108C144.304 91.9889 142.951 92.478 141.224 92.478ZM152.407 92.2969V81.6096H148.205V79.6171H158.964V81.6096H154.762V92.2969H152.407Z" fill="#FBB03B"/>
<path d="M173.567 106.337H53.8281V226.076H173.567V106.337Z" stroke="#D6D6D6" stroke-width="2.17103" stroke-miterlimit="10"/>
<path d="M126.585 414.993C130.408 409.197 143.849 402.662 143.849 402.662C143.849 382.931 139.286 350.376 156.92 350.746C174.554 351.24 167.649 395.263 169.252 403.895" fill="#FBD1BA"/>
<path d="M163.456 447.426C163.456 447.426 152.357 450.139 132.997 450.262C113.76 450.015 102.538 447.426 102.538 447.426V518.825L130.9 519.318V519.442H132.997H135.093C135.093 519.442 135.093 519.442 135.093 519.318L163.456 518.825V447.426Z" fill="white"/>
<path d="M167.648 463.333C167.648 463.333 154.946 466.416 132.996 466.662C111.046 466.416 98.3447 463.333 98.3447 463.333V544.721L130.653 545.214V545.337H132.996H135.339C135.339 545.337 135.339 545.337 135.339 545.214L167.648 544.721V463.333Z" fill="#1077A3"/>
<path d="M157.659 354.199C151.74 354.199 148.78 359.255 150.137 372.573C158.892 373.93 164.935 371.833 164.935 371.833C164.935 371.833 166.044 354.199 157.659 354.199Z" fill="#FBE3D5"/>
<path d="M151.863 372.82C157.289 373.437 161.482 372.697 163.578 372.203C160.619 368.381 155.069 368.381 151.863 372.82Z" fill="#FBEBE2"/>
<path d="M171.595 62.0674H55.6787V69.5896H171.595V62.0674Z" fill="#D6D6D6"/>
<path d="M171.595 46.4053H55.6787V53.9275H171.595V46.4053Z" fill="#D6D6D6"/>
<path d="M171.595 255.055H55.6787V262.577H171.595V255.055Z" fill="#D6D6D6"/>
<path d="M151.864 239.394H55.6787V246.916H151.864V239.394Z" fill="#D6D6D6"/>
<path d="M126.585 270.715H55.6787V278.237H126.585V270.715Z" fill="#D6D6D6"/>
<path d="M151.741 140.372L100.195 192.041L75.4092 167.378" stroke="#8CC63F" stroke-width="14.1117" stroke-miterlimit="10"/>
</svg>
