<svg width="257" height="257" viewBox="0 0 257 257" fill="none" xmlns="http://www.w3.org/2000/svg">
<path opacity="0.81" d="M222.327 246.481H92.6412C90.1816 246.481 88.1523 243.614 88.1523 240.139V95.9184C88.1523 92.4432 90.1816 89.5762 92.6412 89.5762H222.327C224.786 89.5762 226.815 92.4432 226.815 95.9184V240.139C226.815 243.614 224.786 246.481 222.327 246.481Z" fill="#DDDDDD"/>
<path d="M219.062 240.84H89.315C86.8554 240.84 84.8262 237.973 84.8262 234.498V90.3647C84.8262 86.8895 86.8554 84.0225 89.315 84.0225H219C221.46 84.0225 223.489 86.8895 223.489 90.3647V234.585C223.489 238.06 221.521 240.84 219.062 240.84Z" fill="#DDDDDD"/>
<path d="M223.469 97.2125H84.8672V87.2213C84.8672 85.3969 85.9125 83.9199 87.2039 83.9199H221.194C222.485 83.9199 223.53 85.3969 223.53 87.2213V97.2125H223.469Z" fill="#C2C4C4"/>
<path d="M221.55 102.855H87.5605V235.695H221.55V102.855Z" fill="white"/>
<path d="M95.4742 90.3648C95.4742 92.2762 94.4903 93.84 93.199 93.84C91.9692 93.84 90.9238 92.2762 90.9238 90.3648C90.9238 88.4535 91.9077 86.8896 93.199 86.8896C94.4903 86.8896 95.4742 88.4535 95.4742 90.3648Z" fill="#DDDDDD"/>
<path d="M103.552 90.3648C103.552 92.2762 102.568 93.84 101.277 93.84C100.047 93.84 99.002 92.2762 99.002 90.3648C99.002 88.4535 99.9858 86.8896 101.277 86.8896C102.568 86.8896 103.552 88.4535 103.552 90.3648Z" fill="#DDDDDD"/>
<path d="M110.882 90.3648C110.882 92.2762 109.899 93.84 108.607 93.84C107.377 93.84 106.332 92.2762 106.332 90.3648C106.332 88.4535 107.316 86.8896 108.607 86.8896C109.899 86.8896 110.882 88.4535 110.882 90.3648Z" fill="#DDDDDD"/>
<path d="M210.437 229.633H80.69C78.2304 229.633 76.2012 226.766 76.2012 223.291V79.0707C76.2012 75.5956 78.2304 72.7285 80.69 72.7285H210.375C212.835 72.7285 214.864 75.5956 214.864 79.0707V223.291C214.926 226.853 212.896 229.633 210.437 229.633Z" fill="#DDDDDD"/>
<path d="M214.948 86.0211H76.2852V76.0299C76.2852 74.2055 77.3305 72.7285 78.6218 72.7285H212.612C213.903 72.7285 214.948 74.2055 214.948 76.0299V86.0211Z" fill="#C2C4C4"/>
<path d="M213.039 91.6641H79.0488V224.503H213.039V91.6641Z" fill="white"/>
<path d="M86.9117 79.1549C86.9117 81.0662 85.9278 82.6301 84.6365 82.6301C83.4067 82.6301 82.3613 81.0662 82.3613 79.1549C82.3613 77.2435 83.3452 75.6797 84.6365 75.6797C85.8663 75.6797 86.9117 77.2435 86.9117 79.1549Z" fill="#DDDDDD"/>
<path d="M94.941 79.1549C94.941 81.0662 93.9571 82.6301 92.6658 82.6301C91.436 82.6301 90.3906 81.0662 90.3906 79.1549C90.3906 77.2435 91.3745 75.6797 92.6658 75.6797C93.8956 75.6797 94.941 77.2435 94.941 79.1549Z" fill="#DDDDDD"/>
<path d="M102.351 79.1549C102.351 81.0662 101.367 82.6301 100.076 82.6301C98.7846 82.6301 97.8008 81.0662 97.8008 79.1549C97.8008 77.2435 98.7846 75.6797 100.076 75.6797C101.367 75.6797 102.351 77.2435 102.351 79.1549Z" fill="#DDDDDD"/>
<path d="M200.843 214.68H59.105C56.5223 214.68 54.4316 211.726 54.4316 208.077V64.4652C54.4316 60.8162 56.5223 57.8623 59.105 57.8623H200.843C203.425 57.8623 205.516 60.8162 205.516 64.4652V208.164C205.516 211.813 203.425 214.68 200.843 214.68Z" fill="#DDDDDD"/>
<path d="M205.516 71.0641H54.4316V61.1598C54.4316 59.2484 55.5385 57.7715 56.8298 57.7715H203.118C204.471 57.7715 205.516 59.3353 205.516 61.1598V71.0641Z" fill="#C2C4C4"/>
<path d="M203.47 76.7188H57.4277V209.558H203.47V76.7188Z" fill="white"/>
<path d="M66.0541 64.1978C66.0541 66.1092 64.9472 67.673 63.5944 67.673C62.2416 67.673 61.1348 66.1092 61.1348 64.1978C61.1348 62.2865 62.2416 60.7227 63.5944 60.7227C64.9472 60.7227 66.0541 62.2865 66.0541 64.1978Z" fill="#DDDDDD"/>
<path d="M74.7884 64.1978C74.7884 66.1092 73.6816 67.673 72.3288 67.673C70.976 67.673 69.8691 66.1092 69.8691 64.1978C69.8691 62.2865 70.976 60.7227 72.3288 60.7227C73.7431 60.7227 74.7884 62.2865 74.7884 64.1978Z" fill="#DDDDDD"/>
<path d="M82.8451 64.1978C82.8451 66.1092 81.7382 67.673 80.3854 67.673C79.0326 67.673 77.9258 66.1092 77.9258 64.1978C77.9258 62.2865 79.0326 60.7227 80.3854 60.7227C81.7382 60.7227 82.8451 62.2865 82.8451 64.1978Z" fill="#DDDDDD"/>
<g opacity="0.81">
<path d="M171.962 101.302H101.739C98.5412 101.302 96.5735 96.5238 98.1108 92.6142L129.471 16.3338C132.116 9.81777 138.818 9.64401 141.647 16.0731L175.467 92.4404C177.189 96.35 175.221 101.302 171.962 101.302Z" fill="#DDDDDD"/>
<path d="M171.832 101.287H99.5185C96.2595 101.287 94.1688 96.2482 95.829 92.2517L128.112 12.7567C130.879 5.98009 137.766 5.80634 140.656 12.4961L175.522 92.1648C177.244 96.0744 175.153 101.287 171.832 101.287Z" fill="#DDDDDD"/>
</g>
<path d="M164.192 93.7572H93.9693C90.7717 93.7572 88.804 88.9788 90.3413 85.0692L121.702 8.78883C124.346 2.27284 131.049 2.09909 133.877 8.52819L167.697 84.8955C169.419 88.8051 167.451 93.7572 164.192 93.7572Z" fill="#FE2B2B"/>
<path d="M126.723 6.16846C127.215 6.16846 128.445 6.34222 129.244 8.1667L163.987 87.5748H92.0418L124.202 8.25358C124.94 6.34222 126.231 6.16846 126.723 6.16846ZM126.723 0C124.263 0 121.804 1.7376 120.389 5.21279L88.1064 84.7078C86.4461 88.7042 88.5368 93.7432 91.7959 93.7432H164.11C167.43 93.7432 169.521 88.5305 167.738 84.534L132.872 4.86526C131.519 1.56383 129.121 0 126.723 0Z" fill="white"/>
<path d="M127.124 65.6627C125.648 65.6627 124.418 63.9251 124.418 61.84V28.9995C124.418 26.9143 125.648 25.1768 127.124 25.1768C128.599 25.1768 129.829 26.9143 129.829 28.9995V61.84C129.829 63.9251 128.599 65.6627 127.124 65.6627Z" fill="white"/>
<path d="M127.112 78.2778C125.39 78.2778 124.037 76.2796 124.037 73.9338C124.037 71.5012 125.451 69.5898 127.112 69.5898C128.833 69.5898 130.186 71.5881 130.186 73.9338C130.186 76.2796 128.772 78.2778 127.112 78.2778Z" fill="white"/>
<path opacity="0.81" d="M57.5638 113.73H13.2285C9.10859 113.73 5.72656 108.951 5.72656 103.13V100.35C5.72656 94.5294 9.10859 89.751 13.2285 89.751H57.5638C61.6837 89.751 65.0657 94.5294 65.0657 100.35V103.13C65.1272 108.951 61.7452 113.73 57.5638 113.73Z" fill="#DDDDDD"/>
<path d="M56.2728 109.988H11.9375C7.81757 109.988 4.43555 105.209 4.43555 99.3883V96.6081C4.43555 90.7872 7.81757 86.0088 11.9375 86.0088H56.2728C60.3927 86.0088 63.7747 90.7872 63.7747 96.6081V99.3883C63.7747 105.209 60.3927 109.988 56.2728 109.988Z" fill="#DB5656"/>
<path d="M13.832 89.2063H13.551C13.5344 89.1255 13.5053 89.0545 13.4637 88.9933C13.4229 88.9321 13.3731 88.8807 13.3142 88.8392C13.256 88.7969 13.1914 88.7651 13.1204 88.744C13.0494 88.7228 12.9754 88.7123 12.8983 88.7123C12.7578 88.7123 12.6305 88.7478 12.5164 88.8188C12.4031 88.8898 12.3129 88.9944 12.2456 89.1327C12.1791 89.2709 12.1459 89.4405 12.1459 89.6414C12.1459 89.8424 12.1791 90.012 12.2456 90.1502C12.3129 90.2885 12.4031 90.3931 12.5164 90.4641C12.6305 90.5351 12.7578 90.5706 12.8983 90.5706C12.9754 90.5706 13.0494 90.56 13.1204 90.5389C13.1914 90.5177 13.256 90.4864 13.3142 90.4448C13.3731 90.4025 13.4229 90.3508 13.4637 90.2896C13.5053 90.2276 13.5344 90.1566 13.551 90.0766H13.832C13.8109 90.1952 13.7723 90.3013 13.7164 90.395C13.6605 90.4886 13.591 90.5683 13.5079 90.6341C13.4248 90.699 13.3315 90.7485 13.228 90.7825C13.1253 90.8165 13.0154 90.8335 12.8983 90.8335C12.7004 90.8335 12.5244 90.7851 12.3703 90.6884C12.2162 90.5918 12.0949 90.4543 12.0065 90.276C11.9182 90.0977 11.874 89.8862 11.874 89.6414C11.874 89.3967 11.9182 89.1852 12.0065 89.0069C12.0949 88.8286 12.2162 88.6911 12.3703 88.5944C12.5244 88.4977 12.7004 88.4494 12.8983 88.4494C13.0154 88.4494 13.1253 88.4664 13.228 88.5004C13.3315 88.5344 13.4248 88.5842 13.5079 88.6499C13.591 88.7149 13.6605 88.7942 13.7164 88.8879C13.7723 88.9808 13.8109 89.087 13.832 89.2063ZM14.3813 90.8018H14.0867L14.9388 88.4811H15.2289L16.081 90.8018H15.7864L15.0929 88.8482H15.0748L14.3813 90.8018ZM14.4901 89.8953H15.6776V90.1445H14.4901V89.8953ZM18.2827 88.4811V90.8018H18.0107L16.7461 88.9797H16.7235V90.8018H16.4425V88.4811H16.7144L17.9835 90.3077H18.0062V88.4811H18.2827ZM20.7124 89.2063H20.4314C20.4147 89.1255 20.3856 89.0545 20.3441 88.9933C20.3033 88.9321 20.2535 88.8807 20.1945 88.8392C20.1364 88.7969 20.0718 88.7651 20.0008 88.744C19.9298 88.7228 19.8557 88.7123 19.7787 88.7123C19.6382 88.7123 19.5109 88.7478 19.3968 88.8188C19.2835 88.8898 19.1932 88.9944 19.126 89.1327C19.0595 89.2709 19.0263 89.4405 19.0263 89.6414C19.0263 89.8424 19.0595 90.012 19.126 90.1502C19.1932 90.2885 19.2835 90.3931 19.3968 90.4641C19.5109 90.5351 19.6382 90.5706 19.7787 90.5706C19.8557 90.5706 19.9298 90.56 20.0008 90.5389C20.0718 90.5177 20.1364 90.4864 20.1945 90.4448C20.2535 90.4025 20.3033 90.3508 20.3441 90.2896C20.3856 90.2276 20.4147 90.1566 20.4314 90.0766H20.7124C20.6912 90.1952 20.6527 90.3013 20.5968 90.395C20.5409 90.4886 20.4714 90.5683 20.3883 90.6341C20.3052 90.699 20.2119 90.7485 20.1084 90.7825C20.0057 90.8165 19.8958 90.8335 19.7787 90.8335C19.5808 90.8335 19.4047 90.7851 19.2506 90.6884C19.0965 90.5918 18.9753 90.4543 18.8869 90.276C18.7985 90.0977 18.7543 89.8862 18.7543 89.6414C18.7543 89.3967 18.7985 89.1852 18.8869 89.0069C18.9753 88.8286 19.0965 88.6911 19.2506 88.5944C19.4047 88.4977 19.5808 88.4494 19.7787 88.4494C19.8958 88.4494 20.0057 88.4664 20.1084 88.5004C20.2119 88.5344 20.3052 88.5842 20.3883 88.6499C20.4714 88.7149 20.5409 88.7942 20.5968 88.8879C20.6527 88.9808 20.6912 89.087 20.7124 89.2063ZM21.1665 90.8018V88.4811H22.567V88.7304H21.4475V89.5145H22.4945V89.7638H21.4475V90.5525H22.5851V90.8018H21.1665ZM23.0735 90.8018V88.4811H23.3545V90.5525H24.4333V90.8018H23.0735Z" fill="white"/>
<path opacity="0.81" d="M160.764 255.573H114.584C109.973 255.573 106.16 250.186 106.16 243.67V239.066C106.16 232.55 109.973 227.163 114.584 227.163H160.764C165.376 227.163 169.189 232.55 169.189 239.066V243.67C169.189 250.186 165.438 255.573 160.764 255.573Z" fill="#DDDDDD"/>
<path d="M112.374 248.798C107.7 248.798 103.949 243.412 103.949 236.896V234.115C103.949 227.513 107.762 222.213 112.374 222.213H156.709C161.382 222.213 165.133 227.599 165.133 234.115V236.896C165.133 243.498 161.321 248.798 156.709 248.798H112.374Z" fill="#DB5656"/>
<path d="M156.729 223.437C160.849 223.437 164.231 228.216 164.231 234.037V236.817C164.231 242.638 160.849 247.416 156.729 247.416H112.394C108.274 247.416 104.892 242.638 104.892 236.817V234.037C104.892 228.216 108.274 223.437 112.394 223.437H156.729ZM156.729 220.831H112.394C107.228 220.831 103.047 226.739 103.047 234.037V236.817C103.047 244.115 107.228 250.023 112.394 250.023H156.729C161.894 250.023 166.076 244.115 166.076 236.817V234.037C166.137 226.826 161.894 220.831 156.729 220.831Z" fill="#DB5656"/>
<path d="M115.918 226.733H115.637C115.62 226.652 115.591 226.581 115.55 226.52C115.509 226.458 115.459 226.407 115.4 226.366C115.342 226.323 115.277 226.292 115.206 226.27C115.135 226.249 115.061 226.239 114.984 226.239C114.844 226.239 114.716 226.274 114.602 226.345C114.489 226.416 114.399 226.521 114.332 226.659C114.265 226.797 114.232 226.967 114.232 227.168C114.232 227.369 114.265 227.538 114.332 227.677C114.399 227.815 114.489 227.919 114.602 227.99C114.716 228.061 114.844 228.097 114.984 228.097C115.061 228.097 115.135 228.086 115.206 228.065C115.277 228.044 115.342 228.013 115.4 227.971C115.459 227.929 115.509 227.877 115.55 227.816C115.591 227.754 115.62 227.683 115.637 227.603H115.918C115.897 227.722 115.858 227.828 115.802 227.921C115.746 228.015 115.677 228.095 115.594 228.16C115.511 228.225 115.417 228.275 115.314 228.309C115.211 228.343 115.101 228.36 114.984 228.36C114.786 228.36 114.61 228.312 114.456 228.215C114.302 228.118 114.181 227.981 114.092 227.802C114.004 227.624 113.96 227.413 113.96 227.168C113.96 226.923 114.004 226.712 114.092 226.533C114.181 226.355 114.302 226.217 114.456 226.121C114.61 226.024 114.786 225.976 114.984 225.976C115.101 225.976 115.211 225.993 115.314 226.027C115.417 226.061 115.511 226.111 115.594 226.176C115.677 226.241 115.746 226.321 115.802 226.414C115.858 226.507 115.897 226.613 115.918 226.733ZM116.467 228.328H116.173L117.025 226.007H117.315L118.167 228.328H117.872L117.179 226.375H117.161L116.467 228.328ZM116.576 227.422H117.764V227.671H116.576V227.422ZM120.369 226.007V228.328H120.097L118.832 226.506H118.809V228.328H118.528V226.007H118.8L120.069 227.834H120.092V226.007H120.369ZM122.798 226.733H122.517C122.501 226.652 122.472 226.581 122.43 226.52C122.389 226.458 122.339 226.407 122.28 226.366C122.222 226.323 122.158 226.292 122.087 226.27C122.016 226.249 121.942 226.239 121.865 226.239C121.724 226.239 121.597 226.274 121.483 226.345C121.369 226.416 121.279 226.521 121.212 226.659C121.145 226.797 121.112 226.967 121.112 227.168C121.112 227.369 121.145 227.538 121.212 227.677C121.279 227.815 121.369 227.919 121.483 227.99C121.597 228.061 121.724 228.097 121.865 228.097C121.942 228.097 122.016 228.086 122.087 228.065C122.158 228.044 122.222 228.013 122.28 227.971C122.339 227.929 122.389 227.877 122.43 227.816C122.472 227.754 122.501 227.683 122.517 227.603H122.798C122.777 227.722 122.739 227.828 122.683 227.921C122.627 228.015 122.557 228.095 122.474 228.16C122.391 228.225 122.298 228.275 122.194 228.309C122.092 228.343 121.982 228.36 121.865 228.36C121.667 228.36 121.491 228.312 121.337 228.215C121.182 228.118 121.061 227.981 120.973 227.802C120.884 227.624 120.84 227.413 120.84 227.168C120.84 226.923 120.884 226.712 120.973 226.533C121.061 226.355 121.182 226.217 121.337 226.121C121.491 226.024 121.667 225.976 121.865 225.976C121.982 225.976 122.092 225.993 122.194 226.027C122.298 226.061 122.391 226.111 122.474 226.176C122.557 226.241 122.627 226.321 122.683 226.414C122.739 226.507 122.777 226.613 122.798 226.733ZM123.252 228.328V226.007H124.653V226.257H123.533V227.041H124.58V227.29H123.533V228.079H124.671V228.328H123.252ZM125.159 228.328V226.007H125.44V228.079H126.519V228.328H125.159Z" fill="white"/>
<path d="M75.9696 108.459H74.1419L72.9477 103.829H74.5074L75.1248 107.232H75.1654L75.8234 103.829H77.3506L78.0249 107.232H78.0493L78.6748 103.829H80.1695L78.9753 108.459H77.1557L76.6033 105.502H76.5545L75.9696 108.459ZM83.1479 107.444H81.7994L81.5557 108.459H80.061L81.5557 103.829H83.4647L84.8945 108.459H83.3916L83.1479 107.444ZM82.4656 104.828L81.9863 106.542H82.953L82.4981 104.828H82.4656ZM89.5145 108.459H87.9792L87.703 107.289C87.6921 107.246 87.6732 107.173 87.6461 107.07C87.6245 106.962 87.5974 106.883 87.5649 106.834C87.5324 106.78 87.4864 106.745 87.4268 106.729C87.2751 106.734 87.0531 106.737 86.7607 106.737V108.459H85.2984V103.869C85.9537 103.82 86.5657 103.796 87.1343 103.796C87.6488 103.796 88.0658 103.839 88.3853 103.926C88.7049 104.007 88.9432 104.151 89.1002 104.357C89.2627 104.557 89.3439 104.833 89.3439 105.185C89.3439 105.516 89.2681 105.776 89.1165 105.965C88.9648 106.149 88.7211 106.26 88.3853 106.298V106.347C88.5749 106.363 88.732 106.425 88.8565 106.534C88.9865 106.637 89.0731 106.769 89.1165 106.932L89.5145 108.459ZM86.7607 105.819C86.8094 105.824 86.9042 105.827 87.045 105.827C87.462 105.827 87.7057 105.792 87.7761 105.721C87.8411 105.656 87.8736 105.505 87.8736 105.266C87.8736 105.044 87.814 104.893 87.6949 104.812C87.5811 104.73 87.3916 104.69 87.1262 104.69C87.0666 104.69 86.9448 104.695 86.7607 104.706V105.819ZM91.3673 106.591V108.459H90.0107V103.829H91.3835L92.6102 105.697C92.7943 105.973 92.9351 106.206 93.0326 106.396H93.057V105.616V103.829H94.4055V108.459H93.0245L91.7653 106.509L91.3998 105.957H91.3754L91.3673 106.591ZM95.215 103.829H96.6772V108.459H95.215V103.829ZM98.8561 106.591V108.459H97.4995V103.829H98.8724L100.099 105.697C100.283 105.973 100.424 106.206 100.521 106.396H100.546V105.616V103.829H101.894V108.459H100.513L99.2542 106.509L98.8886 105.957H98.8642L98.8561 106.591ZM106.741 105.892V108.207C106.378 108.326 106.034 108.413 105.709 108.467C105.385 108.521 105.111 108.548 104.889 108.548C104.152 108.548 103.576 108.356 103.159 107.972C102.742 107.587 102.533 106.997 102.533 106.201C102.533 105.388 102.753 104.782 103.191 104.381C103.63 103.975 104.247 103.772 105.043 103.772C105.46 103.772 105.961 103.834 106.546 103.959C106.546 104.067 106.535 104.229 106.514 104.446C106.492 104.657 106.47 104.806 106.449 104.893L106.156 104.885C105.799 104.874 105.52 104.868 105.32 104.868C104.718 104.868 104.391 104.904 104.337 104.974C104.25 105.077 104.188 105.237 104.15 105.453C104.117 105.67 104.101 105.878 104.101 106.079C104.101 106.442 104.142 106.723 104.223 106.924C104.304 107.124 104.429 107.265 104.597 107.346C104.764 107.427 104.992 107.468 105.279 107.468H105.311V105.892H106.741Z" fill="#F37D4F"/>
<path d="M72.8194 148.647H72.5846L73.2638 146.798H73.495L74.1742 148.647H73.9394L73.3866 147.09H73.3722L72.8194 148.647ZM72.9061 147.925H73.8527V148.124H72.9061V147.925ZM74.4623 148.647V146.798H74.6863V148.449H75.5462V148.647H74.4623ZM75.893 148.647V146.798H77.0094V146.996H76.117V147.621H76.9516V147.82H76.117V148.449H77.0239V148.647H75.893ZM77.4131 148.647V146.798H78.0382C78.1827 146.798 78.3013 146.822 78.394 146.872C78.4868 146.921 78.5554 146.988 78.6 147.073C78.6445 147.159 78.6668 147.256 78.6668 147.365C78.6668 147.474 78.6445 147.571 78.6 147.655C78.5554 147.739 78.4871 147.805 78.3949 147.854C78.3028 147.901 78.1851 147.925 78.0418 147.925H77.536V147.723H78.0345C78.1333 147.723 78.2128 147.708 78.273 147.679C78.3338 147.65 78.3778 147.609 78.4049 147.556C78.4326 147.503 78.4464 147.439 78.4464 147.365C78.4464 147.291 78.4326 147.226 78.4049 147.171C78.3772 147.115 78.3329 147.073 78.2721 147.042C78.2113 147.012 78.1309 146.996 78.0309 146.996H77.6371V148.647H77.4131ZM78.2838 147.817L78.7391 148.647H78.4789L78.0309 147.817H78.2838ZM78.9389 146.996V146.798H80.3262V146.996H79.7446V148.647H79.5206V146.996H78.9389ZM80.874 148.395L80.8596 148.492C80.8493 148.561 80.8337 148.634 80.8126 148.712C80.7921 148.791 80.7708 148.865 80.7485 148.934C80.7262 149.003 80.7078 149.058 80.6934 149.099H80.5308C80.5386 149.061 80.5489 149.01 80.5615 148.946C80.5742 148.883 80.5868 148.812 80.5994 148.734C80.6127 148.656 80.6235 148.577 80.632 148.496L80.6428 148.395H80.874ZM82.0891 146.798L82.6382 148.355H82.6599L83.2091 146.798H83.4439L82.7647 148.647H82.5334L81.8542 146.798H82.0891ZM83.956 146.798V148.647H83.732V146.798H83.956ZM84.4051 148.647V146.798H85.0302C85.1747 146.798 85.2933 146.822 85.386 146.872C85.4787 146.921 85.5474 146.988 85.592 147.073C85.6365 147.159 85.6588 147.256 85.6588 147.365C85.6588 147.474 85.6365 147.571 85.592 147.655C85.5474 147.739 85.4791 147.805 85.3869 147.854C85.2948 147.901 85.1771 147.925 85.0338 147.925H84.528V147.723H85.0265C85.1253 147.723 85.2048 147.708 85.265 147.679C85.3258 147.65 85.3698 147.609 85.3969 147.556C85.4246 147.503 85.4384 147.439 85.4384 147.365C85.4384 147.291 85.4246 147.226 85.3969 147.171C85.3692 147.115 85.3249 147.073 85.2641 147.042C85.2033 147.012 85.1229 146.996 85.0229 146.996H84.6291V148.647H84.4051ZM85.2758 147.817L85.731 148.647H85.4709L85.0229 147.817H85.2758ZM87.246 146.798H87.47V148.022C87.47 148.149 87.4402 148.262 87.3805 148.361C87.3215 148.46 87.2381 148.538 87.1303 148.595C87.0226 148.652 86.8961 148.68 86.751 148.68C86.6059 148.68 86.4794 148.652 86.3717 148.595C86.2639 148.538 86.1802 148.46 86.1206 148.361C86.0615 148.262 86.032 148.149 86.032 148.022V146.798H86.256V148.004C86.256 148.095 86.2759 148.175 86.3157 148.246C86.3554 148.315 86.412 148.37 86.4855 148.411C86.5595 148.451 86.648 148.47 86.751 148.47C86.854 148.47 86.9425 148.451 87.0165 148.411C87.0906 148.37 87.1472 148.315 87.1863 148.246C87.2261 148.175 87.246 148.095 87.246 148.004V146.798ZM88.9289 147.26C88.918 147.169 88.8741 147.098 88.797 147.047C88.7199 146.996 88.6254 146.971 88.5134 146.971C88.4315 146.971 88.3598 146.984 88.2984 147.011C88.2376 147.037 88.19 147.074 88.1557 147.12C88.122 147.166 88.1051 147.219 88.1051 147.278C88.1051 147.328 88.1169 147.37 88.1404 147.406C88.1645 147.44 88.1952 147.47 88.2325 147.493C88.2698 147.516 88.309 147.535 88.3499 147.55C88.3909 147.565 88.4285 147.576 88.4628 147.585L88.6507 147.636C88.6989 147.649 88.7524 147.666 88.8115 147.688C88.8711 147.711 88.928 147.741 88.9822 147.779C89.037 147.817 89.0821 147.866 89.1176 147.926C89.1532 147.985 89.1709 148.059 89.1709 148.145C89.1709 148.245 89.1447 148.336 89.0924 148.416C89.0406 148.497 88.9647 148.561 88.8647 148.609C88.7654 148.656 88.6447 148.68 88.5026 148.68C88.3701 148.68 88.2554 148.659 88.1584 148.616C88.0621 148.573 87.9862 148.513 87.9308 148.437C87.876 148.361 87.845 148.272 87.8378 148.171H88.069C88.075 148.24 88.0985 148.298 88.1395 148.344C88.181 148.389 88.2334 148.423 88.2966 148.445C88.3604 148.467 88.4291 148.478 88.5026 148.478C88.5881 148.478 88.6648 148.464 88.7329 148.436C88.8009 148.408 88.8548 148.369 88.8945 148.319C88.9343 148.268 88.9542 148.209 88.9542 148.142C88.9542 148.08 88.937 148.03 88.9027 147.992C88.8684 147.953 88.8232 147.922 88.7672 147.898C88.7112 147.874 88.6507 147.853 88.5857 147.835L88.358 147.77C88.2135 147.728 88.0991 147.669 88.0148 147.592C87.9305 147.515 87.8884 147.414 87.8884 147.289C87.8884 147.185 87.9164 147.095 87.9724 147.018C88.029 146.94 88.1048 146.88 88.2 146.837C88.2957 146.794 88.4026 146.772 88.5206 146.772C88.6398 146.772 88.7458 146.794 88.8385 146.837C88.9313 146.879 89.0047 146.936 89.0589 147.01C89.1137 147.083 89.1426 147.167 89.1456 147.26H88.9289ZM90.8254 148.647H90.2546V146.798H90.8507C91.0301 146.798 91.1837 146.835 91.3113 146.909C91.439 146.982 91.5368 147.088 91.6049 147.226C91.6729 147.363 91.7069 147.527 91.7069 147.719C91.7069 147.912 91.6726 148.078 91.604 148.217C91.5353 148.355 91.4354 148.462 91.3041 148.536C91.1728 148.61 91.0133 148.647 90.8254 148.647ZM90.4786 148.449H90.8109C90.9639 148.449 91.0906 148.419 91.1912 148.36C91.2918 148.301 91.3667 148.217 91.4161 148.108C91.4655 147.999 91.4902 147.869 91.4902 147.719C91.4902 147.57 91.4658 147.441 91.417 147.333C91.3682 147.225 91.2954 147.142 91.1984 147.084C91.1015 147.026 90.9807 146.996 90.8362 146.996H90.4786V148.449ZM92.0827 148.647V146.798H93.199V146.996H92.3067V147.621H93.1412V147.82H92.3067V148.449H93.2135V148.647H92.0827ZM93.5016 146.996V146.798H94.8889V146.996H94.3073V148.647H94.0833V146.996H93.5016ZM95.2346 148.647V146.798H96.351V146.996H95.4586V147.621H96.2932V147.82H95.4586V148.449H96.3655V148.647H95.2346ZM98.2433 147.376H98.0193C98.006 147.311 97.9828 147.255 97.9497 147.206C97.9172 147.157 97.8774 147.116 97.8305 147.083C97.7841 147.049 97.7326 147.024 97.676 147.007C97.6194 146.99 97.5604 146.982 97.499 146.982C97.387 146.982 97.2855 147.01 97.1946 147.067C97.1043 147.123 97.0323 147.207 96.9788 147.317C96.9258 147.427 96.8993 147.562 96.8993 147.723C96.8993 147.883 96.9258 148.018 96.9788 148.128C97.0323 148.238 97.1043 148.322 97.1946 148.378C97.2855 148.435 97.387 148.463 97.499 148.463C97.5604 148.463 97.6194 148.455 97.676 148.438C97.7326 148.421 97.7841 148.396 97.8305 148.363C97.8774 148.329 97.9172 148.288 97.9497 148.239C97.9828 148.19 98.006 148.133 98.0193 148.069H98.2433C98.2264 148.164 98.1957 148.249 98.1511 148.323C98.1066 148.398 98.0512 148.461 97.9849 148.514C97.9187 148.566 97.8443 148.605 97.7618 148.632C97.6799 148.659 97.5923 148.673 97.499 148.673C97.3412 148.673 97.2009 148.634 97.0781 148.557C96.9553 148.48 96.8586 148.37 96.7882 148.228C96.7177 148.086 96.6825 147.918 96.6825 147.723C96.6825 147.527 96.7177 147.359 96.7882 147.217C96.8586 147.075 96.9553 146.965 97.0781 146.888C97.2009 146.811 97.3412 146.772 97.499 146.772C97.5923 146.772 97.6799 146.786 97.7618 146.813C97.8443 146.84 97.9187 146.88 97.9849 146.932C98.0512 146.984 98.1066 147.047 98.1511 147.122C98.1957 147.196 98.2264 147.281 98.2433 147.376ZM98.5041 146.996V146.798H99.8914V146.996H99.3097V148.647H99.0857V146.996H98.5041ZM100.237 148.647V146.798H101.353V146.996H100.461V147.621H101.296V147.82H100.461V148.449H101.368V148.647H100.237ZM102.328 148.647H101.757V146.798H102.353C102.533 146.798 102.686 146.835 102.814 146.909C102.942 146.982 103.039 147.088 103.108 147.226C103.176 147.363 103.21 147.527 103.21 147.719C103.21 147.912 103.175 148.078 103.107 148.217C103.038 148.355 102.938 148.462 102.807 148.536C102.675 148.61 102.516 148.647 102.328 148.647ZM101.981 148.449H102.314C102.467 148.449 102.593 148.419 102.694 148.36C102.794 148.301 102.869 148.217 102.919 148.108C102.968 147.999 102.993 147.869 102.993 147.719C102.993 147.57 102.968 147.441 102.92 147.333C102.871 147.225 102.798 147.142 102.701 147.084C102.604 147.026 102.483 146.996 102.339 146.996H101.981V148.449Z" fill="#F37D4F"/>
<path d="M133.638 185.855C133.761 185.594 134.069 185.507 134.376 185.594L138.926 187.853C139.234 188.027 139.418 188.548 139.234 189.069C139.049 189.591 138.619 189.851 138.311 189.591L134.007 186.637C133.7 186.55 133.515 186.115 133.638 185.855Z" fill="#F37D4F"/>
<path d="M131.574 189.318C131.758 189.145 132.066 189.231 132.312 189.579L135.509 194.357C135.755 194.705 135.694 195.313 135.325 195.661C134.956 196.008 134.525 196.008 134.341 195.574L131.574 190.361C131.389 189.926 131.389 189.492 131.574 189.318Z" fill="#F37D4F"/>
<path d="M128.547 191.157C128.793 191.157 129.039 191.418 129.1 191.852L130.268 198.021C130.33 198.455 130.084 198.976 129.654 199.063C129.223 199.15 128.854 198.89 128.793 198.368L128.178 192.026C128.178 191.592 128.301 191.157 128.547 191.157Z" fill="#F37D4F"/>
<path d="M125.229 190.884C125.475 190.971 125.536 191.405 125.475 191.839L124.306 198.008C124.245 198.442 123.814 198.703 123.384 198.529C122.954 198.355 122.708 197.834 122.892 197.4L124.614 191.492C124.737 191.058 125.044 190.797 125.229 190.884Z" fill="#F37D4F"/>
<path d="M122.377 188.641C122.562 188.815 122.5 189.249 122.254 189.596L119.057 194.375C118.811 194.722 118.38 194.635 118.073 194.288C117.765 193.854 117.765 193.245 118.011 192.985L121.639 188.728C121.885 188.467 122.193 188.38 122.377 188.641Z" fill="#F37D4F"/>
<path d="M120.678 184.896C120.74 185.157 120.555 185.505 120.248 185.678L115.698 187.937C115.39 188.111 115.021 187.763 114.837 187.242C114.714 186.721 114.898 186.113 115.267 186.026L119.941 184.549C120.31 184.462 120.617 184.549 120.678 184.896Z" fill="#F37D4F"/>
<path d="M120.431 180.447C120.37 180.708 120.062 180.968 119.755 180.882L114.959 180.1C114.59 180.013 114.405 179.578 114.467 178.97C114.528 178.362 114.897 178.015 115.266 178.188L119.939 179.665C120.308 179.839 120.493 180.187 120.431 180.447Z" fill="#F37D4F"/>
<path d="M121.839 176.469C121.716 176.729 121.347 176.729 121.101 176.469L117.104 172.907C116.797 172.646 116.797 172.038 117.043 171.604C117.289 171.169 117.781 171.082 118.027 171.343L121.655 175.6C121.9 175.861 121.962 176.295 121.839 176.469Z" fill="#F37D4F"/>
<path d="M124.439 173.755C124.254 173.929 123.947 173.668 123.762 173.234L121.487 167.587C121.303 167.152 121.487 166.631 121.918 166.371C122.287 166.11 122.779 166.371 122.84 166.718L124.562 172.626C124.746 173.234 124.623 173.668 124.439 173.755Z" fill="#F37D4F"/>
<path d="M127.671 172.996C127.425 172.996 127.24 172.561 127.24 172.127V165.785C127.24 165.35 127.609 165.003 128.04 165.003C128.286 165.003 128.47 165.09 128.593 165.264C128.716 165.437 128.778 165.698 128.778 165.872L128.224 172.214C128.224 172.475 128.163 172.648 128.04 172.735C127.917 172.909 127.794 173.083 127.671 172.996Z" fill="#F37D4F"/>
<path d="M130.878 174.296C130.693 174.122 130.632 173.688 130.816 173.253L133.092 167.606C133.276 167.172 133.707 167.085 134.076 167.432C134.444 167.693 134.567 168.301 134.383 168.649L131.616 173.861C131.37 174.296 131.062 174.469 130.878 174.296Z" fill="#F37D4F"/>
<path d="M133.209 177.411C133.086 177.15 133.209 176.716 133.517 176.455L137.514 172.806C137.821 172.546 138.252 172.719 138.436 173.241C138.682 173.762 138.559 174.283 138.252 174.544L133.947 177.498C133.701 177.672 133.332 177.672 133.209 177.411Z" fill="#F37D4F"/>
<path d="M134.186 181.607C134.186 181.433 134.247 181.346 134.37 181.172C134.493 181.086 134.616 180.999 134.8 180.912L139.597 180.13C139.781 180.13 139.904 180.217 140.089 180.391C140.212 180.564 140.273 180.825 140.273 181.086C140.273 181.694 140.027 182.128 139.658 182.128H134.8C134.493 182.128 134.186 181.867 134.186 181.607Z" fill="#F37D4F"/>
<path opacity="0.81" d="M253.896 114.593H197.632C196.402 114.593 195.418 113.202 195.418 111.465V28.1472C195.418 26.4096 196.402 25.0195 197.632 25.0195H253.896C255.126 25.0195 256.11 26.4096 256.11 28.1472V111.465C256.11 113.202 255.126 114.593 253.896 114.593Z" fill="#DDDDDD"/>
<path d="M250.468 110.227H183.442C182.089 110.227 180.982 108.663 180.982 106.752V23.9557C180.982 22.0443 182.089 20.4805 183.442 20.4805H250.468C251.82 20.4805 252.927 22.0443 252.927 23.9557V106.839C252.866 108.75 251.82 110.227 250.468 110.227Z" fill="#DDDDDD"/>
<path d="M252.989 33.1689H180.982V22.8302C180.982 21.527 181.72 20.5713 182.581 20.5713H251.329C252.251 20.5713 252.927 21.6139 252.927 22.8302V33.1689H252.989Z" fill="#C2C4C4"/>
<path d="M249.803 44.2266H183.393V106.432H249.803V44.2266Z" fill="#228B22"/>
<path d="M186.401 26.6594C186.401 27.702 185.786 28.5708 185.048 28.5708C184.31 28.5708 183.695 27.702 183.695 26.6594C183.695 25.6168 184.31 24.748 185.048 24.748C185.786 24.748 186.401 25.6168 186.401 26.6594Z" fill="#DDDDDD"/>
<path d="M191.194 26.6594C191.194 27.702 190.579 28.5708 189.841 28.5708C189.103 28.5708 188.488 27.702 188.488 26.6594C188.488 25.6168 189.103 24.748 189.841 24.748C190.579 24.748 191.194 25.6168 191.194 26.6594Z" fill="#DDDDDD"/>
<path d="M195.551 26.6594C195.551 27.702 194.936 28.5708 194.199 28.5708C193.461 28.5708 192.846 27.702 192.846 26.6594C192.846 25.6168 193.461 24.748 194.199 24.748C194.936 24.748 195.551 25.6168 195.551 26.6594Z" fill="#DDDDDD"/>
<path d="M191.698 63.6918H190.868L190.718 64.3164H189.799L190.718 61.4681H191.893L192.772 64.3164H191.848L191.698 63.6918ZM191.278 62.0827L190.983 63.1371H191.578L191.298 62.0827H191.278ZM193.011 61.4681H193.91V63.6568H195.074V64.3164H193.011V61.4681ZM195.372 61.4681H197.446V62.0678H196.272V62.5874H197.261V63.1271H196.272V63.7068H197.441V64.3164H195.372V61.4681ZM200.421 64.3164H199.476L199.306 63.5968C199.3 63.5702 199.288 63.5252 199.271 63.4619C199.258 63.3953 199.241 63.347 199.221 63.317C199.201 63.2837 199.173 63.262 199.136 63.252C199.043 63.2554 198.907 63.257 198.727 63.257V64.3164H197.827V61.4931C198.23 61.4631 198.607 61.4481 198.957 61.4481C199.273 61.4481 199.53 61.4748 199.726 61.5281C199.923 61.578 200.069 61.6663 200.166 61.7929C200.266 61.9162 200.316 62.0861 200.316 62.3026C200.316 62.5058 200.269 62.6657 200.176 62.7823C200.083 62.8956 199.933 62.9639 199.726 62.9872V63.0172C199.843 63.0272 199.939 63.0655 200.016 63.1321C200.096 63.1954 200.149 63.277 200.176 63.377L200.421 64.3164ZM198.727 62.6924C198.757 62.6957 198.815 62.6974 198.902 62.6974C199.158 62.6974 199.308 62.6757 199.351 62.6324C199.391 62.5924 199.411 62.4992 199.411 62.3526C199.411 62.216 199.375 62.1227 199.301 62.0727C199.231 62.0228 199.115 61.9978 198.952 61.9978C198.915 61.9978 198.84 62.0011 198.727 62.0078V62.6924ZM202.22 64.3164H201.321V62.0927H200.516V61.4681H203.025V62.0927H202.22V64.3164ZM204.149 63.1871C204.142 62.9139 204.119 62.3609 204.079 61.5281L204.064 61.1833L204.873 61.1383C204.877 61.2049 204.878 61.3032 204.878 61.4331C204.878 61.7796 204.862 62.1893 204.828 62.6624C204.815 62.8756 204.807 63.0122 204.803 63.0722C204.643 63.1621 204.434 63.2087 204.174 63.2121L204.149 63.1871ZM204.463 64.3464C204.354 64.3464 204.262 64.3114 204.189 64.2415C204.119 64.1682 204.084 64.0699 204.084 63.9466C204.084 63.84 204.12 63.7501 204.194 63.6768C204.27 63.6035 204.364 63.5669 204.473 63.5669C204.58 63.5669 204.668 63.6035 204.738 63.6768C204.812 63.7501 204.848 63.84 204.848 63.9466C204.848 64.0699 204.813 64.1682 204.743 64.2415C204.673 64.3114 204.58 64.3464 204.463 64.3464ZM205.461 63.1871C205.455 62.9139 205.431 62.3609 205.391 61.5281L205.376 61.1833L206.186 61.1383C206.189 61.2049 206.191 61.3032 206.191 61.4331C206.191 61.7796 206.174 62.1893 206.141 62.6624C206.128 62.8756 206.119 63.0122 206.116 63.0722C205.956 63.1621 205.746 63.2087 205.486 63.2121L205.461 63.1871ZM205.776 64.3464C205.666 64.3464 205.575 64.3114 205.501 64.2415C205.431 64.1682 205.396 64.0699 205.396 63.9466C205.396 63.84 205.433 63.7501 205.506 63.6768C205.583 63.6035 205.676 63.5669 205.786 63.5669C205.893 63.5669 205.981 63.6035 206.051 63.6768C206.124 63.7501 206.161 63.84 206.161 63.9466C206.161 64.0699 206.126 64.1682 206.056 64.2415C205.986 64.3114 205.893 64.3464 205.776 64.3464Z" fill="white"/>
<path opacity="0.81" d="M69.9222 162.631H31.6746L12.5508 209.459L31.6746 256.287H69.9222L89.046 209.459L69.9222 162.631Z" fill="#DDDDDD"/>
<path d="M60.3845 152.213H20.1077L0 201.387L20.1077 250.648H60.3845L80.4922 201.387L60.3845 152.213Z" fill="#228B22"/>
<path d="M58.6032 156.557L76.9277 201.474L58.6032 246.391H21.8929L3.56846 201.474L21.8929 156.557H58.6032ZM60.3865 152.213H20.1096L0.00195312 201.474L20.1096 250.735H60.325L80.4327 201.474L60.3865 152.213Z" fill="white"/>
<path d="M10.977 177.119V176.494L13.7339 172.132H14.1872V173.1H13.8809L11.7979 176.396V176.445H15.5106V177.119H10.977ZM13.9299 178.405V176.929V176.638V172.132H14.6529V178.405H13.9299ZM18.7047 178.491C18.2432 178.491 17.8501 178.365 17.5254 178.114C17.2007 177.861 16.9526 177.494 16.781 177.015C16.6095 176.533 16.5237 175.951 16.5237 175.269C16.5237 174.591 16.6095 174.012 16.781 173.532C16.9546 173.05 17.2038 172.682 17.5285 172.429C17.8552 172.174 18.2473 172.046 18.7047 172.046C19.1622 172.046 19.5532 172.174 19.8779 172.429C20.2047 172.682 20.4538 173.05 20.6254 173.532C20.799 174.012 20.8858 174.591 20.8858 175.269C20.8858 175.951 20.8 176.533 20.6284 177.015C20.4569 177.494 20.2088 177.861 19.8841 178.114C19.5594 178.365 19.1663 178.491 18.7047 178.491ZM18.7047 177.817C19.1622 177.817 19.5175 177.597 19.7707 177.155C20.024 176.714 20.1506 176.085 20.1506 175.269C20.1506 174.725 20.0924 174.263 19.976 173.881C19.8616 173.499 19.6962 173.208 19.4797 173.008C19.2653 172.808 19.007 172.708 18.7047 172.708C18.2514 172.708 17.8971 172.931 17.6418 173.379C17.3865 173.824 17.2589 174.454 17.2589 175.269C17.2589 175.812 17.3161 176.273 17.4304 176.653C17.5448 177.033 17.7092 177.322 17.9236 177.52C18.1401 177.718 18.4005 177.817 18.7047 177.817ZM21.9027 177.119V176.494L24.6596 172.132H25.113V173.1H24.8067L22.7237 176.396V176.445H26.4363V177.119H21.9027ZM24.8557 178.405V176.929V176.638V172.132H25.5786V178.405H24.8557Z" fill="white"/>
<path d="M30.1967 215.495C30.0308 215.495 29.8876 215.458 29.7673 215.385C29.6477 215.311 29.5553 215.208 29.4903 215.076C29.426 214.942 29.3939 214.788 29.3939 214.611C29.3939 214.435 29.426 214.279 29.4903 214.145C29.5553 214.01 29.6458 213.904 29.7617 213.829C29.8783 213.752 30.0143 213.714 30.1698 213.714C30.2595 213.714 30.3481 213.729 30.4355 213.759C30.523 213.789 30.6026 213.838 30.6744 213.905C30.7461 213.971 30.8033 214.06 30.8459 214.17C30.8885 214.279 30.9098 214.415 30.9098 214.575V214.688H29.5823V214.459H30.6407C30.6407 214.362 30.6213 214.275 30.5824 214.199C30.5443 214.122 30.4897 214.062 30.4187 214.018C30.3484 213.974 30.2655 213.952 30.1698 213.952C30.0644 213.952 29.9732 213.978 29.8962 214.031C29.82 214.082 29.7613 214.149 29.7202 214.232C29.6791 214.315 29.6585 214.404 29.6585 214.499V214.652C29.6585 214.782 29.6809 214.892 29.7258 214.982C29.7714 215.072 29.8345 215.141 29.9153 215.188C29.996 215.234 30.0898 215.257 30.1967 215.257C30.2662 215.257 30.329 215.247 30.3851 215.228C30.4419 215.208 30.4908 215.178 30.532 215.138C30.5731 215.098 30.6048 215.048 30.6273 214.988L30.8829 215.06C30.856 215.147 30.8108 215.223 30.7472 215.289C30.6837 215.354 30.6052 215.404 30.5118 215.441C30.4183 215.477 30.3133 215.495 30.1967 215.495ZM31.3123 215.459V213.737H31.568V213.997H31.5859C31.6173 213.912 31.6741 213.843 31.7564 213.789C31.8386 213.736 31.9313 213.71 32.0344 213.71C32.0539 213.71 32.0782 213.71 32.1073 213.711C32.1365 213.712 32.1585 213.713 32.1735 213.714V213.983C32.1645 213.981 32.1439 213.978 32.1118 213.973C32.0804 213.968 32.0471 213.965 32.012 213.965C31.9283 213.965 31.8535 213.983 31.7878 214.018C31.7227 214.053 31.6712 214.1 31.633 214.162C31.5957 214.222 31.577 214.291 31.577 214.369V215.459H31.3123ZM32.4871 215.459V213.737H32.7428V213.997H32.7607C32.7921 213.912 32.8489 213.843 32.9312 213.789C33.0134 213.736 33.1061 213.71 33.2092 213.71C33.2287 213.71 33.253 213.71 33.2821 213.711C33.3113 213.712 33.3333 213.713 33.3483 213.714V213.983C33.3393 213.981 33.3187 213.978 33.2866 213.973C33.2552 213.968 33.2219 213.965 33.1868 213.965C33.1031 213.965 33.0283 213.983 32.9626 214.018C32.8975 214.053 32.8459 214.1 32.8078 214.162C32.7704 214.222 32.7518 214.291 32.7518 214.369V215.459H32.4871ZM34.3092 215.495C34.1537 215.495 34.0173 215.458 33.8999 215.384C33.7833 215.31 33.6921 215.206 33.6263 215.073C33.5613 214.94 33.5288 214.785 33.5288 214.607C33.5288 214.427 33.5613 214.271 33.6263 214.137C33.6921 214.003 33.7833 213.899 33.8999 213.825C34.0173 213.751 34.1537 213.714 34.3092 213.714C34.4647 213.714 34.6007 213.751 34.7173 213.825C34.8347 213.899 34.9259 214.003 34.9909 214.137C35.0567 214.271 35.0896 214.427 35.0896 214.607C35.0896 214.785 35.0567 214.94 34.9909 215.073C34.9259 215.206 34.8347 215.31 34.7173 215.384C34.6007 215.458 34.4647 215.495 34.3092 215.495ZM34.3092 215.257C34.4273 215.257 34.5245 215.227 34.6007 215.166C34.677 215.106 34.7334 215.026 34.77 214.928C34.8066 214.829 34.825 214.722 34.825 214.607C34.825 214.492 34.8066 214.384 34.77 214.285C34.7334 214.186 34.677 214.105 34.6007 214.044C34.5245 213.983 34.4273 213.952 34.3092 213.952C34.1911 213.952 34.0939 213.983 34.0177 214.044C33.9414 214.105 33.885 214.186 33.8483 214.285C33.8117 214.384 33.7934 214.492 33.7934 214.607C33.7934 214.722 33.8117 214.829 33.8483 214.928C33.885 215.026 33.9414 215.106 34.0177 215.166C34.0939 215.227 34.1911 215.257 34.3092 215.257ZM35.4935 215.459V213.737H35.7492V213.997H35.7671C35.7985 213.912 35.8553 213.843 35.9375 213.789C36.0197 213.736 36.1124 213.71 36.2156 213.71C36.235 213.71 36.2593 213.71 36.2885 213.711C36.3176 213.712 36.3397 213.713 36.3546 213.714V213.983C36.3457 213.981 36.3251 213.978 36.293 213.973C36.2616 213.968 36.2283 213.965 36.1932 213.965C36.1094 213.965 36.0347 213.983 35.9689 214.018C35.9039 214.053 35.8523 214.1 35.8142 214.162C35.7768 214.222 35.7581 214.291 35.7581 214.369V215.459H35.4935Z" fill="white"/>
</svg>
