<svg width="584" height="491" viewBox="0 0 584 491" fill="none" xmlns="http://www.w3.org/2000/svg">
<g clip-path="url(#clip0_3_12590)">
<g opacity="0.4">
<path d="M568.979 377.861C557.752 403.303 542.182 423.464 523.565 439.278C502.064 457.543 476.493 470.012 448.841 478.121C358.874 504.512 246.883 484.757 181.395 468.369C168.114 465.044 156.748 461.859 147.864 459.225C132.868 454.778 118.657 447.988 105.848 438.995C105.781 438.947 105.714 438.9 105.647 438.855C17.8792 377.139 -19.3961 288.935 9.7853 205.39C10.2376 204.086 96.2798 -61.2302 300.301 26.3922C389.867 64.8603 356.922 97.5459 456.201 138.432C502.614 157.549 564.034 191.642 580.884 272.071C586.895 300.774 584.871 341.851 568.982 377.861H568.979Z" fill="#FECC86"/>
</g>
<g opacity="0.3">
<path d="M335.821 208.305C340.325 211.356 345.222 213.592 350.314 214.997L352.182 227.973L361.119 228.32L370.056 228.667L372.924 215.876C378.108 214.871 383.164 213.021 387.891 210.332L398.367 218.183L404.93 212.095L411.494 206.007L404.498 194.929C407.541 190.415 409.772 185.505 411.173 180.4L424.117 178.528L424.463 169.568L424.809 160.609L412.05 157.735C411.048 152.537 409.205 147.468 406.519 142.733L414.353 132.231L408.281 125.651L402.208 119.071L391.158 126.085C386.654 123.034 381.757 120.798 376.665 119.392L374.797 106.417L365.86 106.07L356.923 105.723L354.056 118.514C348.871 119.518 343.815 121.366 339.091 124.058L328.615 116.207L322.052 122.295L315.488 128.383L322.484 139.461C319.441 143.975 317.21 148.885 315.809 153.99L302.865 155.862L302.519 164.821L302.173 173.781L314.932 176.655C315.934 181.853 317.78 186.922 320.463 191.66L312.631 202.162L318.704 208.742L324.776 215.322L335.827 208.308L335.821 208.305ZM340.702 142.509C354.301 129.894 375.528 130.72 388.112 144.353C400.695 157.987 399.871 179.267 386.272 191.881C372.672 204.496 351.445 203.67 338.862 190.037C326.279 176.403 327.102 155.123 340.702 142.509Z" fill="#FECC86"/>
</g>
<g opacity="0.5">
<path d="M264.855 316.718C260.38 314.216 255.6 312.511 250.706 311.604L247.908 299.566L239.488 299.961L231.067 300.356L229.403 312.604C224.615 313.967 220.014 316.111 215.792 319.022L205.322 312.492L199.646 318.742L193.97 324.992L201.433 334.833C198.937 339.319 197.237 344.111 196.332 349.017L184.324 351.822L184.718 360.263L185.112 368.705L197.329 370.373C198.689 375.173 200.827 379.786 203.731 384.018L197.217 394.514L203.452 400.204L209.686 405.894L219.503 398.412C223.978 400.915 228.758 402.619 233.652 403.526L236.45 415.564L244.87 415.169L253.291 414.775L254.955 402.527C259.743 401.164 264.344 399.02 268.566 396.109L279.035 402.639L284.711 396.389L290.387 390.139L282.925 380.298C285.421 375.811 287.121 371.02 288.026 366.113L300.034 363.309L299.64 354.867L299.246 346.426L287.029 344.757C285.669 339.957 283.53 335.345 280.627 331.113L287.138 320.617L280.903 314.927L274.669 309.237L264.852 316.718H264.855ZM265.564 378.912C253.805 391.86 233.803 392.801 220.888 381.012C207.972 369.223 207.034 349.171 218.794 336.224C230.553 323.276 250.555 322.335 263.47 334.124C276.386 345.913 277.324 365.965 265.564 378.912Z" fill="#FECC86"/>
</g>
<g opacity="0.5">
<path d="M370.986 396.697C369.065 394.128 366.767 391.936 364.201 390.17L365.656 382.582L360.747 380.662L355.839 378.742L351.783 385.311C348.703 384.869 345.531 384.919 342.382 385.507L338.06 379.109L333.233 381.23L328.406 383.352L330.17 390.875C327.607 392.801 325.421 395.105 323.659 397.677L316.09 396.219L314.175 401.139L312.26 406.059L318.812 410.126C318.371 413.213 318.422 416.393 319.005 419.55L312.623 423.883L314.739 428.722L316.855 433.561L324.36 431.793C326.281 434.362 328.579 436.553 331.144 438.32L329.69 445.907L334.598 447.827L339.506 449.747L343.563 443.178C346.643 443.621 349.814 443.57 352.964 442.983L357.285 449.381L362.113 447.259L366.94 445.138L365.176 437.614C367.739 435.689 369.925 433.385 371.686 430.813L379.255 432.271L381.171 427.351L383.086 422.43L376.533 418.363C376.974 415.276 376.924 412.097 376.338 408.939L382.72 404.607L380.604 399.768L378.488 394.928L370.983 396.697H370.986ZM355.613 432.394C345.612 436.791 333.95 432.226 329.567 422.201C325.184 412.175 329.735 400.484 339.735 396.09C349.736 391.693 361.398 396.258 365.781 406.283C370.168 416.309 365.614 428 355.613 432.394Z" fill="#FECC86"/>
</g>
<path d="M127.146 177.036C127.146 177.036 112.633 152.982 77.8174 159.221C77.8174 159.221 101.256 194.067 127.146 177.036Z" fill="#2B2B2B"/>
<path d="M149.808 183.388C149.808 183.388 145.486 135.172 86.9082 118.445C86.9082 118.445 96.9062 190.125 149.808 183.388Z" fill="#80C4A4"/>
<path d="M219.902 176.897C219.902 176.897 236.467 172.833 241.261 179.078C246.054 185.322 234.25 202.538 225.282 203.873C216.315 205.211 219.902 176.897 219.902 176.897Z" fill="#FE9F73"/>
<path d="M173.087 406.946C173.087 406.946 215.237 386.427 222.962 357.444C230.69 328.462 181.077 324.756 181.767 324.762C182.457 324.765 131.381 338.328 127.894 346.604C124.407 354.878 109.07 389.352 115.274 389.383C121.478 389.414 173.087 406.949 173.087 406.949V406.946Z" fill="#ED7163"/>
<path d="M210.376 146.67C210.365 146.608 210.351 146.547 210.334 146.485C209.86 144.4 207.903 143 205.781 143.227C205.719 143.233 205.655 143.241 205.591 143.25C205.571 143.252 205.549 143.252 205.53 143.258L112.781 158.769C112.761 158.772 112.739 158.778 112.72 158.783C112.658 158.795 112.594 158.809 112.535 158.825C110.455 159.301 109.057 161.263 109.283 163.388C109.288 163.449 109.297 163.514 109.305 163.575C109.308 163.595 109.308 163.617 109.313 163.637L141.485 356.965C141.82 358.975 143.716 360.332 145.72 359.996L239.538 344.306C241.543 343.97 242.897 342.069 242.562 340.06L210.39 146.731C210.388 146.712 210.382 146.689 210.376 146.67Z" fill="#5BA767"/>
<path d="M107.513 162.71L114.233 156.233L204.645 141.352L213.735 147.017C213.735 147.017 214.316 155.231 213.838 155.438C213.361 155.646 108.666 174.412 108.401 172.792C108.135 171.174 107.515 162.71 107.515 162.71H107.513Z" fill="#008000"/>
<g opacity="0.5">
<path d="M117.918 165.383C118.013 165.951 117.756 166.497 117.306 166.797C117.147 166.906 116.96 166.981 116.754 167.015C116.553 167.048 116.352 167.037 116.162 166.987C115.64 166.853 115.218 166.419 115.126 165.851C114.997 165.078 115.52 164.348 116.287 164.219C117.058 164.09 117.787 164.611 117.915 165.383H117.918Z" fill="white"/>
<path d="M122.234 164.66C122.329 165.229 122.072 165.774 121.623 166.074C121.464 166.183 121.277 166.259 121.07 166.292C120.866 166.326 120.662 166.315 120.478 166.264C119.956 166.127 119.537 165.696 119.442 165.128C119.314 164.355 119.833 163.625 120.604 163.496C121.374 163.367 122.103 163.888 122.232 164.66H122.234Z" fill="white"/>
<path d="M126.551 163.938C126.646 164.506 126.389 165.052 125.939 165.351C125.78 165.46 125.593 165.536 125.386 165.57C125.183 165.603 124.979 165.592 124.795 165.542C124.272 165.404 123.854 164.973 123.759 164.405C123.63 163.633 124.15 162.902 124.92 162.773C125.691 162.645 126.419 163.165 126.548 163.938H126.551Z" fill="white"/>
</g>
<path d="M242.23 338.061C242.749 341.176 240.646 344.123 237.542 344.644L147.719 359.665C144.612 360.186 141.669 358.081 141.153 354.966L109.665 165.76C109.087 162.284 111.43 158.995 114.897 158.416L203.419 143.61C206.886 143.031 210.167 145.376 210.745 148.855L242.232 338.061H242.23ZM202.905 139.384L114.012 154.251C108.291 155.209 104.427 160.633 105.382 166.368L137.194 357.521C138.149 363.256 143.559 367.13 149.28 366.173L238.173 351.305C243.894 350.348 247.758 344.924 246.803 339.189L214.991 148.035C214.036 142.3 208.626 138.426 202.905 139.384Z" fill="#20111D"/>
<path d="M181.725 401.804V402.059V402.14L181.602 426.681L181.393 468.373C168.111 465.048 156.745 461.863 147.861 459.229C132.866 454.782 118.655 447.991 105.845 438.999C105.778 438.951 105.711 438.903 105.644 438.859L107.362 386.231C107.362 386.231 96.579 337.113 97.3273 325.369C98.0783 313.625 105.792 286.716 109.288 276.368C110.315 273.326 110.932 269.385 111.287 265.338C111.315 265.036 111.34 264.733 111.362 264.428C111.362 264.42 111.362 264.417 111.362 264.417C111.669 260.532 111.745 256.605 111.734 253.328C111.734 253.224 111.734 253.124 111.734 253.017C111.734 252.729 111.734 252.452 111.728 252.175C111.728 252.102 111.728 252.029 111.728 251.956C111.681 247.999 111.513 245.284 111.513 245.284C111.58 244.612 111.675 243.982 111.79 243.392C111.907 242.773 112.052 242.199 112.217 241.665C112.342 241.259 112.482 240.876 112.63 240.52C113.638 238.105 115.185 236.747 117.01 236.243C118.362 235.868 119.869 235.961 121.427 236.434C126.939 238.107 133.084 244.553 135.261 251.97C139.329 265.814 135.683 305.872 135.683 305.872C135.683 305.872 145.109 315.416 151.028 334.446C152.597 339.489 153.92 345.199 154.755 351.575C155.07 353.999 155.229 356.274 155.246 358.41C155.271 360.876 155.107 363.154 154.797 365.253C154.358 368.24 153.621 370.868 152.692 373.177C147.741 385.495 137.339 388.803 137.339 388.803L138.025 389.005L154.995 393.975L180.84 401.546L181.728 401.807H181.733L181.725 401.804Z" fill="#FE9F73"/>
<path d="M235.69 270.258L236.846 277.336C236.846 277.336 226.887 287.409 230.137 300.203C233.387 312.997 241.969 314.539 241.969 314.539C241.969 314.539 255.376 296.525 255.164 290.27C254.952 284.014 254.902 273.046 235.69 270.261V270.258Z" fill="#FE9F73"/>
<path d="M243.678 312.167C243.678 312.167 249.052 306.704 254.047 294.778C253.218 294.263 251.674 293.815 250.688 293.521C247.656 292.62 245.727 293.244 244.088 295.377L237.918 304.431C237.918 304.431 236.732 306.743 239.336 309.416C240.339 310.443 243.681 312.167 243.681 312.167H243.678Z" fill="#F78A5E"/>
<path d="M242.148 315.019L241.866 314.949C237.561 313.88 234.894 310.552 234.783 310.409C234.504 310.079 227.708 301.951 229.062 292.493C230.413 283.078 238.287 275.412 238.622 275.09L239.211 275.706C239.13 275.781 231.212 283.498 229.902 292.617C228.601 301.691 235.369 309.791 235.439 309.872C235.472 309.914 237.935 312.979 241.791 314.051L249.44 303.227C257.445 291.643 253.754 282.577 253.718 282.485L254.499 282.151C254.541 282.249 255.516 284.581 255.468 288.424C255.424 291.948 254.46 297.459 250.138 303.717L242.148 315.022V315.019Z" fill="black"/>
<path d="M243.468 318.473L244.37 324.003C244.37 324.003 236.589 331.874 239.127 341.871C241.665 351.869 248.371 353.073 248.371 353.073C248.371 353.073 258.847 338.994 258.682 334.11C258.517 329.223 258.478 320.65 243.466 318.473H243.468Z" fill="#FE9F73"/>
<path d="M249.708 351.221C249.708 351.221 253.91 346.953 257.811 337.633C257.163 337.23 255.957 336.883 255.186 336.653C252.816 335.948 251.311 336.435 250.029 338.103L245.208 345.179C245.208 345.179 244.281 346.984 246.316 349.072C247.098 349.875 249.711 351.221 249.711 351.221H249.708Z" fill="#F78A5E"/>
<path d="M248.514 353.449L248.293 353.396C244.929 352.562 242.846 349.959 242.76 349.85C242.542 349.592 237.232 343.242 238.29 335.85C239.345 328.494 245.499 322.502 245.761 322.25L246.222 322.731C246.16 322.79 239.97 328.819 238.949 335.945C237.932 343.035 243.22 349.366 243.273 349.43C243.301 349.464 245.225 351.857 248.237 352.696L254.215 344.238C260.469 335.187 257.588 328.1 257.557 328.03L258.168 327.769C258.297 328.069 261.237 335.245 254.759 344.622L248.517 353.455L248.514 353.449Z" fill="black"/>
<path d="M153.093 372.033C153.093 372.033 146.376 389.448 154.978 393.968C163.58 398.488 134.259 400.895 134.264 400.042C134.27 399.191 114.006 373.964 119.109 372.713C124.213 371.462 140.172 365.579 143.762 369.43C147.353 373.281 153.093 372.033 153.093 372.033Z" fill="#FE9F73"/>
<path d="M228.906 228.355L230.062 235.434C230.062 235.434 220.103 245.507 223.353 258.301C226.603 271.095 235.185 272.637 235.185 272.637C235.185 272.637 248.592 254.623 248.38 248.368C248.171 242.115 248.118 231.143 228.906 228.358V228.355Z" fill="#FE9F73"/>
<path d="M236.891 270.265C236.891 270.265 242.265 264.801 247.26 252.875C246.431 252.36 244.887 251.912 243.901 251.619C240.869 250.717 238.94 251.341 237.301 253.474L231.131 262.529C231.131 262.529 229.944 264.841 232.549 267.514C233.552 268.541 236.894 270.265 236.894 270.265H236.891Z" fill="#F78A5E"/>
<path d="M181.314 401.827L181.188 426.703L182.037 426.707L182.163 401.831L181.314 401.827Z" fill="black"/>
<path d="M179.5 403.097L179.156 402.319C193.588 395.938 206.998 383.659 213.346 374.952C218.964 367.252 221.373 361.559 221.396 361.5L222.18 361.83C222.155 361.889 219.715 367.666 214.033 375.453C207.617 384.249 194.074 396.651 179.5 403.097Z" fill="black"/>
<path d="M121.017 242.968C120.171 240.567 114.054 240.248 112.256 240.57C111.094 240.777 112.309 263.386 111.365 264.416C111.365 264.416 111.195 264.699 114.163 264.802C117.435 264.917 119.705 263.535 119.705 263.535C119.705 263.535 121.86 245.37 121.014 242.968H121.017Z" fill="#F78A5E"/>
<path d="M235.363 273.117L235.084 273.049C231.212 272.131 228.141 268.675 228.012 268.526C227.716 268.179 220.921 260.051 222.278 250.591C223.629 241.176 231.502 233.509 231.837 233.188L232.426 233.803C232.345 233.879 224.427 241.595 223.118 250.714C221.817 259.785 228.585 267.888 228.654 267.969C228.68 267.997 231.524 271.194 235.006 272.151L242.656 261.325C250.661 249.74 246.97 240.675 246.933 240.582L247.715 240.249C247.757 240.347 248.731 242.679 248.684 246.521C248.639 250.045 247.676 255.556 243.354 261.815L235.366 273.117H235.363Z" fill="black"/>
<path d="M229.643 235.505L216.217 157.981L217.057 157.844L230.481 235.365L229.643 235.505Z" fill="black"/>
<path d="M239.446 192.51L238.753 192.017C238.812 191.933 244.636 183.59 240.364 178.711C236.034 173.769 220.731 177.147 220.578 177.18L220.391 176.349C221.038 176.204 236.341 172.828 241.001 178.149C245.716 183.531 239.703 192.146 239.446 192.51Z" fill="black"/>
<path d="M124.387 379.568C124.261 379.658 124.097 379.68 123.946 379.616C118.892 377.388 114.168 369.957 113.967 369.641C113.836 369.431 113.898 369.157 114.107 369.022C114.316 368.891 114.593 368.952 114.724 369.162C114.771 369.238 119.504 376.68 124.306 378.796C124.532 378.897 124.635 379.16 124.535 379.387C124.501 379.462 124.448 379.527 124.387 379.571V379.568Z" fill="#000100"/>
<path d="M130.501 378.633C130.404 378.703 130.278 378.733 130.152 378.708C124.739 377.625 118.524 371.389 118.264 371.126C118.091 370.95 118.091 370.664 118.267 370.491C118.443 370.314 118.728 370.317 118.901 370.491C118.962 370.552 125.185 376.797 130.328 377.824C130.571 377.871 130.727 378.109 130.68 378.353C130.658 378.47 130.591 378.565 130.501 378.63V378.633Z" fill="#000100"/>
<path d="M137.464 389.205L137.207 388.393C137.26 388.376 142.534 386.647 147.25 381.278C151.602 376.324 156.366 367.158 154.33 351.63C152.284 335.998 147.241 324.472 143.369 317.553C139.176 310.058 135.415 306.209 135.378 306.17L135.239 306.03L135.256 305.831C135.292 305.431 138.849 265.695 134.851 252.09C132.458 243.939 124.817 236.48 118.822 236.438C118.817 236.438 118.814 236.438 118.808 236.438C115.846 236.424 113.705 238.274 112.619 241.792C112.3 242.822 112.071 244.001 111.937 245.297C111.976 245.974 112.538 256.025 111.711 265.379C111.306 269.997 110.625 273.739 109.69 276.507C106.49 285.979 98.508 313.5 97.7486 325.401C97.0116 336.949 107.666 385.65 107.775 386.143L106.945 386.325C106.504 384.318 96.1572 337.017 96.9027 325.348C97.6677 313.369 105.675 285.741 108.886 276.236C109.799 273.532 110.466 269.854 110.865 265.306C111.711 255.731 111.094 245.417 111.089 245.313V245.28V245.246C111.228 243.883 111.471 242.638 111.806 241.543C113.333 236.603 116.455 235.576 118.811 235.59C118.817 235.59 118.822 235.59 118.828 235.59C121.846 235.612 125.425 237.39 128.644 240.471C131.942 243.626 134.435 247.667 135.663 251.852C139.606 265.267 136.417 302.344 136.118 305.719C136.841 306.492 140.298 310.335 144.089 317.108C148.004 324.094 153.102 335.737 155.168 351.52C156.084 358.521 155.729 364.854 154.115 370.349C152.817 374.76 150.712 378.639 147.853 381.88C142.978 387.408 137.685 389.138 137.461 389.208L137.464 389.205Z" fill="black"/>
<path d="M371.818 189.385C371.818 189.385 354.795 188.388 351.205 195.397C347.614 202.405 362.325 217.2 371.385 216.892C380.445 216.584 371.818 189.385 371.818 189.385Z" fill="#FE9F73"/>
<path d="M459.303 407.176C459.303 407.176 414.152 394.626 401.331 367.516C388.511 340.408 436.638 327.782 435.96 327.911C435.281 328.04 487.962 332.135 492.882 339.641C497.804 347.148 519.098 378.277 513.001 379.433C506.906 380.586 459.303 407.176 459.303 407.176Z" fill="#ED7163"/>
<path d="M375.744 157.933C375.744 157.868 375.747 157.807 375.749 157.742C375.842 155.607 377.514 153.874 379.641 153.715C379.703 153.709 379.767 153.706 379.831 153.701C379.854 153.701 379.873 153.698 379.893 153.698L473.912 152.164C473.934 152.164 473.953 152.164 473.973 152.164C474.037 152.164 474.099 152.167 474.163 152.17C476.293 152.262 478.021 153.939 478.183 156.069C478.189 156.13 478.192 156.194 478.197 156.259C478.197 156.281 478.2 156.301 478.203 156.32L481.383 352.297C481.416 354.334 479.794 356.014 477.762 356.047L382.659 357.598C380.627 357.631 378.952 356.008 378.918 353.968L375.738 157.991C375.738 157.969 375.738 157.949 375.738 157.93L375.744 157.933Z" fill="#5BA767"/>
<path d="M479.805 155.086L472.029 149.934L380.426 151.666L372.505 158.882C372.505 158.882 373.415 167.066 373.92 167.183C374.426 167.301 480.782 166.805 480.752 165.165C480.721 163.525 479.808 155.089 479.808 155.089L479.805 155.086Z" fill="#008000"/>
<g opacity="0.5">
<path d="M470.05 159.602C470.058 160.178 470.41 160.668 470.904 160.881C471.08 160.959 471.278 161.001 471.488 160.996C471.692 160.993 471.887 160.945 472.063 160.861C472.552 160.635 472.887 160.131 472.878 159.554C472.864 158.771 472.219 158.146 471.44 158.16C470.659 158.174 470.036 158.818 470.05 159.602Z" fill="white"/>
<path d="M465.675 159.672C465.683 160.249 466.035 160.739 466.529 160.951C466.705 161.03 466.903 161.072 467.113 161.066C467.319 161.063 467.518 161.016 467.691 160.932C468.179 160.702 468.514 160.201 468.503 159.625C468.489 158.841 467.847 158.217 467.065 158.231C466.284 158.245 465.661 158.888 465.675 159.672Z" fill="white"/>
<path d="M461.3 159.746C461.308 160.323 461.66 160.813 462.154 161.025C462.33 161.104 462.528 161.146 462.738 161.14C462.947 161.135 463.143 161.09 463.316 161.006C463.804 160.776 464.139 160.275 464.128 159.699C464.114 158.915 463.472 158.291 462.69 158.305C461.909 158.319 461.286 158.963 461.3 159.746Z" fill="white"/>
</g>
<path d="M375.774 160.146C375.719 156.622 378.522 153.72 382.034 153.661L471.767 152.197C475.282 152.141 478.177 154.948 478.236 158.472L481.349 350.267C481.399 353.427 478.887 356.027 475.737 356.077L384.686 357.564C381.537 357.614 378.94 355.098 378.89 351.938L375.777 160.143L375.774 160.146ZM371.45 160.11L374.596 353.88C374.691 359.694 379.468 364.329 385.267 364.233L475.374 362.764C481.173 362.669 485.797 357.88 485.702 352.067L482.555 158.296C482.46 152.483 477.683 147.848 471.884 147.943L381.777 149.412C375.978 149.507 371.355 154.296 371.45 160.11Z" fill="#20111D"/>
<path d="M523.565 439.284C502.065 457.549 476.493 470.018 448.842 478.127L448.886 440.921L448.9 428.124L449.939 404.012L449.925 403.936L449.88 403.684L450.14 403.553L450.707 403.264L474.773 391.134H474.779L490.559 383.18L491.198 382.858C491.198 382.858 480.329 381.481 473.252 370.212C473.243 370.201 473.241 370.19 473.232 370.179C473.227 370.17 473.224 370.165 473.221 370.156C471.914 368.077 470.742 365.658 469.787 362.854C469.106 360.844 468.533 358.633 468.115 356.207C467.746 354.102 467.492 351.837 467.366 349.394C467.177 345.641 467.19 342.083 467.358 338.727C467.481 336.337 467.682 334.053 467.947 331.87C468.263 329.242 468.673 326.771 469.142 324.456C470.44 318.06 472.205 312.874 473.813 309.02C476.002 303.764 477.892 300.987 477.892 300.987C477.892 300.987 475.605 292.786 473.285 282.534C473.093 281.697 472.906 280.849 472.719 279.99C470.192 268.472 467.838 255.107 468.6 247.897C469.404 240.206 474.288 232.755 479.408 230.113C480.851 229.363 482.32 229.002 483.716 229.125C485.603 229.293 487.371 230.343 488.797 232.54C489.01 232.865 489.213 233.217 489.409 233.592C489.663 234.085 489.906 234.619 490.132 235.199C490.132 235.199 490.132 235.204 490.138 235.21C490.358 235.775 490.565 236.377 490.752 237.027C490.752 237.027 491.104 239.929 491.818 244.057C491.852 244.253 491.888 244.455 491.922 244.659C491.955 244.849 491.989 245.04 492.022 245.225C492.6 248.398 493.368 252.146 494.342 255.816V255.827C494.342 255.827 494.342 255.827 494.342 255.832C494.418 256.123 494.498 256.42 494.579 256.708C495.657 260.627 496.975 264.389 498.533 267.193C503.838 276.74 516.273 301.81 519.126 313.229C521.977 324.643 520.218 374.9 520.218 374.9L523.568 439.278L523.565 439.284Z" fill="#FE9F73"/>
<path d="M373.105 284.07L373.245 291.241C373.245 291.241 384.854 299.347 383.963 312.516C383.072 325.687 374.909 328.758 374.909 328.758C374.909 328.758 358.478 313.467 357.56 307.276C356.641 301.088 354.715 290.287 373.108 284.07H373.105Z" fill="#FE9F73"/>
<path d="M372.798 326.735C372.798 326.735 366.528 322.336 359.467 311.509C360.19 310.852 361.628 310.135 362.546 309.668C365.366 308.232 367.374 308.498 369.373 310.297L377.073 318.087C377.073 318.087 378.656 320.147 376.576 323.245C375.777 324.438 372.798 326.738 372.798 326.738V326.735Z" fill="#F78A5E"/>
<path d="M374.819 329.268L364.927 319.598C359.544 314.224 357.606 308.976 356.925 305.519C356.185 301.749 356.724 299.278 356.746 299.174L357.576 299.362C357.553 299.457 355.557 309.043 365.521 318.99L374.992 328.249C378.591 326.497 380.461 323.037 380.481 323.001C380.542 322.897 385.738 313.703 382.823 305.015C379.894 296.283 370.715 290.128 370.622 290.066L371.091 289.355C371.48 289.61 380.606 295.729 383.63 304.744C386.668 313.801 381.45 323.026 381.223 323.415C381.148 323.561 379.124 327.317 375.081 329.147L374.816 329.268H374.819Z" fill="black"/>
<path d="M374.141 332.898L374.249 338.502C374.249 338.502 383.321 344.836 382.625 355.127C381.93 365.419 375.551 367.818 375.551 367.818C375.551 367.818 362.71 355.869 361.993 351.033C361.275 346.196 359.77 337.757 374.143 332.898H374.141Z" fill="#FE9F73"/>
<path d="M373.9 366.24C373.9 366.24 369 362.8 363.483 354.342C364.05 353.827 365.173 353.267 365.89 352.9C368.093 351.778 369.662 351.985 371.225 353.393L377.242 359.478C377.242 359.478 378.479 361.087 376.854 363.508C376.229 364.44 373.903 366.237 373.903 366.237L373.9 366.24Z" fill="#F78A5E"/>
<path d="M375.481 368.215L367.753 360.658C359.69 352.609 361.29 345.018 361.362 344.699L362.01 344.845C361.993 344.92 360.432 352.41 368.219 360.183L375.621 367.418C378.441 366.046 379.895 363.345 379.909 363.317C379.957 363.236 384.016 356.051 381.741 349.261C379.451 342.438 372.279 337.629 372.206 337.582L372.572 337.027C372.873 337.226 380.007 342.007 382.369 349.051C384.742 356.13 380.663 363.337 380.49 363.642C380.431 363.757 378.848 366.69 375.69 368.123L375.484 368.215H375.481Z" fill="black"/>
<path d="M472.68 369.221C472.68 369.221 482.424 385.133 474.776 391.137C467.129 397.138 496.4 394.199 496.244 393.362C496.087 392.525 511.471 364.046 506.228 363.738C500.982 363.431 484.227 360.536 481.391 364.973C478.551 369.409 472.68 369.221 472.68 369.221Z" fill="#FE9F73"/>
<path d="M372.231 241.629L372.371 248.8C372.371 248.8 383.98 256.905 383.089 270.074C382.198 283.246 374.035 286.316 374.035 286.316C374.035 286.316 357.604 271.023 356.686 264.835C355.767 258.646 353.841 247.845 372.234 241.629H372.231Z" fill="#FE9F73"/>
<path d="M371.924 284.294C371.924 284.294 365.654 279.894 358.593 269.068C359.316 268.41 360.754 267.694 361.672 267.226C364.492 265.79 366.5 266.056 368.499 267.856L376.199 275.645C376.199 275.645 377.782 277.705 375.702 280.804C374.903 281.996 371.924 284.297 371.924 284.297V284.294Z" fill="#F78A5E"/>
<path d="M449.437 403.664L448.451 440.898L449.3 440.921L450.285 403.686L449.437 403.664Z" fill="black"/>
<path d="M452.302 404.552C436.803 400.852 421.249 391.103 413.357 383.613C406.366 376.98 402.923 371.74 402.89 371.687L403.602 371.223C403.635 371.273 407.03 376.437 413.94 382.995C421.755 390.409 437.155 400.06 452.5 403.723L452.302 404.552Z" fill="black"/>
<path d="M480.98 236.474C481.379 233.96 487.337 232.536 489.163 232.527C490.341 232.522 493.22 254.977 494.334 255.823C494.334 255.823 494.552 256.069 491.651 256.71C488.454 257.415 485.969 256.466 485.969 256.466C485.969 256.466 480.578 238.99 480.977 236.474H480.98Z" fill="#F78A5E"/>
<path d="M373.943 286.82L364.054 277.152C358.671 271.778 356.733 266.53 356.052 263.074C355.312 259.304 355.851 256.832 355.873 256.729L356.703 256.916C356.68 257.011 354.684 266.598 364.648 276.545L374.122 285.804C377.371 284.234 379.597 280.573 379.619 280.536C379.669 280.449 384.865 271.258 381.95 262.57C379.021 253.837 369.841 247.683 369.749 247.621L370.218 246.91C370.606 247.165 379.733 253.283 382.757 262.299C385.795 271.356 380.577 280.581 380.35 280.97C380.247 281.144 377.846 285.098 374.205 286.705L373.943 286.82Z" fill="black"/>
<path d="M372.24 248.81L371.276 170.181L371.832 170.164L372.795 248.794L372.24 248.81Z" fill="black"/>
<path d="M355.407 208.282C355.088 207.971 347.623 200.587 351.289 194.438C354.915 188.362 370.573 188.91 371.237 188.938L371.204 189.789C371.047 189.784 355.384 189.232 352.017 194.878C348.695 200.447 355.923 207.601 355.996 207.671L355.404 208.282H355.407Z" fill="black"/>
<path d="M502.271 371.433C502.411 371.498 502.578 371.492 502.715 371.4C507.283 368.296 510.594 360.128 510.731 359.781C510.823 359.552 510.711 359.292 510.482 359.196C510.253 359.104 509.991 359.216 509.899 359.446C509.865 359.527 506.551 367.705 502.21 370.655C502.006 370.795 501.953 371.072 502.09 371.279C502.137 371.349 502.198 371.4 502.268 371.433H502.271Z" fill="#000100"/>
<path d="M496.087 371.619C496.196 371.669 496.324 371.678 496.445 371.63C501.573 369.587 506.563 362.327 506.772 362.019C506.912 361.814 506.858 361.535 506.655 361.395C506.451 361.255 506.172 361.308 506.032 361.512C505.982 361.585 500.987 368.851 496.112 370.793C495.883 370.886 495.769 371.146 495.861 371.375C495.906 371.485 495.987 371.569 496.087 371.616V371.619Z" fill="#000100"/>
<path d="M491.146 383.281C490.914 383.253 485.394 382.509 479.604 377.955C476.209 375.282 473.436 371.848 471.367 367.747C468.788 362.637 467.3 356.471 466.939 349.42C466.13 333.522 469.047 321.148 471.638 313.566C474.148 306.219 476.854 301.814 477.429 300.924C476.524 297.66 466.71 261.767 468.171 247.859C468.626 243.521 470.348 239.096 473.026 235.396C475.639 231.782 478.836 229.384 481.801 228.815C484.118 228.37 487.385 228.807 489.78 233.4C490.308 234.416 490.771 235.597 491.154 236.913L491.168 236.98C491.179 237.083 492.433 247.339 494.987 256.603C496.199 261.006 497.517 264.501 498.904 266.995C503.774 275.761 516.628 301.486 519.537 313.13C522.371 324.471 520.715 372.869 520.643 374.924L519.794 374.893C519.811 374.392 521.519 324.56 518.713 313.337C515.824 301.772 503.017 276.148 498.162 267.409C496.743 264.857 495.401 261.297 494.169 256.83C491.673 247.778 490.411 237.794 490.33 237.117C489.965 235.869 489.526 234.752 489.029 233.795C487.323 230.526 484.88 229.095 481.963 229.652C476.075 230.777 469.904 239.499 469.019 247.949C467.537 262.055 478.194 300.495 478.303 300.882L478.356 301.072L478.244 301.237C478.213 301.282 475.209 305.746 472.434 313.88C469.874 321.384 466.99 333.634 467.791 349.378C468.589 365.049 474.941 373.205 480.131 377.289C485.738 381.7 491.201 382.433 491.254 382.442L491.148 383.287L491.146 383.281Z" fill="black"/>
<path d="M277.944 275.241L155.835 300.288C153.571 300.753 151.36 299.289 150.896 297.019L135.808 223.1C135.345 220.83 136.805 218.614 139.069 218.149L261.178 193.102C263.442 192.637 265.654 194.101 266.117 196.371L281.205 270.29C281.668 272.56 280.208 274.776 277.944 275.241Z" fill="#001904"/>
<g opacity="0.1">
<path d="M229.447 267.69C241.013 256.095 241.013 237.296 229.447 225.701C217.881 214.106 199.129 214.106 187.562 225.701C175.996 237.296 175.996 256.095 187.562 267.69C199.129 279.285 217.881 279.285 229.447 267.69Z" fill="white"/>
</g>
<path d="M159.074 271.609C159.041 272.034 158.94 272.398 158.775 272.697C158.611 272.997 158.387 273.238 158.105 273.42C157.823 273.602 157.488 273.733 157.1 273.811C156.712 273.89 156.352 273.904 156.02 273.848C155.685 273.792 155.383 273.657 155.115 273.448C154.844 273.238 154.613 272.941 154.414 272.563C154.216 272.185 154.06 271.712 153.945 271.147L153.663 269.767C153.549 269.202 153.507 268.706 153.54 268.281C153.574 267.855 153.675 267.492 153.839 267.192C154.004 266.893 154.23 266.649 154.515 266.467C154.8 266.285 155.137 266.154 155.523 266.072C155.911 265.994 156.268 265.983 156.6 266.039C156.93 266.095 157.231 266.229 157.499 266.439C157.77 266.649 158.002 266.946 158.2 267.324C158.398 267.701 158.555 268.174 158.669 268.74L158.951 270.12C159.066 270.685 159.108 271.18 159.074 271.606V271.609ZM157.742 268.93C157.656 268.502 157.541 268.141 157.407 267.853C157.271 267.564 157.114 267.34 156.941 267.175C156.765 267.013 156.573 266.907 156.363 266.856C156.151 266.809 155.928 266.806 155.69 266.856C155.453 266.904 155.246 266.993 155.07 267.122C154.895 267.251 154.761 267.424 154.663 267.643C154.565 267.861 154.512 268.13 154.498 268.449C154.484 268.768 154.523 269.14 154.61 269.571L154.892 270.951C154.978 271.379 155.09 271.74 155.227 272.029C155.364 272.317 155.52 272.544 155.693 272.706C155.866 272.868 156.062 272.975 156.271 273.025C156.483 273.075 156.707 273.075 156.944 273.025C157.181 272.977 157.388 272.888 157.564 272.759C157.74 272.63 157.874 272.457 157.971 272.238C158.069 272.02 158.122 271.751 158.136 271.432C158.15 271.113 158.111 270.741 158.024 270.31L157.742 268.93Z" fill="white"/>
<path d="M165.244 270.343C165.211 270.769 165.11 271.132 164.945 271.432C164.781 271.731 164.557 271.972 164.275 272.154C163.993 272.336 163.658 272.467 163.27 272.546C162.882 272.624 162.522 272.638 162.19 272.582C161.855 272.526 161.553 272.392 161.285 272.182C161.014 271.972 160.783 271.675 160.584 271.298C160.386 270.92 160.23 270.447 160.115 269.881L159.833 268.501C159.719 267.936 159.677 267.441 159.71 267.015C159.744 266.59 159.844 266.226 160.009 265.926C160.174 265.627 160.4 265.383 160.685 265.202C160.97 265.02 161.307 264.888 161.693 264.807C162.081 264.728 162.438 264.717 162.77 264.773C163.1 264.829 163.401 264.964 163.669 265.174C163.94 265.383 164.172 265.68 164.37 266.058C164.568 266.436 164.725 266.909 164.839 267.474L165.121 268.854C165.236 269.419 165.278 269.915 165.244 270.34V270.343ZM163.912 267.665C163.826 267.236 163.711 266.875 163.577 266.587C163.44 266.299 163.284 266.075 163.111 265.91C162.935 265.747 162.742 265.641 162.533 265.591C162.321 265.543 162.098 265.54 161.86 265.591C161.623 265.638 161.416 265.728 161.24 265.856C161.065 265.985 160.931 266.159 160.833 266.377C160.735 266.595 160.682 266.864 160.668 267.183C160.654 267.502 160.693 267.874 160.78 268.305L161.062 269.685C161.148 270.114 161.263 270.475 161.397 270.763C161.534 271.051 161.69 271.278 161.863 271.44C162.036 271.603 162.232 271.709 162.441 271.759C162.653 271.81 162.876 271.81 163.114 271.759C163.351 271.712 163.558 271.622 163.734 271.493C163.91 271.365 164.044 271.191 164.141 270.973C164.239 270.755 164.292 270.486 164.306 270.167C164.32 269.848 164.281 269.475 164.194 269.044L163.912 267.665Z" fill="white"/>
<path d="M170.51 264.906C170.591 265.309 170.56 265.678 170.418 266.017C170.273 266.355 169.996 266.733 169.583 267.153L168.737 268.018C168.489 268.267 168.29 268.494 168.14 268.698C167.989 268.902 167.88 269.101 167.807 269.294C167.737 269.487 167.698 269.678 167.69 269.868C167.682 270.058 167.701 270.265 167.749 270.489L167.793 270.705L171.23 270C171.283 269.988 171.336 269.994 171.381 270.016C171.428 270.039 171.456 270.078 171.468 270.131L171.56 270.582C171.571 270.638 171.56 270.685 171.526 270.727C171.493 270.769 171.448 270.797 171.395 270.808L167.352 271.637C167.299 271.648 167.249 271.637 167.199 271.609C167.151 271.581 167.12 271.539 167.109 271.483L166.942 270.654C166.833 270.123 166.855 269.613 167.006 269.121C167.157 268.628 167.475 268.138 167.958 267.648L168.849 266.742C169.03 266.554 169.178 266.395 169.293 266.257C169.407 266.12 169.494 265.992 169.549 265.871C169.605 265.751 169.639 265.628 169.644 265.505C169.653 265.381 169.639 265.247 169.608 265.096C169.533 264.729 169.362 264.486 169.092 264.365C168.824 264.248 168.413 264.245 167.863 264.357C167.598 264.41 167.305 264.489 166.986 264.586C166.665 264.684 166.367 264.782 166.09 264.883L166.048 264.892C165.939 264.914 165.872 264.864 165.847 264.74L165.775 264.377C165.764 264.321 165.775 264.276 165.805 264.239C165.836 264.203 165.878 264.175 165.931 264.15C166.174 264.027 166.456 263.918 166.771 263.817C167.087 263.716 167.4 263.635 167.704 263.57C168.533 263.4 169.175 263.422 169.63 263.635C170.086 263.848 170.376 264.27 170.507 264.903L170.51 264.906Z" fill="white"/>
<path d="M176.251 269.746C176.225 269.794 176.184 269.825 176.131 269.836L175.569 269.951C175.514 269.962 175.466 269.951 175.424 269.917C175.382 269.884 175.354 269.839 175.343 269.786L174.031 263.354L172.833 264.196C172.789 264.227 172.747 264.247 172.708 264.255C172.646 264.266 172.607 264.235 172.593 264.163L172.487 263.642C172.481 263.608 172.484 263.58 172.498 263.561C172.512 263.541 172.535 263.516 172.562 263.488L173.953 262.436C174.025 262.377 174.092 262.343 174.154 262.329L174.573 262.243C174.626 262.231 174.676 262.243 174.721 262.271C174.765 262.301 174.793 262.343 174.804 262.397L176.273 269.595C176.284 269.651 176.276 269.702 176.251 269.749V269.746Z" fill="white"/>
<path d="M189.294 265.406C189.26 265.831 189.16 266.195 188.995 266.494C188.83 266.794 188.607 267.035 188.325 267.216C188.043 267.398 187.708 267.53 187.32 267.608C186.932 267.687 186.572 267.701 186.239 267.645C185.904 267.589 185.603 267.454 185.335 267.244C185.064 267.035 184.832 266.738 184.634 266.36C184.436 265.982 184.28 265.509 184.165 264.944L183.883 263.564C183.769 262.999 183.727 262.503 183.76 262.078C183.794 261.652 183.894 261.288 184.059 260.989C184.224 260.689 184.45 260.446 184.735 260.264C185.019 260.082 185.357 259.951 185.743 259.869C186.131 259.791 186.488 259.78 186.82 259.836C187.15 259.892 187.451 260.026 187.719 260.236C187.99 260.446 188.222 260.743 188.42 261.12C188.618 261.498 188.775 261.971 188.889 262.537L189.171 263.917C189.285 264.482 189.327 264.977 189.294 265.403V265.406ZM187.962 262.727C187.876 262.299 187.761 261.938 187.627 261.649C187.49 261.361 187.334 261.137 187.161 260.972C186.985 260.81 186.792 260.703 186.583 260.653C186.371 260.605 186.147 260.603 185.91 260.653C185.673 260.701 185.466 260.79 185.29 260.919C185.114 261.048 184.98 261.221 184.883 261.44C184.785 261.658 184.732 261.927 184.718 262.246C184.704 262.565 184.743 262.937 184.83 263.368L185.112 264.748C185.198 265.176 185.31 265.537 185.447 265.825C185.583 266.114 185.74 266.34 185.913 266.503C186.086 266.665 186.281 266.771 186.491 266.822C186.703 266.872 186.926 266.872 187.164 266.822C187.401 266.774 187.608 266.685 187.783 266.556C187.959 266.427 188.093 266.254 188.191 266.035C188.289 265.817 188.342 265.548 188.356 265.229C188.37 264.91 188.331 264.538 188.244 264.107L187.962 262.727Z" fill="white"/>
<path d="M195.28 264.726C195.21 265.028 195.082 265.291 194.894 265.512C194.707 265.736 194.467 265.921 194.174 266.069C193.881 266.218 193.549 266.33 193.175 266.408C192.848 266.475 192.535 266.517 192.239 266.534C191.941 266.551 191.664 266.559 191.41 266.553C191.352 266.553 191.301 266.537 191.259 266.514C191.215 266.492 191.187 266.453 191.176 266.397L191.103 266.044C191.081 265.929 191.125 265.859 191.24 265.834L191.271 265.829C191.586 265.806 191.893 265.778 192.2 265.745C192.505 265.711 192.775 265.669 193.016 265.621C193.574 265.507 193.954 265.314 194.16 265.036C194.367 264.759 194.42 264.379 194.319 263.889L194.275 263.676C194.247 263.539 194.199 263.405 194.132 263.265C194.065 263.128 193.973 263.004 193.856 262.901C193.739 262.797 193.596 262.722 193.429 262.677C193.258 262.629 193.06 262.629 192.828 262.677L190.972 263.058C190.843 263.083 190.765 263.035 190.74 262.912L190.667 262.554C190.642 262.425 190.693 262.347 190.821 262.319L192.678 261.938C192.923 261.888 193.116 261.809 193.256 261.703C193.398 261.597 193.499 261.473 193.557 261.339C193.619 261.202 193.649 261.059 193.655 260.911C193.66 260.763 193.649 260.62 193.621 260.483L193.593 260.34C193.507 259.92 193.325 259.637 193.043 259.492C192.761 259.349 192.334 259.335 191.756 259.453C191.458 259.514 191.184 259.587 190.936 259.668C190.687 259.752 190.399 259.847 190.076 259.956L190.045 259.962C189.93 259.984 189.861 259.94 189.835 259.822L189.76 259.458C189.749 259.411 189.76 259.366 189.791 259.324C189.822 259.282 189.861 259.248 189.914 259.223C190.148 259.117 190.405 259.016 190.684 258.912C190.963 258.812 191.268 258.728 191.594 258.661C191.974 258.582 192.329 258.543 192.655 258.543C192.982 258.543 193.27 258.599 193.524 258.711C193.778 258.823 193.99 258.991 194.163 259.218C194.336 259.444 194.462 259.749 194.54 260.13L194.568 260.273C194.638 260.62 194.621 260.95 194.515 261.264C194.409 261.577 194.21 261.843 193.923 262.067C194.124 262.117 194.3 262.193 194.448 262.291C194.596 262.389 194.721 262.501 194.825 262.629C194.928 262.758 195.012 262.892 195.079 263.035C195.143 263.178 195.19 263.323 195.221 263.475L195.266 263.69C195.344 264.071 195.347 264.415 195.28 264.715V264.726Z" fill="white"/>
<path d="M201.453 263.46C201.383 263.762 201.254 264.025 201.067 264.247C200.88 264.471 200.64 264.655 200.347 264.804C200.054 264.952 199.722 265.064 199.347 265.142C199.021 265.209 198.708 265.251 198.412 265.268C198.113 265.285 197.837 265.293 197.583 265.288C197.524 265.288 197.474 265.271 197.432 265.249C197.388 265.226 197.36 265.187 197.348 265.131L197.276 264.778C197.254 264.664 197.298 264.594 197.413 264.568L197.443 264.563C197.759 264.54 198.066 264.512 198.373 264.479C198.677 264.445 198.948 264.403 199.188 264.356C199.747 264.241 200.126 264.048 200.333 263.771C200.54 263.494 200.593 263.113 200.492 262.623L200.448 262.411C200.42 262.273 200.372 262.139 200.305 261.999C200.238 261.862 200.146 261.739 200.029 261.635C199.911 261.532 199.769 261.456 199.602 261.411C199.434 261.364 199.233 261.364 199.001 261.411L197.145 261.792C197.016 261.817 196.938 261.77 196.913 261.646L196.84 261.288C196.815 261.159 196.865 261.081 196.994 261.053L198.851 260.672C199.096 260.622 199.289 260.544 199.428 260.437C199.571 260.331 199.671 260.208 199.73 260.073C199.791 259.936 199.822 259.794 199.828 259.645C199.833 259.497 199.822 259.354 199.794 259.217L199.766 259.074C199.68 258.654 199.498 258.372 199.216 258.226C198.934 258.083 198.507 258.069 197.929 258.187C197.63 258.249 197.357 258.321 197.108 258.402C196.86 258.486 196.572 258.582 196.248 258.691L196.218 258.696C196.103 258.719 196.033 258.674 196.008 258.556L195.933 258.193C195.922 258.145 195.933 258.1 195.964 258.058C195.994 258.016 196.033 257.983 196.086 257.957C196.321 257.851 196.578 257.75 196.857 257.647C197.136 257.546 197.441 257.462 197.767 257.395C198.147 257.317 198.502 257.277 198.828 257.277C199.155 257.277 199.442 257.333 199.696 257.445C199.951 257.557 200.163 257.725 200.336 257.952C200.509 258.179 200.635 258.484 200.713 258.864L200.741 259.007C200.81 259.354 200.794 259.684 200.688 259.998C200.582 260.311 200.383 260.577 200.096 260.801C200.297 260.852 200.473 260.927 200.621 261.025C200.769 261.123 200.894 261.235 200.998 261.364C201.101 261.492 201.185 261.627 201.252 261.77C201.316 261.912 201.363 262.058 201.394 262.209L201.439 262.425C201.517 262.805 201.52 263.149 201.453 263.449V263.46Z" fill="white"/>
<path d="M206.467 263.543C206.442 263.591 206.4 263.622 206.347 263.633L205.786 263.748C205.73 263.759 205.683 263.748 205.641 263.714C205.599 263.68 205.571 263.636 205.56 263.582L204.248 257.151L203.05 257.993C203.005 258.024 202.964 258.043 202.924 258.052C202.863 258.063 202.824 258.032 202.81 257.96L202.704 257.439C202.698 257.405 202.701 257.377 202.715 257.358C202.729 257.338 202.751 257.313 202.779 257.285L204.17 256.233C204.242 256.174 204.309 256.14 204.371 256.126L204.789 256.039C204.842 256.028 204.893 256.039 204.937 256.067C204.982 256.098 205.01 256.14 205.021 256.193L206.49 263.392C206.501 263.445 206.493 263.499 206.467 263.546V263.543Z" fill="white"/>
<path d="M219.612 258.805L218.724 258.987L219.095 260.806C219.107 260.862 219.101 260.913 219.079 260.96C219.056 261.008 219.017 261.036 218.961 261.047L218.364 261.17C218.308 261.182 218.261 261.17 218.222 261.137C218.183 261.103 218.157 261.058 218.146 261.002L217.775 259.183L214.835 259.785C214.679 259.816 214.564 259.81 214.492 259.765C214.419 259.721 214.366 259.623 214.335 259.471L214.257 259.082C214.229 258.94 214.243 258.805 214.302 258.679L216.446 253.818C216.465 253.77 216.491 253.728 216.524 253.683C216.558 253.641 216.619 253.61 216.706 253.594L217.314 253.468C217.493 253.431 217.599 253.487 217.63 253.638L218.559 258.201L219.447 258.019C219.503 258.008 219.551 258.016 219.595 258.041C219.64 258.069 219.668 258.108 219.679 258.164L219.763 258.579C219.788 258.702 219.735 258.777 219.606 258.805H219.612ZM216.915 254.906C216.907 254.864 216.89 254.848 216.862 254.853H216.851C216.823 254.862 216.8 254.887 216.781 254.934L215.117 258.76C215.103 258.791 215.097 258.822 215.103 258.847C215.111 258.889 215.142 258.903 215.198 258.892L217.627 258.394L216.915 254.906Z" fill="white"/>
<path d="M225.592 258.043C225.559 258.451 225.455 258.801 225.279 259.092C225.106 259.383 224.863 259.621 224.553 259.8C224.244 259.982 223.869 260.117 223.437 260.206C223.029 260.29 222.683 260.343 222.401 260.366C222.119 260.388 221.868 260.397 221.647 260.391C221.577 260.391 221.513 260.383 221.46 260.366C221.407 260.349 221.373 260.307 221.362 260.245L221.278 259.842C221.267 259.781 221.273 259.73 221.301 259.694C221.329 259.658 221.371 259.632 221.424 259.621C221.438 259.621 221.449 259.618 221.454 259.621C221.463 259.621 221.471 259.621 221.485 259.621C221.756 259.621 222.038 259.607 222.331 259.576C222.624 259.546 222.937 259.495 223.264 259.428C223.657 259.347 223.959 259.227 224.168 259.067C224.378 258.908 224.523 258.717 224.604 258.496C224.685 258.275 224.715 258.02 224.693 257.735C224.671 257.449 224.626 257.141 224.556 256.808L224.534 256.696C224.327 256.789 224.104 256.884 223.864 256.979C223.624 257.074 223.347 257.153 223.035 257.217C222.702 257.284 222.376 257.318 222.06 257.309C221.745 257.304 221.454 257.242 221.189 257.127C220.924 257.01 220.695 256.828 220.505 256.582C220.312 256.333 220.176 256.005 220.092 255.596L220.081 255.535C219.916 254.723 219.991 254.049 220.31 253.506C220.628 252.965 221.206 252.607 222.041 252.436C222.808 252.28 223.462 252.389 223.998 252.764C224.534 253.139 224.905 253.83 225.112 254.832L225.478 256.621C225.589 257.167 225.628 257.642 225.595 258.051L225.592 258.043ZM224.19 255.006C224.107 254.592 224.001 254.253 223.878 253.993C223.755 253.732 223.61 253.534 223.442 253.397C223.278 253.259 223.09 253.178 222.881 253.15C222.674 253.122 222.448 253.133 222.203 253.184C221.965 253.231 221.756 253.307 221.574 253.408C221.393 253.508 221.248 253.646 221.136 253.816C221.024 253.987 220.957 254.197 220.929 254.443C220.902 254.69 220.924 254.986 220.994 255.333L221.005 255.395C221.061 255.666 221.15 255.885 221.276 256.05C221.401 256.215 221.549 256.335 221.722 256.411C221.893 256.486 222.077 256.526 222.272 256.531C222.468 256.537 222.669 256.52 222.873 256.478C222.996 256.453 223.127 256.422 223.266 256.38C223.406 256.341 223.546 256.299 223.682 256.251C223.819 256.207 223.948 256.159 224.068 256.109C224.188 256.058 224.291 256.016 224.375 255.977L224.188 255.006H224.19Z" fill="white"/>
<path d="M230.95 252.507C231.031 252.91 231.001 253.28 230.858 253.618C230.713 253.957 230.437 254.335 230.023 254.755L229.177 255.62C228.929 255.869 228.731 256.095 228.58 256.3C228.429 256.504 228.32 256.703 228.248 256.896C228.178 257.089 228.139 257.279 228.13 257.47C228.122 257.66 228.142 257.867 228.189 258.091L228.234 258.306L231.671 257.601C231.724 257.59 231.777 257.596 231.821 257.618C231.869 257.64 231.897 257.679 231.908 257.733L232 258.183C232.011 258.239 232 258.287 231.967 258.329C231.933 258.371 231.888 258.399 231.835 258.41L227.793 259.238C227.74 259.25 227.689 259.238 227.639 259.21C227.592 259.182 227.561 259.141 227.55 259.085L227.382 258.256C227.273 257.724 227.296 257.215 227.446 256.722C227.597 256.23 227.915 255.74 228.398 255.25L229.289 254.343C229.471 254.156 229.619 253.996 229.733 253.859C229.848 253.722 229.934 253.593 229.99 253.473C230.046 253.352 230.079 253.229 230.085 253.106C230.093 252.983 230.079 252.849 230.049 252.697C229.973 252.331 229.803 252.087 229.532 251.967C229.264 251.849 228.854 251.847 228.304 251.959C228.038 252.012 227.745 252.09 227.427 252.188C227.106 252.286 226.807 252.384 226.531 252.485L226.489 252.493C226.38 252.516 226.313 252.465 226.288 252.342L226.215 251.978C226.204 251.922 226.215 251.877 226.246 251.841C226.277 251.805 226.318 251.777 226.372 251.751C226.614 251.628 226.896 251.519 227.212 251.418C227.527 251.318 227.84 251.236 228.144 251.172C228.974 251.001 229.616 251.024 230.071 251.236C230.526 251.449 230.816 251.872 230.948 252.504L230.95 252.507Z" fill="white"/>
<path d="M236.687 257.348C236.662 257.396 236.62 257.426 236.567 257.438L236.006 257.552C235.95 257.563 235.903 257.552 235.861 257.519C235.819 257.485 235.791 257.44 235.78 257.387L234.468 250.955L233.27 251.798C233.225 251.829 233.183 251.848 233.144 251.857C233.083 251.868 233.044 251.837 233.03 251.764L232.924 251.244C232.918 251.21 232.921 251.182 232.935 251.162C232.949 251.143 232.971 251.118 232.999 251.09L234.389 250.037C234.462 249.978 234.529 249.945 234.59 249.931L235.009 249.844C235.062 249.833 235.112 249.844 235.157 249.872C235.202 249.903 235.23 249.945 235.241 249.998L236.709 257.197C236.721 257.25 236.712 257.303 236.687 257.351V257.348Z" fill="white"/>
<path d="M248.829 248.835C248.91 249.238 248.879 249.608 248.737 249.946C248.592 250.285 248.315 250.663 247.902 251.083L247.056 251.948C246.808 252.197 246.61 252.423 246.459 252.628C246.308 252.832 246.199 253.031 246.127 253.224C246.057 253.417 246.018 253.607 246.009 253.798C246.001 253.988 246.021 254.195 246.068 254.419L246.113 254.635L249.55 253.929C249.603 253.918 249.656 253.924 249.7 253.946C249.748 253.968 249.776 254.008 249.787 254.061L249.879 254.511C249.89 254.567 249.879 254.615 249.845 254.657C249.812 254.699 249.767 254.727 249.714 254.738L245.672 255.567C245.618 255.578 245.568 255.567 245.518 255.539C245.471 255.511 245.44 255.469 245.429 255.413L245.261 254.584C245.152 254.052 245.175 253.543 245.325 253.05C245.476 252.558 245.794 252.068 246.277 251.578L247.168 250.671C247.349 250.484 247.497 250.324 247.612 250.187C247.726 250.05 247.813 249.921 247.869 249.801C247.925 249.681 247.958 249.557 247.964 249.434C247.972 249.311 247.958 249.177 247.927 249.026C247.852 248.659 247.682 248.415 247.411 248.295C247.143 248.177 246.732 248.175 246.182 248.287C245.917 248.34 245.624 248.418 245.306 248.516C244.985 248.614 244.686 248.712 244.41 248.813L244.368 248.821C244.259 248.844 244.192 248.793 244.167 248.67L244.094 248.306C244.083 248.25 244.094 248.205 244.125 248.169C244.155 248.133 244.197 248.105 244.25 248.08C244.493 247.956 244.775 247.847 245.091 247.746C245.406 247.646 245.719 247.565 246.023 247.5C246.853 247.329 247.495 247.352 247.95 247.565C248.405 247.777 248.695 248.2 248.826 248.832L248.829 248.835Z" fill="white"/>
<path d="M255.904 251.742C255.871 252.167 255.77 252.531 255.605 252.83C255.441 253.13 255.217 253.37 254.935 253.552C254.653 253.734 254.318 253.866 253.93 253.944C253.542 254.023 253.182 254.037 252.85 253.981C252.515 253.925 252.213 253.79 251.945 253.58C251.674 253.37 251.443 253.074 251.244 252.696C251.046 252.318 250.89 251.845 250.775 251.28L250.493 249.9C250.379 249.334 250.337 248.839 250.371 248.414C250.404 247.988 250.505 247.624 250.669 247.325C250.834 247.025 251.06 246.782 251.345 246.6C251.63 246.418 251.968 246.286 252.353 246.205C252.741 246.127 253.098 246.116 253.431 246.172C253.76 246.228 254.062 246.362 254.33 246.572C254.6 246.782 254.832 247.079 255.03 247.456C255.229 247.834 255.385 248.307 255.499 248.873L255.781 250.252C255.896 250.818 255.938 251.313 255.904 251.739V251.742ZM254.572 249.063C254.486 248.635 254.371 248.274 254.237 247.985C254.101 247.697 253.944 247.473 253.771 247.308C253.595 247.146 253.403 247.039 253.193 246.989C252.981 246.941 252.758 246.939 252.52 246.989C252.283 247.037 252.076 247.126 251.901 247.255C251.725 247.384 251.591 247.557 251.493 247.775C251.395 247.994 251.342 248.262 251.328 248.582C251.314 248.901 251.353 249.273 251.44 249.704L251.722 251.084C251.808 251.512 251.92 251.873 252.057 252.161C252.194 252.45 252.35 252.676 252.523 252.839C252.696 253.001 252.892 253.107 253.101 253.158C253.313 253.208 253.537 253.208 253.774 253.158C254.011 253.11 254.218 253.021 254.394 252.892C254.57 252.763 254.704 252.59 254.801 252.371C254.899 252.153 254.952 251.884 254.966 251.565C254.98 251.246 254.941 250.874 254.854 250.443L254.572 249.063Z" fill="white"/>
<path d="M261.17 246.307C261.251 246.71 261.22 247.079 261.078 247.418C260.933 247.757 260.656 248.134 260.243 248.554L259.397 249.419C259.149 249.668 258.95 249.895 258.8 250.099C258.649 250.304 258.54 250.502 258.467 250.695C258.398 250.889 258.359 251.079 258.35 251.269C258.342 251.46 258.361 251.667 258.409 251.891L258.453 252.106L261.89 251.401C261.943 251.39 261.996 251.395 262.041 251.418C262.089 251.44 262.117 251.479 262.128 251.532L262.22 251.983C262.231 252.039 262.22 252.087 262.186 252.129C262.153 252.17 262.108 252.198 262.055 252.21L258.012 253.038C257.959 253.049 257.909 253.038 257.859 253.01C257.811 252.982 257.781 252.94 257.769 252.884L257.602 252.056C257.493 251.524 257.515 251.015 257.666 250.522C257.817 250.029 258.135 249.54 258.618 249.05L259.509 248.143C259.69 247.955 259.838 247.796 259.953 247.659C260.067 247.522 260.154 247.393 260.21 247.272C260.265 247.152 260.299 247.029 260.305 246.906C260.313 246.783 260.299 246.648 260.268 246.497C260.193 246.13 260.023 245.887 259.752 245.767C259.484 245.649 259.073 245.646 258.523 245.758C258.258 245.811 257.965 245.89 257.647 245.985C257.326 246.083 257.027 246.181 256.75 246.282L256.709 246.29C256.6 246.312 256.533 246.262 256.507 246.139L256.435 245.775C256.424 245.719 256.435 245.674 256.466 245.638C256.496 245.601 256.538 245.573 256.591 245.548C256.834 245.425 257.116 245.316 257.432 245.215C257.747 245.114 258.06 245.033 258.364 244.969C259.193 244.798 259.835 244.821 260.291 245.033C260.746 245.246 261.036 245.669 261.167 246.301L261.17 246.307Z" fill="white"/>
<path d="M266.907 251.149C266.882 251.196 266.84 251.227 266.787 251.238L266.226 251.353C266.17 251.364 266.122 251.353 266.08 251.319C266.039 251.286 266.011 251.241 265.999 251.188L264.687 244.756L263.49 245.599C263.445 245.629 263.403 245.649 263.364 245.657C263.302 245.669 263.263 245.638 263.249 245.565L263.143 245.044C263.138 245.011 263.141 244.983 263.154 244.963C263.168 244.944 263.191 244.918 263.219 244.89L264.609 243.838C264.682 243.779 264.749 243.746 264.81 243.732L265.229 243.645C265.285 243.634 265.332 243.645 265.377 243.673C265.422 243.704 265.449 243.746 265.461 243.799L266.929 250.998C266.94 251.051 266.932 251.104 266.907 251.152V251.149Z" fill="white"/>
<path d="M176.887 275.359L156.065 279.629L157.286 285.609L178.107 281.34L176.887 275.359Z" fill="white"/>
<path d="M258.674 197.574L237.853 201.844L238.584 205.43L259.406 201.161L258.674 197.574Z" fill="white"/>
<path d="M259.98 203.985L222.818 211.605L223.55 215.192L260.712 207.572L259.98 203.985Z" fill="white"/>
<path d="M249.045 269.623L157.842 288.324L159.062 294.305L250.266 275.603L249.045 269.623Z" fill="white"/>
<path d="M264.671 269.516C265.008 271.167 263.945 272.78 262.297 273.118C260.65 273.457 259.042 272.39 258.704 270.739C258.366 269.088 259.43 267.476 261.077 267.137C262.725 266.798 264.333 267.865 264.671 269.516Z" fill="white"/>
<path d="M273.022 267.801C273.36 269.453 272.296 271.065 270.649 271.403C269.002 271.742 267.394 270.676 267.056 269.024C266.718 267.373 267.782 265.761 269.429 265.422C271.076 265.083 272.684 266.15 273.022 267.801Z" fill="white"/>
<path d="M162.531 221.718L164.652 232.119C164.761 232.648 164.421 233.165 163.893 233.275L146.145 236.916C145.614 237.025 145.098 236.681 144.989 236.155L142.867 225.754C142.758 225.222 143.101 224.704 143.629 224.595L161.377 220.954C161.908 220.845 162.422 221.189 162.531 221.718Z" fill="#FECC86"/>
<path d="M153.097 228.491L143.816 230.394L143.716 229.905L152.51 228.102L151.871 224.976L152.36 224.875L153.097 228.491Z" fill="#EFA348"/>
<path d="M156.047 234.88L155.559 234.981L154.573 230.144L163.862 228.238L163.963 228.728L155.16 230.533L156.047 234.88Z" fill="#EFA348"/>
<path d="M156.123 222.017L155.636 222.117L156.694 227.3L157.181 227.2L156.123 222.017Z" fill="#EFA348"/>
<path d="M162.864 223.424L156.395 224.75L156.494 225.238L162.963 223.912L162.864 223.424Z" fill="#EFA348"/>
<path d="M150.156 233.823L149.668 233.923L149.324 232.247L144.399 233.257L144.299 232.767L149.712 231.656L150.156 233.823Z" fill="#EFA348"/>
<path d="M278.46 275.519L155.467 300.749C153.25 301.205 151.075 299.764 150.62 297.541L135.351 222.735C134.896 220.513 136.331 218.332 138.55 217.876L261.544 192.647C263.761 192.191 265.936 193.632 266.391 195.854L281.66 270.661C282.115 272.883 280.68 275.063 278.46 275.519ZM138.701 218.612C136.886 218.984 135.714 220.767 136.085 222.587L151.354 297.393C151.726 299.212 153.504 300.388 155.319 300.015L278.312 274.786C280.127 274.414 281.3 272.631 280.929 270.812L265.659 196.005C265.288 194.186 263.51 193.011 261.695 193.383L138.701 218.612Z" fill="#1D1D1B"/>
<path d="M453.753 279.893C468.009 265.601 468.009 242.43 453.753 228.139C439.497 213.847 416.383 213.847 402.127 228.139C387.871 242.43 387.871 265.601 402.127 279.893C416.383 294.184 439.497 294.184 453.753 279.893Z" fill="white"/>
<path d="M421.157 272.661L407.39 253.466C406.74 252.556 406.943 251.291 407.851 250.639C408.758 249.987 410.02 250.194 410.671 251.101L421.305 265.926L447.89 232.116C448.582 231.237 449.853 231.086 450.729 231.78C451.606 232.474 451.757 233.747 451.064 234.626L421.157 272.663V272.661Z" fill="#161819"/>
<path d="M440.391 284.069L455.445 298.981L448.85 275.297L440.391 284.069Z" fill="white"/>
<path d="M460.471 318.746H398.04V321.856H460.471V318.746Z" fill="white"/>
<path d="M460.471 331.617H398.04V334.727H460.471V331.617Z" fill="white"/>
<path d="M266.421 148.757C263.275 148.497 260.22 147.641 257.347 146.208L258.104 144.682C260.784 146.017 263.629 146.818 266.561 147.058L266.421 148.757ZM275.791 148.027L275.383 146.373C278.281 145.653 280.987 144.444 283.433 142.773L284.39 144.181C281.78 145.967 278.887 147.26 275.791 148.027ZM249.745 140.68C247.634 138.589 245.685 136.115 243.954 133.327L245.398 132.426C247.059 135.102 248.921 137.469 250.94 139.468L249.745 140.68ZM291.133 137.607L289.759 136.602C291.476 134.248 292.844 131.589 293.833 128.698L295.441 129.249C294.399 132.303 292.948 135.116 291.133 137.609V137.607ZM158.741 134.186L157.044 134.074C157.248 131.007 157.633 127.906 158.194 124.86L159.867 125.168C159.317 128.149 158.94 131.183 158.741 134.186ZM239.794 124.978C238.68 122.154 237.759 119.162 237.056 116.083L238.714 115.702C239.398 118.697 240.294 121.608 241.378 124.351L239.797 124.978H239.794ZM297.258 120.041L295.564 119.926C295.617 119.117 295.645 118.289 295.645 117.463C295.645 115.324 295.46 113.139 295.097 110.967L296.775 110.687C297.152 112.951 297.345 115.232 297.345 117.463C297.345 118.325 297.317 119.193 297.258 120.038V120.041ZM162.022 116.338L160.397 115.839C161.293 112.898 162.371 109.965 163.597 107.127L165.157 107.804C163.957 110.583 162.901 113.455 162.025 116.338H162.022ZM235.609 106.911C235.28 103.799 235.048 100.697 234.917 97.6942L236.614 97.6186C236.746 100.585 236.975 103.65 237.301 106.729L235.609 106.908V106.911ZM292.699 102.298C291.635 99.5611 290.281 96.8462 288.673 94.232L290.119 93.3363C291.783 96.0401 293.182 98.8474 294.282 101.68L292.699 102.298ZM169.217 99.6702L167.74 98.825C169.267 96.1436 170.962 93.5238 172.774 91.0328L174.147 92.0376C172.372 94.4783 170.713 97.0477 169.217 99.673V99.6702ZM446.591 99.6311L444.972 99.1161C445.902 96.1772 446.628 93.216 447.127 90.3107L448.802 90.599C448.289 93.5798 447.546 96.6166 446.594 99.6311H446.591ZM236.525 88.4942L234.825 88.4494C234.903 85.3203 235.101 82.2163 235.414 79.2243L237.106 79.4006C236.799 82.3478 236.603 85.407 236.525 88.4942ZM283.335 86.9408C281.425 84.7129 279.284 82.5466 276.975 80.4978L278.103 79.2215C280.47 81.3206 282.665 83.5458 284.625 85.8297L283.335 86.9408ZM179.896 84.9984L178.642 83.8453C180.736 81.5585 182.97 79.3782 185.284 77.3714L186.396 78.6589C184.129 80.6237 181.943 82.7565 179.893 84.9956L179.896 84.9984ZM449.687 81.3318L447.987 81.3011C447.993 80.9624 447.996 80.6237 447.996 80.285C447.996 77.6093 447.803 74.9196 447.42 72.2914L449.101 72.0451C449.495 74.7544 449.696 77.5253 449.693 80.285C449.693 80.6321 449.69 80.982 449.685 81.3318H449.687ZM269.844 74.8944C267.736 73.4249 265.483 72.0003 263.149 70.6596C262.811 70.4665 262.476 70.2762 262.138 70.0887L262.959 68.5968C263.303 68.7872 263.649 68.9803 263.992 69.179C266.371 70.5421 268.666 71.9947 270.813 73.4949L269.841 74.8944H269.844ZM193.596 73.1367L192.647 71.7232C195.227 69.9823 197.918 68.4009 200.646 67.0239L201.411 68.5465C198.747 69.8899 196.12 71.4349 193.599 73.1367H193.596ZM238.44 70.3965L236.771 70.0719C237.365 67.0015 238.108 63.9759 238.971 61.079L240.599 61.566C239.75 64.4097 239.024 67.3821 238.438 70.3965H238.44ZM253.964 66.1954C251.135 65.0618 248.24 64.1214 245.359 63.4021L245.769 61.7479C248.726 62.4868 251.694 63.4525 254.592 64.614L253.961 66.1954H253.964ZM209.739 65.0198L209.184 63.4077C212.118 62.3917 215.13 61.58 218.135 60.995L218.458 62.6688C215.532 63.2397 212.598 64.029 209.736 65.0198H209.739ZM445.399 63.4944C444.503 60.6676 443.361 57.8491 442.004 55.1201L443.526 54.3588C444.922 57.1661 446.097 60.0658 447.021 62.9766L445.402 63.4916L445.399 63.4944ZM236.455 61.8403C233.462 61.538 230.422 61.454 227.426 61.5912L227.348 59.8895C230.427 59.7467 233.552 59.8335 236.628 60.1442L236.458 61.8403H236.455ZM243.65 53.0154L242.084 52.3548C243.287 49.4887 244.655 46.687 246.152 44.0281L247.631 44.865C246.166 47.4679 244.826 50.2109 243.65 53.0182V53.0154ZM437.406 47.3224C435.739 44.8929 433.86 42.4915 431.816 40.1824L433.089 39.0516C435.178 41.4111 437.101 43.8685 438.807 46.3568L437.406 47.3224ZM252.542 37.2407L251.172 36.2331C252.989 33.7505 254.983 31.3519 257.093 29.0987L258.333 30.2659C256.27 32.4658 254.321 34.8141 252.542 37.2407ZM425.434 33.7253C423.248 31.7353 420.889 29.7873 418.42 27.9372L419.44 26.5741C421.949 28.4578 424.351 30.4394 426.576 32.4658L425.434 33.7281V33.7253ZM264.916 24.0299L263.822 22.7257C266.15 20.7636 268.644 18.8968 271.232 17.1726L272.173 18.5917C269.638 20.2794 267.197 22.1099 264.916 24.0327V24.0299ZM410.916 22.79C408.395 21.2086 405.737 19.6832 403.017 18.2558L403.807 16.7472C406.563 18.197 409.26 19.7448 411.818 21.3458L410.916 22.79ZM394.806 14.301C392.064 13.0946 389.217 11.9527 386.347 10.9031L386.927 9.30212C389.834 10.3629 392.715 11.5189 395.49 12.7392L394.806 14.301ZM279.982 13.9623L279.192 12.4537C281.872 11.0458 284.692 9.73595 287.579 8.55762L288.221 10.1362C285.384 11.2949 282.615 12.5824 279.982 13.9623ZM377.683 8.04822C374.791 7.19175 371.823 6.40806 368.861 5.71953L369.243 4.05978C372.239 4.75671 375.24 5.5488 378.163 6.41646L377.68 8.05101L377.683 8.04822ZM296.781 7.0798L296.281 5.45084C299.168 4.55799 302.172 3.7631 305.21 3.08856L305.578 4.75111C302.585 5.41725 299.626 6.20094 296.784 7.0798H296.781ZM359.915 3.91704C356.925 3.40484 353.885 2.97661 350.883 2.64074L351.07 0.947404C354.105 1.28607 357.176 1.7199 360.2 2.2377L359.912 3.91704H359.915ZM314.529 3.10816L314.284 1.42042C317.279 0.98379 320.364 0.642324 323.452 0.407216L323.581 2.10615C320.532 2.33846 317.486 2.67433 314.527 3.10536L314.529 3.10816ZM341.795 1.90183C338.752 1.74509 335.698 1.68352 332.685 1.7171L332.669 0.0125713C335.709 -0.0210155 338.805 0.0433592 341.882 0.200098L341.795 1.90183Z" fill="black"/>
<path d="M441.144 112.658L439.637 111.871C440.34 110.514 441.01 109.137 441.63 107.773L443.177 108.479C442.546 109.867 441.862 111.272 441.144 112.655V112.658Z" fill="black"/>
<path d="M426.405 121.382L416.963 137.697C416.963 137.697 430.627 126.728 430.956 126.465C431.283 126.205 443.433 108.479 443.433 108.479L448.836 106.928L440.262 104.625L426.405 121.382Z" fill="#CC154A"/>
<path d="M440.262 104.624L434.17 98.8047L416.963 137.695L440.262 104.624Z" fill="#001904"/>
<path d="M451.499 116.154L443.433 108.477L416.963 137.694L451.499 116.154Z" fill="#001904"/>
</g>
<defs>
<clipPath id="clip0_3_12590">
<rect width="584" height="491" fill="white"/>
</clipPath>
</defs>
</svg>
