<svg width="32" height="33" viewBox="0 0 32 33" fill="none" xmlns="http://www.w3.org/2000/svg">
<path d="M29.1556 25.2417C29.1556 25.7184 29.0496 26.2084 28.8245 26.6851C28.5994 27.1618 28.3081 27.612 27.9241 28.0358C27.2752 28.7509 26.5601 29.2673 25.7523 29.5984C24.9578 29.9294 24.0971 30.1016 23.1701 30.1016C21.8194 30.1016 20.376 29.7838 18.8532 29.1349C17.3303 28.486 15.8075 27.612 14.2979 26.5129C12.775 25.4006 11.3316 24.1691 9.95441 22.8051C8.59047 21.4279 7.35894 19.9845 6.25984 18.4749C5.17398 16.9653 4.3 15.4557 3.66438 13.9593C3.02875 12.4497 2.71094 11.0063 2.71094 9.62914C2.71094 8.72867 2.86984 7.86793 3.18766 7.0734C3.50547 6.26563 4.00867 5.52406 4.71051 4.86195C5.55801 4.0277 6.48496 3.61719 7.46488 3.61719C7.83566 3.61719 8.20645 3.69664 8.5375 3.85555C8.8818 4.01445 9.18637 4.25281 9.42473 4.59711L12.4969 8.92731C12.7353 9.25836 12.9074 9.56293 13.0266 9.85426C13.1458 10.1323 13.212 10.4104 13.212 10.662C13.212 10.9798 13.1193 11.2977 12.9339 11.6022C12.7618 11.9068 12.5102 12.2246 12.1923 12.5424L11.1859 13.5886C11.0403 13.7342 10.9741 13.9064 10.9741 14.1182C10.9741 14.2242 10.9873 14.3169 11.0138 14.4228C11.0535 14.5287 11.0932 14.6082 11.1197 14.6877C11.3581 15.1246 11.7686 15.6941 12.3512 16.3827C12.9471 17.0712 13.5828 17.7731 14.2714 18.4749C14.9864 19.1768 15.675 19.8256 16.3769 20.4215C17.0655 21.0042 17.6349 21.4014 18.0851 21.6398C18.1513 21.6663 18.2308 21.706 18.3235 21.7457C18.4294 21.7855 18.5354 21.7987 18.6545 21.7987C18.8796 21.7987 19.0518 21.7193 19.1975 21.5736L20.2039 20.5804C20.5349 20.2494 20.8527 19.9978 21.1573 19.8389C21.4619 19.6535 21.7664 19.5608 22.0975 19.5608C22.3491 19.5608 22.6139 19.6138 22.9053 19.7329C23.1966 19.8521 23.5012 20.0243 23.8322 20.2494L28.2154 23.3613C28.5597 23.5996 28.798 23.8777 28.9437 24.2088C29.0761 24.5398 29.1556 24.8709 29.1556 25.2417Z" fill="#28A745"/>
</svg>
