<svg width="32" height="32" viewBox="0 0 32 32" fill="none" xmlns="http://www.w3.org/2000/svg">
<path d="M3.02985 16.0723C3.02985 9.00239 8.76076 3.27148 15.8306 3.27148C22.9005 3.27148 28.6314 9.00239 28.6314 16.0723C28.6314 23.1421 22.9005 28.873 15.8306 28.873C13.6225 28.873 11.5437 28.3137 9.72914 27.328L4.45714 28.827C3.61293 29.067 2.83336 28.2868 3.07337 27.4432L4.57235 22.1706C3.55641 20.2987 3.02607 18.202 3.02985 16.0723ZM10.7103 13.6721C10.7103 14.1137 11.0687 14.4722 11.5104 14.4722H20.1509C20.256 14.4722 20.36 14.4515 20.4571 14.4113C20.5541 14.3711 20.6423 14.3121 20.7166 14.2378C20.7909 14.1635 20.8498 14.0754 20.89 13.9783C20.9303 13.8812 20.9509 13.7772 20.9509 13.6721C20.9509 13.5671 20.9303 13.463 20.89 13.366C20.8498 13.2689 20.7909 13.1807 20.7166 13.1064C20.6423 13.0321 20.5541 12.9732 20.4571 12.933C20.36 12.8928 20.256 12.8721 20.1509 12.8721H11.5104C11.0687 12.8721 10.7103 13.2305 10.7103 13.6721ZM11.5104 17.6724C11.2982 17.6724 11.0947 17.7567 10.9446 17.9067C10.7946 18.0567 10.7103 18.2602 10.7103 18.4724C10.7103 18.6846 10.7946 18.8881 10.9446 19.0381C11.0947 19.1882 11.2982 19.2725 11.5104 19.2725H17.5907C17.8029 19.2725 18.0064 19.1882 18.1565 19.0381C18.3065 18.8881 18.3908 18.6846 18.3908 18.4724C18.3908 18.2602 18.3065 18.0567 18.1565 17.9067C18.0064 17.7567 17.8029 17.6724 17.5907 17.6724H11.5104Z" fill="#228B22"/>
</svg>
